<?xml version="1.0" encoding="UTF-8" standalone="no"?>
<!-- Created with Inkscape (http://www.inkscape.org/) -->

<svg
   version="1.1"
   id="svg2"
   xml:space="preserve"
   width="1133.8586"
   height="1133.8586"
   viewBox="0 0 1133.8586 1133.8586"
   sodipodi:docname="Plaque dessin normale sans chinoiserie.svg"
   inkscape:version="1.1.1 (3bf5ae0d25, 2021-09-20)"
   xmlns:inkscape="http://www.inkscape.org/namespaces/inkscape"
   xmlns:sodipodi="http://sodipodi.sourceforge.net/DTD/sodipodi-0.dtd"
   xmlns="http://www.w3.org/2000/svg"
   xmlns:svg="http://www.w3.org/2000/svg"><defs
     id="defs6"><clipPath
       clipPathUnits="userSpaceOnUse"
       id="clipPath16"><path
         d="M 0,850.394 H 850.394 V 0 H 0 Z"
         id="path14" /></clipPath><clipPath
       clipPathUnits="userSpaceOnUse"
       id="clipPath24"><path
         d="m 122.554,674.524 h 772.64 V 163.312 h -772.64 z"
         id="path22" /></clipPath><clipPath
       clipPathUnits="userSpaceOnUse"
       id="clipPath28"><path
         d="M 199.818,238.998 H 595.164 V 634.344 H 199.818 Z"
         id="path26" /></clipPath><clipPath
       clipPathUnits="userSpaceOnUse"
       id="clipPath50"><path
         d="M 0,850.394 H 850.394 V 0 H 0 Z"
         id="path48" /></clipPath><clipPath
       clipPathUnits="userSpaceOnUse"
       id="clipPath170"><path
         d="M 0,850.394 H 850.394 V 0 H 0 Z"
         id="path168" /></clipPath><clipPath
       clipPathUnits="userSpaceOnUse"
       id="clipPath182"><path
         d="M 0,850.394 H 850.394 V 0 H 0 Z"
         id="path180" /></clipPath><clipPath
       clipPathUnits="userSpaceOnUse"
       id="clipPath248"><path
         d="M 0,850.394 H 850.394 V 0 H 0 Z"
         id="path246" /></clipPath><clipPath
       clipPathUnits="userSpaceOnUse"
       id="clipPath280"><path
         d="M 0,850.394 H 850.394 V 0 H 0 Z"
         id="path278" /></clipPath><clipPath
       clipPathUnits="userSpaceOnUse"
       id="clipPath304"><path
         d="M 0,850.394 H 850.394 V 0 H 0 Z"
         id="path302" /></clipPath></defs><sodipodi:namedview
     id="namedview4"
     pagecolor="#ffffff"
     bordercolor="#666666"
     borderopacity="1.0"
     inkscape:pageshadow="2"
     inkscape:pageopacity="0.0"
     inkscape:pagecheckerboard="0"
     showgrid="false"
     inkscape:zoom="1.7300064"
     inkscape:cx="472.54161"
     inkscape:cy="540.74945"
     inkscape:window-width="1920"
     inkscape:window-height="1017"
     inkscape:window-x="-8"
     inkscape:window-y="-8"
     inkscape:window-maximized="1"
     inkscape:current-layer="g8" /><g
     id="g8"
     inkscape:groupmode="layer"
     inkscape:label="plaque dessin (1)"
     transform="matrix(1.3333333,0,0,-1.3333333,0,1133.8587)"><g
       id="g44"><g
         id="g46"
         clip-path="url(#clipPath50)"><g
           id="g52"
           transform="translate(390.6883,474.4301)"><path
             d="m 0,0 c 0,-2.348 -1.904,-4.252 -4.252,-4.252 -2.348,0 -4.252,1.904 -4.252,4.252 0,2.348 1.904,4.252 4.252,4.252 C -1.904,4.252 0,2.348 0,0 Z"
             style="fill:none;stroke:#1d1d1b;stroke-width:1;stroke-linecap:butt;stroke-linejoin:miter;stroke-miterlimit:10;stroke-dasharray:none;stroke-opacity:1"
             id="path54" /></g><g
           id="g56"
           transform="translate(422.5898,474.4301)"><path
             d="m 0,0 c 0,-2.348 -1.904,-4.252 -4.252,-4.252 -2.348,0 -4.252,1.904 -4.252,4.252 0,2.348 1.904,4.252 4.252,4.252 C -1.904,4.252 0,2.348 0,0 Z"
             style="fill:none;stroke:#1d1d1b;stroke-width:1;stroke-linecap:butt;stroke-linejoin:miter;stroke-miterlimit:10;stroke-dasharray:none;stroke-opacity:1"
             id="path58" /></g><g
           id="g60"
           transform="translate(431.0937,451.9552)"><path
             d="m 0,0 c 0,-2.348 -1.904,-4.252 -4.252,-4.252 -2.348,0 -4.252,1.904 -4.252,4.252 0,2.348 1.904,4.252 4.252,4.252 C -1.904,4.252 0,2.348 0,0 Z"
             style="fill:none;stroke:#1d1d1b;stroke-width:1;stroke-linecap:butt;stroke-linejoin:miter;stroke-miterlimit:10;stroke-dasharray:none;stroke-opacity:1"
             id="path62" /></g><g
           id="g64"
           transform="translate(481.4494,474.4301)"><path
             d="m 0,0 c 0,-2.348 -1.904,-4.252 -4.252,-4.252 -2.348,0 -4.252,1.904 -4.252,4.252 0,2.348 1.904,4.252 4.252,4.252 C -1.904,4.252 0,2.348 0,0 Z"
             style="fill:none;stroke:#1d1d1b;stroke-width:1;stroke-linecap:butt;stroke-linejoin:miter;stroke-miterlimit:10;stroke-dasharray:none;stroke-opacity:1"
             id="path66" /></g><g
           id="g68"
           transform="translate(500.1755,463.3795)"><path
             d="m 0,0 c 0,-2.348 -1.904,-4.252 -4.252,-4.252 -2.348,0 -4.252,1.904 -4.252,4.252 0,2.348 1.904,4.252 4.252,4.252 C -1.904,4.252 0,2.348 0,0 Z"
             style="fill:none;stroke:#1d1d1b;stroke-width:1;stroke-linecap:butt;stroke-linejoin:miter;stroke-miterlimit:10;stroke-dasharray:none;stroke-opacity:1"
             id="path70" /></g><g
           id="g72"
           transform="translate(473.504,451.9552)"><path
             d="m 0,0 c 0,-2.348 -1.904,-4.252 -4.252,-4.252 -2.348,0 -4.252,1.904 -4.252,4.252 0,2.348 1.904,4.252 4.252,4.252 C -1.904,4.252 0,2.348 0,0 Z"
             style="fill:none;stroke:#1d1d1b;stroke-width:1;stroke-linecap:butt;stroke-linejoin:miter;stroke-miterlimit:10;stroke-dasharray:none;stroke-opacity:1"
             id="path74" /></g><g
           id="g76"
           transform="translate(448.9835,428.4985)"><path
             d="m 0,0 c 0,-2.348 -1.904,-4.252 -4.252,-4.252 -2.348,0 -4.252,1.904 -4.252,4.252 0,2.348 1.904,4.252 4.252,4.252 C -1.904,4.252 0,2.348 0,0 Z"
             style="fill:none;stroke:#1d1d1b;stroke-width:1;stroke-linecap:butt;stroke-linejoin:miter;stroke-miterlimit:10;stroke-dasharray:none;stroke-opacity:1"
             id="path78" /></g><g
           id="g80"
           transform="translate(382.1844,451.9552)"><path
             d="m 0,0 c 0,-2.348 -1.904,-4.252 -4.252,-4.252 -2.348,0 -4.252,1.904 -4.252,4.252 0,2.348 1.904,4.252 4.252,4.252 C -1.904,4.252 0,2.348 0,0 Z"
             style="fill:none;stroke:#1d1d1b;stroke-width:1;stroke-linecap:butt;stroke-linejoin:miter;stroke-miterlimit:10;stroke-dasharray:none;stroke-opacity:1"
             id="path82" /></g><g
           id="g84"
           transform="translate(331.6957,474.4301)"><path
             d="m 0,0 c 0,-2.348 -1.904,-4.252 -4.252,-4.252 -2.348,0 -4.252,1.904 -4.252,4.252 0,2.348 1.904,4.252 4.252,4.252 C -1.904,4.252 0,2.348 0,0 Z"
             style="fill:none;stroke:#1d1d1b;stroke-width:1;stroke-linecap:butt;stroke-linejoin:miter;stroke-miterlimit:10;stroke-dasharray:none;stroke-opacity:1"
             id="path86" /></g><g
           id="g88"
           transform="translate(335.9477,518.2925)"><path
             d="m 0,0 c 0,-2.348 -1.904,-4.252 -4.252,-4.252 -2.348,0 -4.252,1.904 -4.252,4.252 0,2.348 1.904,4.252 4.252,4.252 C -1.904,4.252 0,2.348 0,0 Z"
             style="fill:none;stroke:#1d1d1b;stroke-width:1;stroke-linecap:butt;stroke-linejoin:miter;stroke-miterlimit:10;stroke-dasharray:none;stroke-opacity:1"
             id="path90" /></g><g
           id="g92"
           transform="translate(313.5574,521.7618)"><path
             d="m 0,0 c 0,-2.348 -1.904,-4.252 -4.252,-4.252 -2.348,0 -4.252,1.904 -4.252,4.252 0,2.348 1.904,4.252 4.252,4.252 C -1.904,4.252 0,2.348 0,0 Z"
             style="fill:none;stroke:#1d1d1b;stroke-width:1;stroke-linecap:butt;stroke-linejoin:miter;stroke-miterlimit:10;stroke-dasharray:none;stroke-opacity:1"
             id="path94" /></g><g
           id="g96"
           transform="translate(406.6987,541.7458)"><path
             d="m 0,0 c 0,-2.348 -1.904,-4.252 -4.252,-4.252 -2.348,0 -4.252,1.904 -4.252,4.252 0,2.348 1.904,4.252 4.252,4.252 C -1.904,4.252 0,2.348 0,0 Z"
             style="fill:none;stroke:#1d1d1b;stroke-width:1;stroke-linecap:butt;stroke-linejoin:miter;stroke-miterlimit:10;stroke-dasharray:none;stroke-opacity:1"
             id="path98" /></g><g
           id="g100"
           transform="translate(406.6987,560.6821)"><path
             d="m 0,0 c 0,-2.348 -1.904,-4.252 -4.252,-4.252 -2.348,0 -4.252,1.904 -4.252,4.252 0,2.348 1.904,4.252 4.252,4.252 C -1.904,4.252 0,2.348 0,0 Z"
             style="fill:none;stroke:#1d1d1b;stroke-width:1;stroke-linecap:butt;stroke-linejoin:miter;stroke-miterlimit:10;stroke-dasharray:none;stroke-opacity:1"
             id="path102" /></g><g
           id="g104"
           transform="translate(472.4751,515.3508)"><path
             d="m 0,0 c 0,-2.348 -1.904,-4.252 -4.252,-4.252 -2.348,0 -4.252,1.904 -4.252,4.252 0,2.348 1.904,4.252 4.252,4.252 C -1.904,4.252 0,2.348 0,0 Z"
             style="fill:none;stroke:#1d1d1b;stroke-width:1;stroke-linecap:butt;stroke-linejoin:miter;stroke-miterlimit:10;stroke-dasharray:none;stroke-opacity:1"
             id="path106" /></g><g
           id="g108"
           transform="translate(500.1755,521.5511)"><path
             d="m 0,0 c 0,-2.348 -1.904,-4.252 -4.252,-4.252 -2.348,0 -4.252,1.904 -4.252,4.252 0,2.348 1.904,4.252 4.252,4.252 C -1.904,4.252 0,2.348 0,0 Z"
             style="fill:none;stroke:#1d1d1b;stroke-width:1;stroke-linecap:butt;stroke-linejoin:miter;stroke-miterlimit:10;stroke-dasharray:none;stroke-opacity:1"
             id="path110" /></g><g
           id="g112"
           transform="translate(313.5574,463.3795)"><path
             d="m 0,0 c 0,-2.348 -1.904,-4.252 -4.252,-4.252 -2.348,0 -4.252,1.904 -4.252,4.252 0,2.348 1.904,4.252 4.252,4.252 C -1.904,4.252 0,2.348 0,0 Z"
             style="fill:none;stroke:#1d1d1b;stroke-width:1;stroke-linecap:butt;stroke-linejoin:miter;stroke-miterlimit:10;stroke-dasharray:none;stroke-opacity:1"
             id="path114" /></g><g
           id="g116"
           transform="translate(340.1997,451.9552)"><path
             d="m 0,0 c 0,-2.348 -1.904,-4.252 -4.252,-4.252 -2.348,0 -4.252,1.904 -4.252,4.252 0,2.348 1.904,4.252 4.252,4.252 C -1.904,4.252 0,2.348 0,0 Z"
             style="fill:none;stroke:#1d1d1b;stroke-width:1;stroke-linecap:butt;stroke-linejoin:miter;stroke-miterlimit:10;stroke-dasharray:none;stroke-opacity:1"
             id="path118" /></g><g
           id="g120"
           transform="translate(364.1197,428.4985)"><path
             d="m 0,0 c 0,-2.348 -1.904,-4.252 -4.252,-4.252 -2.348,0 -4.252,1.904 -4.252,4.252 0,2.348 1.904,4.252 4.252,4.252 C -1.904,4.252 0,2.348 0,0 Z"
             style="fill:none;stroke:#1d1d1b;stroke-width:1;stroke-linecap:butt;stroke-linejoin:miter;stroke-miterlimit:10;stroke-dasharray:none;stroke-opacity:1"
             id="path122" /></g><g
           id="g124"
           transform="translate(313.5431,393.1163)"><path
             d="m 0,0 c 0.192,-2.34 -1.549,-4.394 -3.889,-4.586 -2.341,-0.192 -4.394,1.549 -4.586,3.89 -0.193,2.34 1.549,4.393 3.889,4.586 C -2.245,4.082 -0.192,2.34 0,0 Z"
             style="fill:none;stroke:#1d1d1b;stroke-width:1;stroke-linecap:butt;stroke-linejoin:miter;stroke-miterlimit:10;stroke-dasharray:none;stroke-opacity:1"
             id="path126" /></g><g
           id="g128"
           transform="translate(349.8564,371.6747)"><path
             d="m 0,0 c 0.192,-2.34 -1.549,-4.394 -3.89,-4.586 -2.34,-0.192 -4.393,1.549 -4.585,3.89 -0.193,2.34 1.549,4.393 3.889,4.586 C -2.245,4.082 -0.192,2.34 0,0 Z"
             style="fill:none;stroke:#1d1d1b;stroke-width:1;stroke-linecap:butt;stroke-linejoin:miter;stroke-miterlimit:10;stroke-dasharray:none;stroke-opacity:1"
             id="path130" /></g><g
           id="g132"
           transform="translate(384.8307,371.6747)"><path
             d="m 0,0 c 0.192,-2.34 -1.549,-4.394 -3.89,-4.586 -2.34,-0.192 -4.393,1.549 -4.585,3.89 -0.193,2.34 1.549,4.393 3.889,4.586 C -2.245,4.082 -0.192,2.34 0,0 Z"
             style="fill:none;stroke:#1d1d1b;stroke-width:1;stroke-linecap:butt;stroke-linejoin:miter;stroke-miterlimit:10;stroke-dasharray:none;stroke-opacity:1"
             id="path134" /></g><g
           id="g136"
           transform="translate(429.4345,371.6747)"><path
             d="m 0,0 c 0.192,-2.34 -1.549,-4.394 -3.889,-4.586 -2.341,-0.192 -4.394,1.549 -4.586,3.89 -0.193,2.34 1.549,4.393 3.889,4.586 C -2.245,4.082 -0.192,2.34 0,0 Z"
             style="fill:none;stroke:#1d1d1b;stroke-width:1;stroke-linecap:butt;stroke-linejoin:miter;stroke-miterlimit:10;stroke-dasharray:none;stroke-opacity:1"
             id="path138" /></g><g
           id="g140"
           transform="translate(462.8639,371.6747)"><path
             d="m 0,0 c 0.192,-2.34 -1.549,-4.394 -3.889,-4.586 -2.341,-0.192 -4.394,1.549 -4.586,3.89 -0.193,2.34 1.549,4.393 3.889,4.586 C -2.245,4.082 -0.192,2.34 0,0 Z"
             style="fill:none;stroke:#1d1d1b;stroke-width:1;stroke-linecap:butt;stroke-linejoin:miter;stroke-miterlimit:10;stroke-dasharray:none;stroke-opacity:1"
             id="path142" /></g><g
           id="g144"
           transform="translate(499.7672,393.1163)"><path
             d="m 0,0 c 0.192,-2.34 -1.549,-4.394 -3.889,-4.586 -2.341,-0.192 -4.394,1.549 -4.586,3.89 -0.193,2.34 1.549,4.393 3.889,4.586 C -2.245,4.082 -0.192,2.34 0,0 Z"
             style="fill:none;stroke:#1d1d1b;stroke-width:1;stroke-linecap:butt;stroke-linejoin:miter;stroke-miterlimit:10;stroke-dasharray:none;stroke-opacity:1"
             id="path146" /></g><g
           id="g148"
           transform="translate(499.7672,335.4626)"><path
             d="m 0,0 c 0.192,-2.34 -1.549,-4.394 -3.889,-4.586 -2.341,-0.192 -4.394,1.549 -4.586,3.89 -0.193,2.34 1.549,4.393 3.889,4.585 C -2.245,4.082 -0.192,2.34 0,0 Z"
             style="fill:none;stroke:#1d1d1b;stroke-width:1;stroke-linecap:butt;stroke-linejoin:miter;stroke-miterlimit:10;stroke-dasharray:none;stroke-opacity:1"
             id="path150" /></g><g
           id="g152"
           transform="translate(407.1665,315.5217)"><path
             d="m 0,0 c 0.192,-2.34 -1.549,-4.394 -3.889,-4.586 -2.341,-0.192 -4.394,1.549 -4.586,3.89 -0.193,2.34 1.549,4.393 3.889,4.585 C -2.245,4.082 -0.192,2.34 0,0 Z"
             style="fill:none;stroke:#1d1d1b;stroke-width:1;stroke-linecap:butt;stroke-linejoin:miter;stroke-miterlimit:10;stroke-dasharray:none;stroke-opacity:1"
             id="path154" /></g><g
           id="g156"
           transform="translate(313.719,335.3055)"><path
             d="m 0,0 c 0.192,-2.34 -1.549,-4.394 -3.889,-4.586 -2.341,-0.192 -4.394,1.549 -4.586,3.89 -0.193,2.34 1.549,4.393 3.889,4.585 C -2.245,4.082 -0.192,2.34 0,0 Z"
             style="fill:none;stroke:#1d1d1b;stroke-width:1;stroke-linecap:butt;stroke-linejoin:miter;stroke-miterlimit:10;stroke-dasharray:none;stroke-opacity:1"
             id="path158" /></g><g
           id="g160"
           transform="translate(406.891,295.4588)"><path
             d="m 0,0 c 0.192,-2.34 -1.549,-4.394 -3.89,-4.586 -2.34,-0.192 -4.393,1.549 -4.585,3.89 -0.193,2.34 1.549,4.393 3.889,4.585 C -2.245,4.082 -0.192,2.34 0,0 Z"
             style="fill:none;stroke:#1d1d1b;stroke-width:1;stroke-linecap:butt;stroke-linejoin:miter;stroke-miterlimit:10;stroke-dasharray:none;stroke-opacity:1"
             id="path162" /></g></g></g><g
       id="g164"><g
         id="g166"
         clip-path="url(#clipPath170)"><g
           id="g172"
           transform="translate(424.1887,427.7132)"><path
             d="m 0,0 c 0,-11.741 -9.518,-21.26 -21.26,-21.26 -11.741,0 -21.26,9.519 -21.26,21.26 0,11.741 9.519,21.26 21.26,21.26 C -9.518,21.26 0,11.741 0,0 Z"
             style="fill:none;stroke:#1d1d1b;stroke-width:1;stroke-linecap:butt;stroke-linejoin:miter;stroke-miterlimit:10;stroke-dasharray:none;stroke-opacity:1"
             id="path174" /></g></g></g><g
       id="g176"><g
         id="g178"
         clip-path="url(#clipPath182)"><g
           id="g184"
           transform="translate(351.2881,341.1937)"><path
             d="m 0,0 c 0,-1.566 -1.269,-2.835 -2.835,-2.835 -1.565,0 -2.834,1.269 -2.834,2.835 0,1.566 1.269,2.835 2.834,2.835 C -1.269,2.835 0,1.566 0,0 Z"
             style="fill:none;stroke:#1d1d1b;stroke-width:1;stroke-linecap:butt;stroke-linejoin:miter;stroke-miterlimit:10;stroke-dasharray:none;stroke-opacity:1"
             id="path186" /></g><g
           id="g188"
           transform="translate(428.9402,340.7922)"><path
             d="m 0,0 c 0,-1.566 -1.269,-2.835 -2.835,-2.835 -1.565,0 -2.834,1.269 -2.834,2.835 0,1.566 1.269,2.835 2.834,2.835 C -1.269,2.835 0,1.566 0,0 Z"
             style="fill:none;stroke:#1d1d1b;stroke-width:1;stroke-linecap:butt;stroke-linejoin:miter;stroke-miterlimit:10;stroke-dasharray:none;stroke-opacity:1"
             id="path190" /></g></g></g><g
       id="g192"
       transform="translate(350.56,483.6437)"><path
         d="M 0,0 V 15.95 H 12.76 V 0"
         style="fill:none;stroke:#1d1d1b;stroke-width:1;stroke-linecap:butt;stroke-linejoin:miter;stroke-miterlimit:10;stroke-dasharray:none;stroke-opacity:1"
         id="path194" /></g><g
       id="g196"
       transform="translate(363.32,465.2137)"><path
         d="M 0,0 V -16.64 H -12.76 V 0"
         style="fill:none;stroke:#1d1d1b;stroke-width:1;stroke-linecap:butt;stroke-linejoin:miter;stroke-miterlimit:10;stroke-dasharray:none;stroke-opacity:1"
         id="path198" /></g><g
       id="g200"
       transform="translate(363.32,483.6437)"><path
         d="M 0,0 H 13.75 V -18.43 H 0"
         style="fill:none;stroke:#1d1d1b;stroke-width:1;stroke-linecap:butt;stroke-linejoin:miter;stroke-miterlimit:10;stroke-dasharray:none;stroke-opacity:1"
         id="path202" /></g><g
       id="g204"
       transform="translate(350.56,465.2137)"><path
         d="M 0,0 H -13.75 V 18.43 H 0"
         style="fill:none;stroke:#1d1d1b;stroke-width:1;stroke-linecap:butt;stroke-linejoin:miter;stroke-miterlimit:10;stroke-dasharray:none;stroke-opacity:1"
         id="path206" /></g><g
       id="g208"
       transform="translate(442.1871,483.6437)"><path
         d="M 0,0 V 15.95 H 12.76 V 0"
         style="fill:none;stroke:#1d1d1b;stroke-width:1;stroke-linecap:butt;stroke-linejoin:miter;stroke-miterlimit:10;stroke-dasharray:none;stroke-opacity:1"
         id="path210" /></g><g
       id="g212"
       transform="translate(454.9471,465.2137)"><path
         d="M 0,0 V -16.64 H -12.76 V 0"
         style="fill:none;stroke:#1d1d1b;stroke-width:1;stroke-linecap:butt;stroke-linejoin:miter;stroke-miterlimit:10;stroke-dasharray:none;stroke-opacity:1"
         id="path214" /></g><g
       id="g216"
       transform="translate(454.9471,483.6437)"><path
         d="M 0,0 H 13.75 V -18.43 H 0"
         style="fill:none;stroke:#1d1d1b;stroke-width:1;stroke-linecap:butt;stroke-linejoin:miter;stroke-miterlimit:10;stroke-dasharray:none;stroke-opacity:1"
         id="path218" /></g><g
       id="g220"
       transform="translate(442.1871,465.2137)"><path
         d="M 0,0 H -13.75 V 18.43 H 0"
         style="fill:none;stroke:#1d1d1b;stroke-width:1;stroke-linecap:butt;stroke-linejoin:miter;stroke-miterlimit:10;stroke-dasharray:none;stroke-opacity:1"
         id="path222" /></g><path
       d="m 514.105,410.967 h -7.087 v 34.299 h 7.087 z"
       style="fill:none;stroke:#1d1d1b;stroke-width:1;stroke-linecap:butt;stroke-linejoin:miter;stroke-miterlimit:10;stroke-dasharray:none;stroke-opacity:1"
       id="path224" /><path
       d="m 298.218,410.967 h -7.087 v 34.299 h 7.087 z"
       style="fill:none;stroke:#1d1d1b;stroke-width:1;stroke-linecap:butt;stroke-linejoin:miter;stroke-miterlimit:10;stroke-dasharray:none;stroke-opacity:1"
       id="path226" /><path
       d="m 331.696,417.776 h -8.504 v 21.273 h 8.504 z"
       style="fill:none;stroke:#1d1d1b;stroke-width:1;stroke-linecap:butt;stroke-linejoin:miter;stroke-miterlimit:10;stroke-dasharray:none;stroke-opacity:1"
       id="path228" /><path
       d="m 482.008,417.862 h -8.504 v 21.273 h 8.504 z"
       style="fill:none;stroke:#1d1d1b;stroke-width:1;stroke-linecap:butt;stroke-linejoin:miter;stroke-miterlimit:10;stroke-dasharray:none;stroke-opacity:1"
       id="path230" /><path
       d="m 341.091,423.23 h -4.281 v 14.727 h 4.281 z"
       style="fill:none;stroke:#1d1d1b;stroke-width:1;stroke-linecap:butt;stroke-linejoin:miter;stroke-miterlimit:10;stroke-dasharray:none;stroke-opacity:1"
       id="path232" /><path
       d="m 468.073,423.23 h -4.145 v 14.727 h 4.145 z"
       style="fill:none;stroke:#1d1d1b;stroke-width:1;stroke-linecap:butt;stroke-linejoin:miter;stroke-miterlimit:10;stroke-dasharray:none;stroke-opacity:1"
       id="path234" /><path
       d="m 468.073,394.539 h -4.145 v 14.727 h 4.145 z"
       style="fill:none;stroke:#1d1d1b;stroke-width:1;stroke-linecap:butt;stroke-linejoin:miter;stroke-miterlimit:10;stroke-dasharray:none;stroke-opacity:1"
       id="path236" /><path
       d="m 341.091,394.539 h -4.281 v 14.727 h 4.281 z"
       style="fill:none;stroke:#1d1d1b;stroke-width:1;stroke-linecap:butt;stroke-linejoin:miter;stroke-miterlimit:10;stroke-dasharray:none;stroke-opacity:1"
       id="path238" /><path
       d="m 420.836,323.521 h -67.2 v 34.036 h 67.2 z"
       style="fill:none;stroke:#1d1d1b;stroke-width:1;stroke-linecap:butt;stroke-linejoin:miter;stroke-miterlimit:10;stroke-dasharray:none;stroke-opacity:1"
       id="path240" /><g
       id="g242"><g
         id="g244"
         clip-path="url(#clipPath248)"><g
           id="g250"
           transform="translate(402.4584,465.2137)"><path
             d="m 0,0 v 0 c -2.342,0 -4.24,1.898 -4.24,4.24 v 48.068 c 0,2.342 1.898,4.24 4.24,4.24 2.342,0 4.24,-1.898 4.24,-4.24 V 4.24 C 4.24,1.898 2.342,0 0,0 Z"
             style="fill:none;stroke:#1d1d1b;stroke-width:1;stroke-linecap:butt;stroke-linejoin:miter;stroke-miterlimit:10;stroke-dasharray:none;stroke-opacity:1"
             id="path252" /></g><g
           id="g254"
           transform="translate(431.0938,377.7028)"><path
             d="m 0,0 v 0 c -2.342,0 -4.24,1.898 -4.24,4.24 v 19.011 c 0,2.341 1.898,4.24 4.24,4.24 v 0 c 2.342,0 4.24,-1.899 4.24,-4.24 V 4.24 C 4.24,1.898 2.342,0 0,0 Z"
             style="fill:none;stroke:#1d1d1b;stroke-width:1;stroke-linecap:butt;stroke-linejoin:miter;stroke-miterlimit:10;stroke-dasharray:none;stroke-opacity:1"
             id="path256" /></g><g
           id="g258"
           transform="translate(402.5598,365.8482)"><path
             d="m 0,0 v 0 c -2.342,0 -4.24,1.898 -4.24,4.24 v 20.247 c 0,2.342 1.898,4.24 4.24,4.24 2.342,0 4.24,-1.898 4.24,-4.24 V 4.24 C 4.24,1.898 2.342,0 0,0 Z"
             style="fill:none;stroke:#1d1d1b;stroke-width:1;stroke-linecap:butt;stroke-linejoin:miter;stroke-miterlimit:10;stroke-dasharray:none;stroke-opacity:1"
             id="path260" /></g><g
           id="g262"
           transform="translate(374.0507,377.4119)"><path
             d="m 0,0 v 0 c -2.342,0 -4.24,1.898 -4.24,4.24 v 19.302 c 0,2.341 1.898,4.24 4.24,4.24 2.342,0 4.24,-1.899 4.24,-4.24 V 4.24 C 4.24,1.898 2.342,0 0,0 Z"
             style="fill:none;stroke:#1d1d1b;stroke-width:1;stroke-linecap:butt;stroke-linejoin:miter;stroke-miterlimit:10;stroke-dasharray:none;stroke-opacity:1"
             id="path264" /></g><g
           id="g266"
           transform="translate(373.9416,499.5937)"><path
             d="m 0,0 v 0 c -2.342,0 -4.24,1.898 -4.24,4.24 v 33.672 c 0,2.342 1.898,4.24 4.24,4.24 2.342,0 4.24,-1.898 4.24,-4.24 V 4.24 C 4.24,1.898 2.342,0 0,0 Z"
             style="fill:none;stroke:#1d1d1b;stroke-width:1;stroke-linecap:butt;stroke-linejoin:miter;stroke-miterlimit:10;stroke-dasharray:none;stroke-opacity:1"
             id="path268" /></g><g
           id="g270"
           transform="translate(431.0938,499.5937)"><path
             d="m 0,0 v 0 c -2.342,0 -4.24,1.898 -4.24,4.24 v 33.672 c 0,2.342 1.898,4.24 4.24,4.24 v 0 c 2.342,0 4.24,-1.898 4.24,-4.24 V 4.24 C 4.24,1.898 2.342,0 0,0 Z"
             style="fill:none;stroke:#1d1d1b;stroke-width:1;stroke-linecap:butt;stroke-linejoin:miter;stroke-miterlimit:10;stroke-dasharray:none;stroke-opacity:1"
             id="path272" /></g></g></g><g
       id="g274"><g
         id="g276"
         clip-path="url(#clipPath280)"><g
           id="g282"
           transform="translate(333.6884,533.3314)"><path
             d="m 0,0 c 16.93,9.944 22.828,14.602 48.748,18.854 l -0.187,-0.007 c 2.348,0 4.252,1.903 4.252,4.252 0,2.317 -1.853,4.201 -4.158,4.251 L 47.982,27.32 C 22.278,23.11 12.878,17.411 -4.073,7.463 l 0.065,0.029 c -0.02,-0.01 -0.04,-0.02 -0.06,-0.03 -1.3,-0.72 -2.18,-2.12 -2.18,-3.71 0,-2.34 1.91,-4.25 4.26,-4.25 0.72,0 1.4,0.18 1.99,0.5 0.13,0.07 0.25,0.15 0.38,0.23"
             style="fill:none;stroke:#1d1d1b;stroke-width:1;stroke-linecap:butt;stroke-linejoin:miter;stroke-miterlimit:10;stroke-dasharray:none;stroke-opacity:1"
             id="path284" /></g><g
           id="g286"
           transform="translate(421.3177,552.4152)"><path
             d="m 0,0 c 19.227,-3.979 26.726,-4.48 48.803,-18.71 l -0.143,0.119 c 1.741,-1.575 4.43,-1.439 6.005,0.302 1.554,1.719 1.443,4.36 -0.233,5.943 l -0.519,0.429 C 32.024,2.199 21.229,4.277 1.984,8.267 L 2.052,8.246 C 2.03,8.252 2.009,8.258 1.987,8.264 0.54,8.602 -1.052,8.153 -2.118,6.974 -3.687,5.238 -3.552,2.541 -1.809,0.964 -1.275,0.482 -0.65,0.159 0.003,0.001 0.146,-0.035 0.289,-0.056 0.439,-0.084"
             style="fill:none;stroke:#1d1d1b;stroke-width:1;stroke-linecap:butt;stroke-linejoin:miter;stroke-miterlimit:10;stroke-dasharray:none;stroke-opacity:1"
             id="path288" /></g><g
           id="g290"
           transform="translate(384.0409,303.4799)"><path
             d="m 0,0 c -19.212,4.052 -26.709,4.581 -48.732,18.895 l 0.143,-0.121 c -1.736,1.582 -4.425,1.457 -6.007,-0.279 -1.56,-1.713 -1.459,-4.354 0.211,-5.943 l 0.518,-0.431 C -32.032,-2.078 -21.245,-4.197 -2.015,-8.26 l -0.068,0.022 c 0.021,-0.006 0.043,-0.012 0.064,-0.018 1.446,-0.343 3.04,0.099 4.111,1.274 1.576,1.73 1.45,4.428 -0.287,6.011 -0.532,0.485 -1.156,0.81 -1.808,0.97 -0.143,0.036 -0.286,0.058 -0.436,0.086"
             style="fill:none;stroke:#1d1d1b;stroke-width:1;stroke-linecap:butt;stroke-linejoin:miter;stroke-miterlimit:10;stroke-dasharray:none;stroke-opacity:1"
             id="path292" /></g><g
           id="g294"
           transform="translate(471.5029,322.6628)"><path
             d="m 0,0 c -16.93,-9.944 -22.828,-14.602 -48.748,-18.854 l 0.187,0.007 c -2.348,0 -4.252,-1.903 -4.252,-4.252 0,-2.317 1.853,-4.201 4.158,-4.251 l 0.673,0.03 c 25.704,4.21 35.104,9.909 52.055,19.857 L 4.008,-7.492 c 0.02,0.01 0.04,0.02 0.06,0.03 1.3,0.72 2.18,2.12 2.18,3.71 0,2.34 -1.91,4.25 -4.26,4.25 -0.72,0 -1.4,-0.18 -1.99,-0.5 -0.13,-0.07 -0.25,-0.15 -0.38,-0.23"
             style="fill:none;stroke:#1d1d1b;stroke-width:1;stroke-linecap:butt;stroke-linejoin:miter;stroke-miterlimit:10;stroke-dasharray:none;stroke-opacity:1"
             id="path296" /></g></g></g><g
       id="g298"><g
         id="g300"
         clip-path="url(#clipPath304)"><g
           id="g306"
           transform="translate(280.33,499.7137)"><path
             d="m 0,0 c 24.67,41.74 70.12,69.73 122.12,69.73 51.93,0 97.33,-27.93 122.02,-69.58"
             style="fill:none;stroke:#1d1d1b;stroke-width:1;stroke-linecap:butt;stroke-linejoin:miter;stroke-miterlimit:10;stroke-dasharray:none;stroke-opacity:1"
             id="path308" /></g><g
           id="g310"
           transform="translate(280.33,355.7137)"><path
             d="m 0,0 c 24.67,-41.74 70.12,-69.73 122.12,-69.73 51.93,0 97.33,27.93 122.02,69.58"
             style="fill:none;stroke:#1d1d1b;stroke-width:1;stroke-linecap:butt;stroke-linejoin:miter;stroke-miterlimit:10;stroke-dasharray:none;stroke-opacity:1"
             id="path312" /></g><g
           id="g314"
           transform="translate(280.33,355.7137)"><path
             d="M 0,0 V 144"
             style="fill:none;stroke:#1d1d1b;stroke-width:1;stroke-linecap:butt;stroke-linejoin:miter;stroke-miterlimit:10;stroke-dasharray:none;stroke-opacity:1"
             id="path316" /></g><g
           id="g318"
           transform="translate(524.47,355.5637)"><path
             d="M 0,0 V 144.3"
             style="fill:none;stroke:#1d1d1b;stroke-width:1;stroke-linecap:butt;stroke-linejoin:miter;stroke-miterlimit:10;stroke-dasharray:none;stroke-opacity:1"
             id="path320" /></g></g></g></g></svg>
