  0
SECTION
  2
HEADER
  9
$ACADVER
  1
AC1032
  9
$ACADMAINTVER
 90
      197
  9
$DWGCODEPAGE
  3
ANSI_1252
  9
$REQUIREDVERSIONS
160
                 0
  9
$INSBASE
 10
0.0
 20
0.0
 30
0.0
  9
$EXTMIN
 10
1.000000000000000E+20
 20
1.000000000000000E+20
 30
1.000000000000000E+20
  9
$EXTMAX
 10
-1.000000000000000E+20
 20
-1.000000000000000E+20
 30
-1.000000000000000E+20
  9
$LIMMIN
 10
0.0
 20
0.0
  9
$LIMMAX
 10
12.0
 20
9.0
  9
$ORTHOMODE
 70
     0
  9
$REGENMODE
 70
     1
  9
$FILLMODE
 70
     1
  9
$QTEXTMODE
 70
     0
  9
$MIRRTEXT
 70
     0
  9
$LTSCALE
 40
1.0
  9
$ATTMODE
 70
     1
  9
$TEXTSIZE
 40
0.2
  9
$TRACEWID
 40
0.05
  9
$TEXTSTYLE
  7
Standard
  9
$CLAYER
  8
0
  9
$CELTYPE
  6
ByLayer
  9
$CECOLOR
 62
   256
  9
$CELTSCALE
 40
1.0
  9
$DISPSILH
 70
     0
  9
$DIMSCALE
 40
1.0
  9
$DIMASZ
 40
0.18
  9
$DIMEXO
 40
0.0625
  9
$DIMDLI
 40
0.38
  9
$DIMRND
 40
0.0
  9
$DIMDLE
 40
0.0
  9
$DIMEXE
 40
0.18
  9
$DIMTP
 40
0.0
  9
$DIMTM
 40
0.0
  9
$DIMTXT
 40
0.18
  9
$DIMCEN
 40
0.09
  9
$DIMTSZ
 40
0.0
  9
$DIMTOL
 70
     0
  9
$DIMLIM
 70
     0
  9
$DIMTIH
 70
     1
  9
$DIMTOH
 70
     1
  9
$DIMSE1
 70
     0
  9
$DIMSE2
 70
     0
  9
$DIMTAD
 70
     0
  9
$DIMZIN
 70
     0
  9
$DIMBLK
  1

  9
$DIMASO
 70
     1
  9
$DIMSHO
 70
     1
  9
$DIMPOST
  1

  9
$DIMAPOST
  1

  9
$DIMALT
 70
     0
  9
$DIMALTD
 70
     2
  9
$DIMALTF
 40
25.4
  9
$DIMLFAC
 40
1.0
  9
$DIMTOFL
 70
     0
  9
$DIMTVP
 40
0.0
  9
$DIMTIX
 70
     0
  9
$DIMSOXD
 70
     0
  9
$DIMSAH
 70
     0
  9
$DIMBLK1
  1

  9
$DIMBLK2
  1

  9
$DIMSTYLE
  2
Standard
  9
$DIMCLRD
 70
     0
  9
$DIMCLRE
 70
     0
  9
$DIMCLRT
 70
     0
  9
$DIMTFAC
 40
1.0
  9
$DIMGAP
 40
0.09
  9
$DIMJUST
 70
     0
  9
$DIMSD1
 70
     0
  9
$DIMSD2
 70
     0
  9
$DIMTOLJ
 70
     1
  9
$DIMTZIN
 70
     0
  9
$DIMALTZ
 70
     0
  9
$DIMALTTZ
 70
     0
  9
$DIMUPT
 70
     0
  9
$DIMDEC
 70
     4
  9
$DIMTDEC
 70
     4
  9
$DIMALTU
 70
     2
  9
$DIMALTTD
 70
     2
  9
$DIMTXSTY
  7
Standard
  9
$DIMAUNIT
 70
     0
  9
$DIMADEC
 70
     0
  9
$DIMALTRND
 40
0.0
  9
$DIMAZIN
 70
     0
  9
$DIMDSEP
 70
    46
  9
$DIMATFIT
 70
     3
  9
$DIMFRAC
 70
     0
  9
$DIMLDRBLK
  1

  9
$DIMLUNIT
 70
     2
  9
$DIMLWD
 70
    -2
  9
$DIMLWE
 70
    -2
  9
$DIMTMOVE
 70
     0
  9
$DIMFXL
 40
1.0
  9
$DIMFXLON
 70
     0
  9
$DIMJOGANG
 40
0.7853981633974483
  9
$DIMTFILL
 70
     0
  9
$DIMTFILLCLR
 70
     0
  9
$DIMARCSYM
 70
     0
  9
$DIMLTYPE
  6

  9
$DIMLTEX1
  6

  9
$DIMLTEX2
  6

  9
$DIMTXTDIRECTION
 70
     0
  9
$LUNITS
 70
     2
  9
$LUPREC
 70
     4
  9
$SKETCHINC
 40
0.1
  9
$FILLETRAD
 40
0.0
  9
$AUNITS
 70
     0
  9
$AUPREC
 70
     0
  9
$MENU
  1
.
  9
$ELEVATION
 40
0.0
  9
$PELEVATION
 40
0.0
  9
$THICKNESS
 40
0.0
  9
$LIMCHECK
 70
     0
  9
$CHAMFERA
 40
0.0
  9
$CHAMFERB
 40
0.0
  9
$CHAMFERC
 40
0.0
  9
$CHAMFERD
 40
0.0
  9
$SKPOLY
 70
     0
  9
$TDCREATE
 40
2460526.227546296
  9
$TDUCREATE
 40
2460526.144212963
  9
$TDUPDATE
 40
2460526.227546296
  9
$TDUUPDATE
 40
2460526.144212963
  9
$TDINDWG
 40
0.0000000000
  9
$TDUSRTIMER
 40
0.0000000000
  9
$USRTIMER
 70
     1
  9
$ANGBASE
 50
0.0
  9
$ANGDIR
 70
     0
  9
$PDMODE
 70
     0
  9
$PDSIZE
 40
0.0
  9
$PLINEWID
 40
0.0
  9
$SPLFRAME
 70
     0
  9
$SPLINETYPE
 70
     6
  9
$SPLINESEGS
 70
     8
  9
$HANDSEED
  5
C0
  9
$SURFTAB1
 70
     6
  9
$SURFTAB2
 70
     6
  9
$SURFTYPE
 70
     6
  9
$SURFU
 70
     6
  9
$SURFV
 70
     6
  9
$UCSBASE
  2

  9
$UCSNAME
  2

  9
$UCSORG
 10
0.0
 20
0.0
 30
0.0
  9
$UCSXDIR
 10
1.0
 20
0.0
 30
0.0
  9
$UCSYDIR
 10
0.0
 20
1.0
 30
0.0
  9
$UCSORTHOREF
  2

  9
$UCSORTHOVIEW
 70
     0
  9
$UCSORGTOP
 10
0.0
 20
0.0
 30
0.0
  9
$UCSORGBOTTOM
 10
0.0
 20
0.0
 30
0.0
  9
$UCSORGLEFT
 10
0.0
 20
0.0
 30
0.0
  9
$UCSORGRIGHT
 10
0.0
 20
0.0
 30
0.0
  9
$UCSORGFRONT
 10
0.0
 20
0.0
 30
0.0
  9
$UCSORGBACK
 10
0.0
 20
0.0
 30
0.0
  9
$PUCSBASE
  2

  9
$PUCSNAME
  2

  9
$PUCSORG
 10
0.0
 20
0.0
 30
0.0
  9
$PUCSXDIR
 10
1.0
 20
0.0
 30
0.0
  9
$PUCSYDIR
 10
0.0
 20
1.0
 30
0.0
  9
$PUCSORTHOREF
  2

  9
$PUCSORTHOVIEW
 70
     0
  9
$PUCSORGTOP
 10
0.0
 20
0.0
 30
0.0
  9
$PUCSORGBOTTOM
 10
0.0
 20
0.0
 30
0.0
  9
$PUCSORGLEFT
 10
0.0
 20
0.0
 30
0.0
  9
$PUCSORGRIGHT
 10
0.0
 20
0.0
 30
0.0
  9
$PUCSORGFRONT
 10
0.0
 20
0.0
 30
0.0
  9
$PUCSORGBACK
 10
0.0
 20
0.0
 30
0.0
  9
$USERI1
 70
     0
  9
$USERI2
 70
     0
  9
$USERI3
 70
     0
  9
$USERI4
 70
     0
  9
$USERI5
 70
     0
  9
$USERR1
 40
0.0
  9
$USERR2
 40
0.0
  9
$USERR3
 40
0.0
  9
$USERR4
 40
0.0
  9
$USERR5
 40
0.0
  9
$WORLDVIEW
 70
     1
  9
$SHADEDGE
 70
     3
  9
$SHADEDIF
 70
    70
  9
$TILEMODE
 70
     1
  9
$MAXACTVP
 70
    64
  9
$PINSBASE
 10
0.0
 20
0.0
 30
0.0
  9
$PLIMCHECK
 70
     0
  9
$PEXTMIN
 10
1.000000000000000E+20
 20
1.000000000000000E+20
 30
1.000000000000000E+20
  9
$PEXTMAX
 10
-1.000000000000000E+20
 20
-1.000000000000000E+20
 30
-1.000000000000000E+20
  9
$PLIMMIN
 10
0.0
 20
0.0
  9
$PLIMMAX
 10
12.0
 20
9.0
  9
$UNITMODE
 70
     0
  9
$VISRETAIN
 70
     1
  9
$PLINEGEN
 70
     0
  9
$PSLTSCALE
 70
     1
  9
$TREEDEPTH
 70
  3020
  9
$CMLSTYLE
  2
Standard
  9
$CMLJUST
 70
     0
  9
$CMLSCALE
 40
1.0
  9
$PROXYGRAPHICS
 70
     1
  9
$MEASUREMENT
 70
     0
  9
$CELWEIGHT
370
    -1
  9
$ENDCAPS
280
     0
  9
$JOINSTYLE
280
     0
  9
$LWDISPLAY
290
     1
  9
$INSUNITS
 70
     4
  9
$HYPERLINKBASE
  1

  9
$STYLESHEET
  1

  9
$XEDIT
290
     1
  9
$CEPSNTYPE
380
     0
  9
$PSTYLEMODE
290
     1
  9
$FINGERPRINTGUID
  2
{83849529-EC8D-4D45-A733-C00AF1E6B2A3}
  9
$VERSIONGUID
  2
{2C8D7B8D-D0D6-B548-A20B-597E22D56B01}
  9
$EXTNAMES
290
     1
  9
$PSVPSCALE
 40
0.0
  9
$OLESTARTUP
290
     0
  9
$SORTENTS
280
   127
  9
$INDEXCTL
280
     0
  9
$HIDETEXT
280
     1
  9
$XCLIPFRAME
280
     2
  9
$HALOGAP
280
     0
  9
$OBSCOLOR
 70
   257
  9
$OBSLTYPE
280
     0
  9
$INTERSECTIONDISPLAY
280
     0
  9
$INTERSECTIONCOLOR
 70
   257
  9
$DIMASSOC
280
     2
  9
$PROJECTNAME
  1

  9
$CAMERADISPLAY
290
     0
  9
$LENSLENGTH
 40
50.0
  9
$CAMERAHEIGHT
 40
0.0
  9
$STEPSPERSEC
 40
2.0
  9
$STEPSIZE
 40
6.0
  9
$3DDWFPREC
 40
2.0
  9
$PSOLWIDTH
 40
0.25
  9
$PSOLHEIGHT
 40
4.0
  9
$LOFTANG1
 40
1.570796326794896
  9
$LOFTANG2
 40
1.570796326794896
  9
$LOFTMAG1
 40
0.0
  9
$LOFTMAG2
 40
0.0
  9
$LOFTPARAM
 70
     7
  9
$LOFTNORMALS
280
     1
  9
$LATITUDE
 40
37.795
  9
$LONGITUDE
 40
-122.394
  9
$NORTHDIRECTION
 40
0.0
  9
$TIMEZONE
 70
 -8000
  9
$LIGHTGLYPHDISPLAY
280
     1
  9
$TILEMODELIGHTSYNCH
280
     1
  9
$CMATERIAL
347
11
  9
$SOLIDHIST
280
     0
  9
$SHOWHIST
280
     1
  9
$DWFFRAME
280
     2
  9
$DGNFRAME
280
     0
  9
$REALWORLDSCALE
290
     1
  9
$INTERFERECOLOR
 62
     1
  9
$INTERFEREOBJVS
345
33
  9
$INTERFEREVPVS
346
30
  9
$CSHADOW
280
     0
  9
$SHADOWPLANELOCATION
 40
0.0
  0
ENDSEC
  0
SECTION
  2
CLASSES
  0
CLASS
  1
ACDBDICTIONARYWDFLT
  2
AcDbDictionaryWithDefault
  3
ObjectDBX Classes
 90
        0
 91
        1
280
     0
281
     0
  0
CLASS
  1
MATERIAL
  2
AcDbMaterial
  3
ObjectDBX Classes
 90
     1153
 91
        3
280
     0
281
     0
  0
CLASS
  1
VISUALSTYLE
  2
AcDbVisualStyle
  3
ObjectDBX Classes
 90
     4095
 91
       24
280
     0
281
     0
  0
CLASS
  1
SCALE
  2
AcDbScale
  3
ObjectDBX Classes
 90
     1153
 91
       17
280
     0
281
     0
  0
CLASS
  1
TABLESTYLE
  2
AcDbTableStyle
  3
ObjectDBX Classes
 90
     4095
 91
        1
280
     0
281
     0
  0
CLASS
  1
MLEADERSTYLE
  2
AcDbMLeaderStyle
  3
ACDB_MLEADERSTYLE_CLASS
 90
     4095
 91
        1
280
     0
281
     0
  0
CLASS
  1
ACDBSECTIONVIEWSTYLE
  2
AcDbSectionViewStyle
  3
ObjectDBX Classes
 90
     1025
 91
        1
280
     0
281
     0
  0
CLASS
  1
ACDBDETAILVIEWSTYLE
  2
AcDbDetailViewStyle
  3
ObjectDBX Classes
 90
     1025
 91
        1
280
     0
281
     0
  0
CLASS
  1
DICTIONARYVAR
  2
AcDbDictionaryVar
  3
ObjectDBX Classes
 90
        0
 91
        5
280
     0
281
     0
  0
CLASS
  1
CELLSTYLEMAP
  2
AcDbCellStyleMap
  3
ObjectDBX Classes
 90
     1152
 91
        1
280
     0
281
     0
  0
ENDSEC
  0
SECTION
  2
TABLES
  0
TABLE
  2
VPORT
  5
8
330
0
100
AcDbSymbolTable
 70
     1
  0
VPORT
  5
57
330
8
100
AcDbSymbolTableRecord
100
AcDbViewportTableRecord
  2
*Active
 70
     0
 10
0.0
 20
0.0
 11
1.0
 21
1.0
 12
0.0
 22
0.0
 13
0.0
 23
0.0
 14
1.0
 24
1.0
 15
0.0
 25
0.0
 16
0.0
 26
0.0
 36
1.0
 17
200.0000660714193
 27
200.0000660714193
 37
0.0
 40
408.0001347856953
 41
1.0
 42
50.0
 43
0.0
 44
0.0
 50
0.0
 51
0.0
 71
     0
 72
   100
 73
     1
 74
     1
 75
     0
 76
     0
 77
     0
 78
     0
281
     0
 65
     1
110
0.0
120
0.0
130
0.0
111
1.0
121
0.0
131
0.0
112
0.0
122
1.0
132
0.0
 79
     0
146
0.0
 60
     3
 61
     5
292
     1
282
     1
141
0.0
142
0.0
 63
   250
421
  3355443
  0
ENDTAB
  0
TABLE
  2
LTYPE
  5
5
330
0
100
AcDbSymbolTable
 70
     1
  0
LTYPE
  5
5B
330
5
100
AcDbSymbolTableRecord
100
AcDbLinetypeTableRecord
  2
ByBlock
 70
     0
  3

 72
    65
 73
     0
 40
0.0
  0
LTYPE
  5
5C
330
5
100
AcDbSymbolTableRecord
100
AcDbLinetypeTableRecord
  2
ByLayer
 70
     0
  3

 72
    65
 73
     0
 40
0.0
  0
LTYPE
  5
5D
330
5
100
AcDbSymbolTableRecord
100
AcDbLinetypeTableRecord
  2
Continuous
 70
     0
  3
Solid line
 72
    65
 73
     0
 40
0.0
  0
ENDTAB
  0
TABLE
  2
LAYER
  5
2
330
0
100
AcDbSymbolTable
 70
     2
  0
LAYER
  5
54
330
2
100
AcDbSymbolTableRecord
100
AcDbLayerTableRecord
  2
0
 70
     0
 62
     7
  6
Continuous
370
    -3
390
F
347
21
348
0
  0
LAYER
  5
78
330
2
100
AcDbSymbolTableRecord
100
AcDbLayerTableRecord
  2
svg2
 70
     0
 62
     7
  6
Continuous
370
     0
390
F
347
21
348
0
  0
ENDTAB
  0
TABLE
  2
STYLE
  5
3
330
0
100
AcDbSymbolTable
 70
     2
  0
STYLE
  5
55
330
3
100
AcDbSymbolTableRecord
100
AcDbTextStyleTableRecord
  2
Standard
 70
     0
 40
0.0
 41
1.0
 50
0.0
 71
     0
 42
0.2
  3
txt
  4

  0
STYLE
  5
5A
330
3
100
AcDbSymbolTableRecord
100
AcDbTextStyleTableRecord
  2
Annotative
 70
     0
 40
0.0
 41
1.0
 50
0.0
 71
     0
 42
0.2
  3
txt
  4

1001
AcadAnnotative
1000
AnnotativeData
1002
{
1070
     1
1070
     1
1002
}
  0
ENDTAB
  0
TABLE
  2
VIEW
  5
6
330
0
100
AcDbSymbolTable
 70
     0
  0
ENDTAB
  0
TABLE
  2
UCS
  5
7
330
0
100
AcDbSymbolTable
 70
     0
  0
ENDTAB
  0
TABLE
  2
APPID
  5
9
330
0
100
AcDbSymbolTable
 70
     2
  0
APPID
  5
56
330
9
100
AcDbSymbolTableRecord
100
AcDbRegAppTableRecord
  2
ACAD
 70
     0
  0
APPID
  5
5E
330
9
100
AcDbSymbolTableRecord
100
AcDbRegAppTableRecord
  2
AcadAnnotative
 70
     0
  0
ENDTAB
  0
TABLE
  2
DIMSTYLE
  5
A
330
0
100
AcDbSymbolTable
 70
     2
100
AcDbDimStyleTable
 71
     0
  0
DIMSTYLE
105
58
330
A
100
AcDbSymbolTableRecord
100
AcDbDimStyleTableRecord
  2
Standard
 70
     0
340
55
  0
DIMSTYLE
105
59
330
A
100
AcDbSymbolTableRecord
100
AcDbDimStyleTableRecord
  2
Annotative
 70
     0
340
55
1001
AcadAnnotative
1000
AnnotativeData
1002
{
1070
     1
1070
     1
1002
}
  0
ENDTAB
  0
TABLE
  2
BLOCK_RECORD
  5
1
330
0
100
AcDbSymbolTable
 70
     1
  0
BLOCK_RECORD
  5
70
330
1
100
AcDbSymbolTableRecord
100
AcDbBlockTableRecord
  2
*Model_Space
340
73
 70
     0
280
     1
281
     0
  0
BLOCK_RECORD
  5
6C
330
1
100
AcDbSymbolTableRecord
100
AcDbBlockTableRecord
  2
*Paper_Space
340
6F
 70
     0
280
     1
281
     0
  0
BLOCK_RECORD
  5
74
330
1
100
AcDbSymbolTableRecord
100
AcDbBlockTableRecord
  2
*Paper_Space0
340
77
 70
     0
280
     1
281
     0
  0
ENDTAB
  0
ENDSEC
  0
SECTION
  2
BLOCKS
  0
BLOCK
  5
71
330
70
100
AcDbEntity
  8
0
100
AcDbBlockBegin
  2
*Model_Space
 70
     0
 10
0.0
 20
0.0
 30
0.0
  3
*Model_Space
  1

  0
ENDBLK
  5
72
330
70
100
AcDbEntity
  8
0
100
AcDbBlockEnd
  0
BLOCK
  5
6D
330
6C
100
AcDbEntity
 67
     1
  8
0
100
AcDbBlockBegin
  2
*Paper_Space
 70
     0
 10
0.0
 20
0.0
 30
0.0
  3
*Paper_Space
  1

  0
ENDBLK
  5
6E
330
6C
100
AcDbEntity
 67
     1
  8
0
100
AcDbBlockEnd
  0
BLOCK
  5
75
330
74
100
AcDbEntity
 67
     1
  8
0
100
AcDbBlockBegin
  2
*Paper_Space0
 70
     0
 10
0.0
 20
0.0
 30
0.0
  3
*Paper_Space0
  1

  0
ENDBLK
  5
76
330
74
100
AcDbEntity
 67
     1
  8
0
100
AcDbBlockEnd
  0
ENDSEC
  0
SECTION
  2
ENTITIES
  0
SPLINE
  5
79
330
70
100
AcDbEntity
  8
svg2
 62
   250
420
  1907995
370
    50
100
AcDbSpline
210
0.0
220
0.0
230
1.0
 70
    11
 71
     3
 72
    17
 73
    13
 74
     0
 42
0.0000000001
 43
0.0000000001
 40
0.0
 40
0.0
 40
0.0
 40
0.0
 40
1.0
 40
1.0
 40
1.0
 40
2.0
 40
2.0
 40
2.0
 40
3.0
 40
3.0
 40
3.0
 40
4.0
 40
4.0
 40
4.0
 40
4.0
 10
183.7681862933715
 20
223.1578554309425
 30
0.0
 10
183.7681862933715
 20
222.0534258440918
 30
0.0
 10
182.8726011411566
 20
221.1578408040221
 30
0.0
 10
181.7681716664512
 20
221.1578408040221
 30
0.0
 10
180.6637420796005
 20
221.1578408040221
 30
0.0
 10
179.7681570395308
 20
222.053425956237
 30
0.0
 10
179.7681570395308
 20
223.1578554309425
 30
0.0
 10
179.7681570395308
 20
224.2622850177931
 30
0.0
 10
180.6637423038907
 20
225.1578700578629
 30
0.0
 10
181.7681716664512
 20
225.1578700578629
 30
0.0
 10
182.8726011411566
 20
225.1578700578629
 30
0.0
 10
183.7681862933715
 20
224.2622850177931
 30
0.0
 10
183.7681862933715
 20
223.1578554309425
 30
0.0
  0
SPLINE
  5
7A
330
70
100
AcDbEntity
  8
svg2
 62
   250
420
  1907995
370
    50
100
AcDbSpline
210
0.0
220
0.0
230
1.0
 70
    11
 71
     3
 72
    17
 73
    13
 74
     0
 42
0.0000000001
 43
0.0000000001
 40
0.0
 40
0.0
 40
0.0
 40
0.0
 40
1.0
 40
1.0
 40
1.0
 40
2.0
 40
2.0
 40
2.0
 40
3.0
 40
3.0
 40
3.0
 40
4.0
 40
4.0
 40
4.0
 40
4.0
 10
198.7737150673491
 20
223.1578554309425
 30
0.0
 10
198.7737150673491
 20
222.0534258440918
 30
0.0
 10
197.8781299151341
 20
221.1578408040221
 30
0.0
 10
196.7737004404287
 20
221.1578408040221
 30
0.0
 10
195.6692708535781
 20
221.1578408040221
 30
0.0
 10
194.7736858135083
 20
222.053425956237
 30
0.0
 10
194.7736858135083
 20
223.1578554309425
 30
0.0
 10
194.7736858135083
 20
224.2622850177931
 30
0.0
 10
195.6692710778682
 20
225.1578700578629
 30
0.0
 10
196.7737004404287
 20
225.1578700578629
 30
0.0
 10
197.8781299151341
 20
225.1578700578629
 30
0.0
 10
198.7737150673491
 20
224.2622850177931
 30
0.0
 10
198.7737150673491
 20
223.1578554309425
 30
0.0
  0
SPLINE
  5
7B
330
70
100
AcDbEntity
  8
svg2
 62
   250
420
  1907995
370
    50
100
AcDbSpline
210
0.0
220
0.0
230
1.0
 70
    11
 71
     3
 72
    17
 73
    13
 74
     0
 42
0.0000000001
 43
0.0000000001
 40
0.0
 40
0.0
 40
0.0
 40
0.0
 40
1.0
 40
1.0
 40
1.0
 40
2.0
 40
2.0
 40
2.0
 40
3.0
 40
3.0
 40
3.0
 40
4.0
 40
4.0
 40
4.0
 40
4.0
 10
202.7736860057752
 20
212.5863221824045
 30
0.0
 10
202.7736860057752
 20
211.4818925955538
 30
0.0
 10
201.8781008535602
 20
210.5863075554841
 30
0.0
 10
200.7736713788551
 20
210.5863075554841
 30
0.0
 10
199.6692417920041
 20
210.5863075554841
 30
0.0
 10
198.7736567519343
 20
211.481892707699
 30
0.0
 10
198.7736567519343
 20
212.5863221824045
 30
0.0
 10
198.7736567519343
 20
213.6907517692551
 30
0.0
 10
199.6692420162943
 20
214.5863368093249
 30
0.0
 10
200.7736713788551
 20
214.5863368093249
 30
0.0
 10
201.8781008535602
 20
214.5863368093249
 30
0.0
 10
202.7736860057752
 20
213.6907517692551
 30
0.0
 10
202.7736860057752
 20
212.5863221824045
 30
0.0
  0
SPLINE
  5
7C
330
70
100
AcDbEntity
  8
svg2
 62
   250
420
  1907995
370
    50
100
AcDbSpline
210
0.0
220
0.0
230
1.0
 70
    11
 71
     3
 72
    17
 73
    13
 74
     0
 42
0.0000000001
 43
0.0000000001
 40
0.0
 40
0.0
 40
0.0
 40
0.0
 40
1.0
 40
1.0
 40
1.0
 40
2.0
 40
2.0
 40
2.0
 40
3.0
 40
3.0
 40
3.0
 40
4.0
 40
4.0
 40
4.0
 40
4.0
 10
226.4595199106952
 20
223.1578554309425
 30
0.0
 10
226.4595199106952
 20
222.0534258440918
 30
0.0
 10
225.5639347584802
 20
221.1578408040221
 30
0.0
 10
224.4595052837751
 20
221.1578408040221
 30
0.0
 10
223.3550756969241
 20
221.1578408040221
 30
0.0
 10
222.4594906568544
 20
222.053425956237
 30
0.0
 10
222.4594906568544
 20
223.1578554309425
 30
0.0
 10
222.4594906568544
 20
224.2622850177931
 30
0.0
 10
223.355075921214
 20
225.1578700578629
 30
0.0
 10
224.4595052837751
 20
225.1578700578629
 30
0.0
 10
225.5639347584802
 20
225.1578700578629
 30
0.0
 10
226.4595199106952
 20
224.2622850177931
 30
0.0
 10
226.4595199106952
 20
223.1578554309425
 30
0.0
  0
SPLINE
  5
7D
330
70
100
AcDbEntity
  8
svg2
 62
   250
420
  1907995
370
    50
100
AcDbSpline
210
0.0
220
0.0
230
1.0
 70
    11
 71
     3
 72
    17
 73
    13
 74
     0
 42
0.0000000001
 43
0.0000000001
 40
0.0
 40
0.0
 40
0.0
 40
0.0
 40
1.0
 40
1.0
 40
1.0
 40
2.0
 40
2.0
 40
2.0
 40
3.0
 40
3.0
 40
3.0
 40
4.0
 40
4.0
 40
4.0
 40
4.0
 10
235.2677242039042
 20
217.9599674454384
 30
0.0
 10
235.2677242039042
 20
216.8555378585878
 30
0.0
 10
234.3721390516893
 20
215.959952818518
 30
0.0
 10
233.2677095769842
 20
215.959952818518
 30
0.0
 10
232.1632799901332
 20
215.959952818518
 30
0.0
 10
231.2676949500635
 20
216.855537970733
 30
0.0
 10
231.2676949500635
 20
217.9599674454384
 30
0.0
 10
231.2676949500635
 20
219.0643970322891
 30
0.0
 10
232.163280214423
 20
219.9599820723588
 30
0.0
 10
233.2677095769842
 20
219.9599820723588
 30
0.0
 10
234.3721390516893
 20
219.9599820723588
 30
0.0
 10
235.2677242039042
 20
219.0643970322891
 30
0.0
 10
235.2677242039042
 20
217.9599674454384
 30
0.0
  0
SPLINE
  5
7E
330
70
100
AcDbEntity
  8
svg2
 62
   250
420
  1907995
370
    50
100
AcDbSpline
210
0.0
220
0.0
230
1.0
 70
    11
 71
     3
 72
    17
 73
    13
 74
     0
 42
0.0000000001
 43
0.0000000001
 40
0.0
 40
0.0
 40
0.0
 40
0.0
 40
1.0
 40
1.0
 40
1.0
 40
2.0
 40
2.0
 40
2.0
 40
3.0
 40
3.0
 40
3.0
 40
4.0
 40
4.0
 40
4.0
 40
4.0
 10
222.722237487362
 20
212.5863221824045
 30
0.0
 10
222.722237487362
 20
211.4818925955538
 30
0.0
 10
221.826652335147
 20
210.5863075554841
 30
0.0
 10
220.722222860442
 20
210.5863075554841
 30
0.0
 10
219.617793273591
 20
210.5863075554841
 30
0.0
 10
218.7222082335213
 20
211.481892707699
 30
0.0
 10
218.7222082335213
 20
212.5863221824045
 30
0.0
 10
218.7222082335213
 20
213.6907517692551
 30
0.0
 10
219.6177934978808
 20
214.5863368093249
 30
0.0
 10
220.722222860442
 20
214.5863368093249
 30
0.0
 10
221.826652335147
 20
214.5863368093249
 30
0.0
 10
222.722237487362
 20
213.6907517692551
 30
0.0
 10
222.722237487362
 20
212.5863221824045
 30
0.0
  0
SPLINE
  5
7F
330
70
100
AcDbEntity
  8
svg2
 62
   250
420
  1907995
370
    50
100
AcDbSpline
210
0.0
220
0.0
230
1.0
 70
    11
 71
     3
 72
    17
 73
    13
 74
     0
 42
0.0000000001
 43
0.0000000001
 40
0.0
 40
0.0
 40
0.0
 40
0.0
 40
1.0
 40
1.0
 40
1.0
 40
2.0
 40
2.0
 40
2.0
 40
3.0
 40
3.0
 40
3.0
 40
4.0
 40
4.0
 40
4.0
 40
4.0
 10
211.1885178362736
 20
201.5529882661587
 30
0.0
 10
211.1885178362736
 20
200.4485586793084
 30
0.0
 10
210.2929326840586
 20
199.552973639238
 30
0.0
 10
209.1885032093535
 20
199.552973639238
 30
0.0
 10
208.0840736225025
 20
199.552973639238
 30
0.0
 10
207.1884885824328
 20
200.448558791453
 30
0.0
 10
207.1884885824328
 20
201.5529882661587
 30
0.0
 10
207.1884885824328
 20
202.6574178530091
 30
0.0
 10
208.0840738467923
 20
203.5530028930794
 30
0.0
 10
209.1885032093535
 20
203.5530028930794
 30
0.0
 10
210.2929326840586
 20
203.5530028930794
 30
0.0
 10
211.1885178362736
 20
202.6574178530091
 30
0.0
 10
211.1885178362736
 20
201.5529882661587
 30
0.0
  0
SPLINE
  5
80
330
70
100
AcDbEntity
  8
svg2
 62
   250
420
  1907995
370
    50
100
AcDbSpline
210
0.0
220
0.0
230
1.0
 70
    11
 71
     3
 72
    17
 73
    13
 74
     0
 42
0.0000000001
 43
0.0000000001
 40
0.0
 40
0.0
 40
0.0
 40
0.0
 40
1.0
 40
1.0
 40
1.0
 40
2.0
 40
2.0
 40
2.0
 40
3.0
 40
3.0
 40
3.0
 40
4.0
 40
4.0
 40
4.0
 40
4.0
 10
179.7682010003819
 20
212.5863221824045
 30
0.0
 10
179.7682010003819
 20
211.4818925955538
 30
0.0
 10
178.8726158481669
 20
210.5863075554841
 30
0.0
 10
177.7681863734615
 20
210.5863075554841
 30
0.0
 10
176.6637567866108
 20
210.5863075554841
 30
0.0
 10
175.7681717465411
 20
211.481892707699
 30
0.0
 10
175.7681717465411
 20
212.5863221824045
 30
0.0
 10
175.7681717465411
 20
213.6907517692551
 30
0.0
 10
176.663757010901
 20
214.5863368093249
 30
0.0
 10
177.7681863734615
 20
214.5863368093249
 30
0.0
 10
178.8726158481669
 20
214.5863368093249
 30
0.0
 10
179.7682010003819
 20
213.6907517692551
 30
0.0
 10
179.7682010003819
 20
212.5863221824045
 30
0.0
  0
SPLINE
  5
81
330
70
100
AcDbEntity
  8
svg2
 62
   250
420
  1907995
370
    50
100
AcDbSpline
210
0.0
220
0.0
230
1.0
 70
    11
 71
     3
 72
    17
 73
    13
 74
     0
 42
0.0000000001
 43
0.0000000001
 40
0.0
 40
0.0
 40
0.0
 40
0.0
 40
1.0
 40
1.0
 40
1.0
 40
2.0
 40
2.0
 40
2.0
 40
3.0
 40
3.0
 40
3.0
 40
4.0
 40
4.0
 40
4.0
 40
4.0
 10
156.0198242615678
 20
223.1578554309425
 30
0.0
 10
156.0198242615678
 20
222.0534258440918
 30
0.0
 10
155.1242391093529
 20
221.1578408040221
 30
0.0
 10
154.0198096346475
 20
221.1578408040221
 30
0.0
 10
152.9153800477968
 20
221.1578408040221
 30
0.0
 10
152.0197950077271
 20
222.053425956237
 30
0.0
 10
152.0197950077271
 20
223.1578554309425
 30
0.0
 10
152.0197950077271
 20
224.2622850177931
 30
0.0
 10
152.915380272087
 20
225.1578700578629
 30
0.0
 10
154.0198096346475
 20
225.1578700578629
 30
0.0
 10
155.1242391093529
 20
225.1578700578629
 30
0.0
 10
156.0198242615678
 20
224.2622850177931
 30
0.0
 10
156.0198242615678
 20
223.1578554309425
 30
0.0
  0
SPLINE
  5
82
330
70
100
AcDbEntity
  8
svg2
 62
   250
420
  1907995
370
    50
100
AcDbSpline
210
0.0
220
0.0
230
1.0
 70
    11
 71
     3
 72
    17
 73
    13
 74
     0
 42
0.0000000001
 43
0.0000000001
 40
0.0
 40
0.0
 40
0.0
 40
0.0
 40
1.0
 40
1.0
 40
1.0
 40
2.0
 40
2.0
 40
2.0
 40
3.0
 40
3.0
 40
3.0
 40
4.0
 40
4.0
 40
4.0
 40
4.0
 10
158.0198312626263
 20
243.7894114063344
 30
0.0
 10
158.0198312626263
 20
242.6849818194837
 30
0.0
 10
157.1242461104114
 20
241.789396779414
 30
0.0
 10
156.019816635706
 20
241.789396779414
 30
0.0
 10
154.9153870488553
 20
241.789396779414
 30
0.0
 10
154.0198020087856
 20
242.684981931629
 30
0.0
 10
154.0198020087856
 20
243.7894114063344
 30
0.0
 10
154.0198020087856
 20
244.8938409931851
 30
0.0
 10
154.9153872731455
 20
245.7894260332548
 30
0.0
 10
156.019816635706
 20
245.7894260332548
 30
0.0
 10
157.1242461104114
 20
245.7894260332548
 30
0.0
 10
158.0198312626263
 20
244.8938409931851
 30
0.0
 10
158.0198312626263
 20
243.7894114063344
 30
0.0
  0
SPLINE
  5
83
330
70
100
AcDbEntity
  8
svg2
 62
   250
420
  1907995
370
    50
100
AcDbSpline
210
0.0
220
0.0
230
1.0
 70
    11
 71
     3
 72
    17
 73
    13
 74
     0
 42
0.0000000001
 43
0.0000000001
 40
0.0
 40
0.0
 40
0.0
 40
0.0
 40
1.0
 40
1.0
 40
1.0
 40
2.0
 40
2.0
 40
2.0
 40
3.0
 40
3.0
 40
3.0
 40
4.0
 40
4.0
 40
4.0
 40
4.0
 10
147.4881032191349
 20
245.421266913044
 30
0.0
 10
147.4881032191349
 20
244.3168373261933
 30
0.0
 10
146.59251806692
 20
243.4212522861236
 30
0.0
 10
145.4880885922146
 20
243.4212522861236
 30
0.0
 10
144.3836590053639
 20
243.4212522861236
 30
0.0
 10
143.4880739652942
 20
244.3168374383385
 30
0.0
 10
143.4880739652942
 20
245.421266913044
 30
0.0
 10
143.4880739652942
 20
246.5256964998946
 30
0.0
 10
144.383659229654
 20
247.4212815399643
 30
0.0
 10
145.4880885922146
 20
247.4212815399643
 30
0.0
 10
146.59251806692
 20
247.4212815399643
 30
0.0
 10
147.4881032191349
 20
246.5256964998946
 30
0.0
 10
147.4881032191349
 20
245.421266913044
 30
0.0
  0
SPLINE
  5
84
330
70
100
AcDbEntity
  8
svg2
 62
   250
420
  1907995
370
    50
100
AcDbSpline
210
0.0
220
0.0
230
1.0
 70
    11
 71
     3
 72
    17
 73
    13
 74
     0
 42
0.0000000001
 43
0.0000000001
 40
0.0
 40
0.0
 40
0.0
 40
0.0
 40
1.0
 40
1.0
 40
1.0
 40
2.0
 40
2.0
 40
2.0
 40
3.0
 40
3.0
 40
3.0
 40
4.0
 40
4.0
 40
4.0
 40
4.0
 10
191.2990066750461
 20
254.8211519660132
 30
0.0
 10
191.2990066750461
 20
253.7167223791625
 30
0.0
 10
190.4034215228311
 20
252.8211373390928
 30
0.0
 10
189.2989920481257
 20
252.8211373390928
 30
0.0
 10
188.194562461275
 20
252.8211373390928
 30
0.0
 10
187.2989774212053
 20
253.7167224913078
 30
0.0
 10
187.2989774212053
 20
254.8211519660132
 30
0.0
 10
187.2989774212053
 20
255.9255815528639
 30
0.0
 10
188.1945626855652
 20
256.8211665929336
 30
0.0
 10
189.2989920481257
 20
256.8211665929336
 30
0.0
 10
190.4034215228311
 20
256.8211665929336
 30
0.0
 10
191.2990066750461
 20
255.9255815528639
 30
0.0
 10
191.2990066750461
 20
254.8211519660132
 30
0.0
  0
SPLINE
  5
85
330
70
100
AcDbEntity
  8
svg2
 62
   250
420
  1907995
370
    50
100
AcDbSpline
210
0.0
220
0.0
230
1.0
 70
    11
 71
     3
 72
    17
 73
    13
 74
     0
 42
0.0000000001
 43
0.0000000001
 40
0.0
 40
0.0
 40
0.0
 40
0.0
 40
1.0
 40
1.0
 40
1.0
 40
2.0
 40
2.0
 40
2.0
 40
3.0
 40
3.0
 40
3.0
 40
4.0
 40
4.0
 40
4.0
 40
4.0
 10
191.2990066750461
 20
263.7282448483192
 30
0.0
 10
191.2990066750461
 20
262.6238152614686
 30
0.0
 10
190.4034215228311
 20
261.7282302213989
 30
0.0
 10
189.2989920481257
 20
261.7282302213989
 30
0.0
 10
188.194562461275
 20
261.7282302213989
 30
0.0
 10
187.2989774212053
 20
262.6238153736138
 30
0.0
 10
187.2989774212053
 20
263.7282448483192
 30
0.0
 10
187.2989774212053
 20
264.8326744351699
 30
0.0
 10
188.1945626855652
 20
265.7282594752396
 30
0.0
 10
189.2989920481257
 20
265.7282594752396
 30
0.0
 10
190.4034215228311
 20
265.7282594752396
 30
0.0
 10
191.2990066750461
 20
264.8326744351699
 30
0.0
 10
191.2990066750461
 20
263.7282448483192
 30
0.0
  0
SPLINE
  5
86
330
70
100
AcDbEntity
  8
svg2
 62
   250
420
  1907995
370
    50
100
AcDbSpline
210
0.0
220
0.0
230
1.0
 70
    11
 71
     3
 72
    17
 73
    13
 74
     0
 42
0.0000000001
 43
0.0000000001
 40
0.0
 40
0.0
 40
0.0
 40
0.0
 40
1.0
 40
1.0
 40
1.0
 40
2.0
 40
2.0
 40
2.0
 40
3.0
 40
3.0
 40
3.0
 40
4.0
 40
4.0
 40
4.0
 40
4.0
 10
222.2382733733535
 20
242.4057463054148
 30
0.0
 10
222.2382733733535
 20
241.3013167185641
 30
0.0
 10
221.3426882211386
 20
240.4057316784944
 30
0.0
 10
220.2382587464335
 20
240.4057316784944
 30
0.0
 10
219.1338291595825
 20
240.4057316784944
 30
0.0
 10
218.2382441195128
 20
241.3013168307093
 30
0.0
 10
218.2382441195128
 20
242.4057463054148
 30
0.0
 10
218.2382441195128
 20
243.5101758922654
 30
0.0
 10
219.1338293838723
 20
244.4057609323351
 30
0.0
 10
220.2382587464335
 20
244.4057609323351
 30
0.0
 10
221.3426882211386
 20
244.4057609323351
 30
0.0
 10
222.2382733733535
 20
243.5101758922654
 30
0.0
 10
222.2382733733535
 20
242.4057463054148
 30
0.0
  0
SPLINE
  5
87
330
70
100
AcDbEntity
  8
svg2
 62
   250
420
  1907995
370
    50
100
AcDbSpline
210
0.0
220
0.0
230
1.0
 70
    11
 71
     3
 72
    17
 73
    13
 74
     0
 42
0.0000000001
 43
0.0000000001
 40
0.0
 40
0.0
 40
0.0
 40
0.0
 40
1.0
 40
1.0
 40
1.0
 40
2.0
 40
2.0
 40
2.0
 40
3.0
 40
3.0
 40
3.0
 40
4.0
 40
4.0
 40
4.0
 40
4.0
 10
235.2677242039042
 20
245.322163005492
 30
0.0
 10
235.2677242039042
 20
244.2177334186413
 30
0.0
 10
234.3721390516893
 20
243.3221483785716
 30
0.0
 10
233.2677095769842
 20
243.3221483785716
 30
0.0
 10
232.1632799901332
 20
243.3221483785716
 30
0.0
 10
231.2676949500635
 20
244.2177335307866
 30
0.0
 10
231.2676949500635
 20
245.322163005492
 30
0.0
 10
231.2676949500635
 20
246.4265925923427
 30
0.0
 10
232.163280214423
 20
247.3221776324124
 30
0.0
 10
233.2677095769842
 20
247.3221776324124
 30
0.0
 10
234.3721390516893
 20
247.3221776324124
 30
0.0
 10
235.2677242039042
 20
246.4265925923427
 30
0.0
 10
235.2677242039042
 20
245.322163005492
 30
0.0
  0
SPLINE
  5
88
330
70
100
AcDbEntity
  8
svg2
 62
   250
420
  1907995
370
    50
100
AcDbSpline
210
0.0
220
0.0
230
1.0
 70
    11
 71
     3
 72
    17
 73
    13
 74
     0
 42
0.0000000001
 43
0.0000000001
 40
0.0
 40
0.0
 40
0.0
 40
0.0
 40
1.0
 40
1.0
 40
1.0
 40
2.0
 40
2.0
 40
2.0
 40
3.0
 40
3.0
 40
3.0
 40
4.0
 40
4.0
 40
4.0
 40
4.0
 10
147.4881032191349
 20
217.9599674454384
 30
0.0
 10
147.4881032191349
 20
216.8555378585878
 30
0.0
 10
146.59251806692
 20
215.959952818518
 30
0.0
 10
145.4880885922146
 20
215.959952818518
 30
0.0
 10
144.3836590053639
 20
215.959952818518
 30
0.0
 10
143.4880739652942
 20
216.855537970733
 30
0.0
 10
143.4880739652942
 20
217.9599674454384
 30
0.0
 10
143.4880739652942
 20
219.0643970322891
 30
0.0
 10
144.383659229654
 20
219.9599820723588
 30
0.0
 10
145.4880885922146
 20
219.9599820723588
 30
0.0
 10
146.59251806692
 20
219.9599820723588
 30
0.0
 10
147.4881032191349
 20
219.0643970322891
 30
0.0
 10
147.4881032191349
 20
217.9599674454384
 30
0.0
  0
SPLINE
  5
89
330
70
100
AcDbEntity
  8
svg2
 62
   250
420
  1907995
370
    50
100
AcDbSpline
210
0.0
220
0.0
230
1.0
 70
    11
 71
     3
 72
    17
 73
    13
 74
     0
 42
0.0000000001
 43
0.0000000001
 40
0.0
 40
0.0
 40
0.0
 40
0.0
 40
1.0
 40
1.0
 40
1.0
 40
2.0
 40
2.0
 40
2.0
 40
3.0
 40
3.0
 40
3.0
 40
4.0
 40
4.0
 40
4.0
 40
4.0
 10
160.0198526182485
 20
212.5863221824045
 30
0.0
 10
160.0198526182485
 20
211.4818925955538
 30
0.0
 10
159.1242674660336
 20
210.5863075554841
 30
0.0
 10
158.0198379913282
 20
210.5863075554841
 30
0.0
 10
156.9154084044775
 20
210.5863075554841
 30
0.0
 10
156.0198233644078
 20
211.481892707699
 30
0.0
 10
156.0198233644078
 20
212.5863221824045
 30
0.0
 10
156.0198233644078
 20
213.6907517692551
 30
0.0
 10
156.9154086287677
 20
214.5863368093249
 30
0.0
 10
158.0198379913282
 20
214.5863368093249
 30
0.0
 10
159.1242674660336
 20
214.5863368093249
 30
0.0
 10
160.0198526182485
 20
213.6907517692551
 30
0.0
 10
160.0198526182485
 20
212.5863221824045
 30
0.0
  0
SPLINE
  5
8A
330
70
100
AcDbEntity
  8
svg2
 62
   250
420
  1907995
370
    50
100
AcDbSpline
210
0.0
220
0.0
230
1.0
 70
    11
 71
     3
 72
    17
 73
    13
 74
     0
 42
0.0000000001
 43
0.0000000001
 40
0.0
 40
0.0
 40
0.0
 40
0.0
 40
1.0
 40
1.0
 40
1.0
 40
2.0
 40
2.0
 40
2.0
 40
3.0
 40
3.0
 40
3.0
 40
4.0
 40
4.0
 40
4.0
 40
4.0
 10
171.271103165512
 20
201.5529882661587
 30
0.0
 10
171.271103165512
 20
200.4485586793084
 30
0.0
 10
170.375518013297
 20
199.552973639238
 30
0.0
 10
169.2710885385916
 20
199.552973639238
 30
0.0
 10
168.1666589517409
 20
199.552973639238
 30
0.0
 10
167.2710739116712
 20
200.448558791453
 30
0.0
 10
167.2710739116712
 20
201.5529882661587
 30
0.0
 10
167.2710739116712
 20
202.6574178530091
 30
0.0
 10
168.1666591760311
 20
203.5530028930794
 30
0.0
 10
169.2710885385916
 20
203.5530028930794
 30
0.0
 10
170.375518013297
 20
203.5530028930794
 30
0.0
 10
171.271103165512
 20
202.6574178530091
 30
0.0
 10
171.271103165512
 20
201.5529882661587
 30
0.0
  0
SPLINE
  5
8B
330
70
100
AcDbEntity
  8
svg2
 62
   250
420
  1907995
370
    50
100
AcDbSpline
210
0.0
220
0.0
230
1.0
 70
    11
 71
     3
 72
    17
 73
    13
 74
     0
 42
0.0000000001
 43
0.0000000001
 40
0.0
 40
0.0
 40
0.0
 40
0.0
 40
1.0
 40
1.0
 40
1.0
 40
2.0
 40
2.0
 40
2.0
 40
3.0
 40
3.0
 40
3.0
 40
4.0
 40
4.0
 40
4.0
 40
4.0
 10
147.4813709287754
 20
184.9102497332241
 30
0.0
 10
147.571682035266
 20
183.8095831728096
 30
0.0
 10
146.7527672570191
 20
182.8434424244042
 30
0.0
 10
145.6521006966045
 20
182.753131359968
 30
0.0
 10
144.5509636877948
 20
182.6628202955318
 30
0.0
 10
143.5852933877846
 20
183.4817350317243
 30
0.0
 10
143.4949820990586
 20
184.5828720405341
 30
0.0
 10
143.4042006983722
 20
185.6835386009486
 30
0.0
 10
144.2235856586697
 20
186.6492090131041
 30
0.0
 10
145.3242523312295
 20
186.7399904137902
 30
0.0
 10
146.4253895643291
 20
186.8303013660811
 30
0.0
 10
147.3910598222849
 20
186.0109162936387
 30
0.0
 10
147.4813709287754
 20
184.9102497332241
 30
0.0
  0
SPLINE
  5
8C
330
70
100
AcDbEntity
  8
svg2
 62
   250
420
  1907995
370
    50
100
AcDbSpline
210
0.0
220
0.0
230
1.0
 70
    11
 71
     3
 72
    17
 73
    13
 74
     0
 42
0.0000000001
 43
0.0000000001
 40
0.0
 40
0.0
 40
0.0
 40
0.0
 40
1.0
 40
1.0
 40
1.0
 40
2.0
 40
2.0
 40
2.0
 40
3.0
 40
3.0
 40
3.0
 40
4.0
 40
4.0
 40
4.0
 40
4.0
 10
164.5620815537318
 20
174.8247620104262
 30
0.0
 10
164.6523926602224
 20
173.7240954500117
 30
0.0
 10
163.8334778819754
 20
172.7579547016063
 30
0.0
 10
162.7323408731657
 20
172.6676436371701
 30
0.0
 10
161.6316743127512
 20
172.5773325727339
 30
0.0
 10
160.6660040127409
 20
173.3962473089265
 30
0.0
 10
160.5756927240149
 20
174.4973843177362
 30
0.0
 10
160.4849113233285
 20
175.5980508781507
 30
0.0
 10
161.304296283626
 20
176.5637212903062
 30
0.0
 10
162.4049629561858
 20
176.6545026909923
 30
0.0
 10
163.5061001892854
 20
176.7448136432832
 30
0.0
 10
164.4717704472412
 20
175.9254285708408
 30
0.0
 10
164.5620815537318
 20
174.8247620104262
 30
0.0
  0
SPLINE
  5
8D
330
70
100
AcDbEntity
  8
svg2
 62
   250
420
  1907995
370
    50
100
AcDbSpline
210
0.0
220
0.0
230
1.0
 70
    11
 71
     3
 72
    17
 73
    13
 74
     0
 42
0.0000000001
 43
0.0000000001
 40
0.0
 40
0.0
 40
0.0
 40
0.0
 40
1.0
 40
1.0
 40
1.0
 40
2.0
 40
2.0
 40
2.0
 40
3.0
 40
3.0
 40
3.0
 40
4.0
 40
4.0
 40
4.0
 40
4.0
 10
181.0129426341393
 20
174.8247620104262
 30
0.0
 10
181.1032537406298
 20
173.7240954500117
 30
0.0
 10
180.2843389623829
 20
172.7579547016063
 30
0.0
 10
179.1832019535732
 20
172.6676436371701
 30
0.0
 10
178.0825353931587
 20
172.5773325727339
 30
0.0
 10
177.1168650931484
 20
173.3962473089265
 30
0.0
 10
177.0265538044224
 20
174.4973843177362
 30
0.0
 10
176.935772403736
 20
175.5980508781507
 30
0.0
 10
177.7551573640335
 20
176.5637212903062
 30
0.0
 10
178.8558240365933
 20
176.6545026909923
 30
0.0
 10
179.9569612696929
 20
176.7448136432832
 30
0.0
 10
180.9226315276487
 20
175.9254285708408
 30
0.0
 10
181.0129426341393
 20
174.8247620104262
 30
0.0
  0
SPLINE
  5
8E
330
70
100
AcDbEntity
  8
svg2
 62
   250
420
  1907995
370
    50
100
AcDbSpline
210
0.0
220
0.0
230
1.0
 70
    11
 71
     3
 72
    17
 73
    13
 74
     0
 42
0.0000000001
 43
0.0000000001
 40
0.0
 40
0.0
 40
0.0
 40
0.0
 40
1.0
 40
1.0
 40
1.0
 40
2.0
 40
2.0
 40
2.0
 40
3.0
 40
3.0
 40
3.0
 40
4.0
 40
4.0
 40
4.0
 40
4.0
 10
201.9932570883671
 20
174.8247620104262
 30
0.0
 10
202.0835681948576
 20
173.7240954500117
 30
0.0
 10
201.2646534166107
 20
172.7579547016063
 30
0.0
 10
200.1639868561961
 20
172.6676436371701
 30
0.0
 10
199.0628498473864
 20
172.5773325727339
 30
0.0
 10
198.0971795473762
 20
173.3962473089265
 30
0.0
 10
198.0068682586501
 20
174.4973843177362
 30
0.0
 10
197.9160868579637
 20
175.5980508781507
 30
0.0
 10
198.7354718182613
 20
176.5637212903062
 30
0.0
 10
199.8361384908211
 20
176.6545026909923
 30
0.0
 10
200.9372757239207
 20
176.7448136432832
 30
0.0
 10
201.9029459818765
 20
175.9254285708408
 30
0.0
 10
201.9932570883671
 20
174.8247620104262
 30
0.0
  0
SPLINE
  5
8F
330
70
100
AcDbEntity
  8
svg2
 62
   250
420
  1907995
370
    50
100
AcDbSpline
210
0.0
220
0.0
230
1.0
 70
    11
 71
     3
 72
    17
 73
    13
 74
     0
 42
0.0000000001
 43
0.0000000001
 40
0.0
 40
0.0
 40
0.0
 40
0.0
 40
1.0
 40
1.0
 40
1.0
 40
2.0
 40
2.0
 40
2.0
 40
3.0
 40
3.0
 40
3.0
 40
4.0
 40
4.0
 40
4.0
 40
4.0
 10
217.7174470922967
 20
174.8247620104262
 30
0.0
 10
217.8077581987873
 20
173.7240954500117
 30
0.0
 10
216.9888434205403
 20
172.7579547016063
 30
0.0
 10
215.8881768601258
 20
172.6676436371701
 30
0.0
 10
214.787039851316
 20
172.5773325727339
 30
0.0
 10
213.8213695513058
 20
173.3962473089265
 30
0.0
 10
213.7310582625798
 20
174.4973843177362
 30
0.0
 10
213.6402768618937
 20
175.5980508781507
 30
0.0
 10
214.4596618221909
 20
176.5637212903062
 30
0.0
 10
215.5603284947507
 20
176.6545026909923
 30
0.0
 10
216.6614657278503
 20
176.7448136432832
 30
0.0
 10
217.6271359858061
 20
175.9254285708408
 30
0.0
 10
217.7174470922967
 20
174.8247620104262
 30
0.0
  0
SPLINE
  5
90
330
70
100
AcDbEntity
  8
svg2
 62
   250
420
  1907995
370
    50
100
AcDbSpline
210
0.0
220
0.0
230
1.0
 70
    11
 71
     3
 72
    17
 73
    13
 74
     0
 42
0.0000000001
 43
0.0000000001
 40
0.0
 40
0.0
 40
0.0
 40
0.0
 40
1.0
 40
1.0
 40
1.0
 40
2.0
 40
2.0
 40
2.0
 40
3.0
 40
3.0
 40
3.0
 40
4.0
 40
4.0
 40
4.0
 40
4.0
 10
235.0756744966131
 20
184.9102497332241
 30
0.0
 10
235.1659856031037
 20
183.8095831728096
 30
0.0
 10
234.3470708248568
 20
182.8434424244042
 30
0.0
 10
233.2464042644422
 20
182.753131359968
 30
0.0
 10
232.1452672556325
 20
182.6628202955318
 30
0.0
 10
231.1795969556222
 20
183.4817350317243
 30
0.0
 10
231.0892856668962
 20
184.5828720405341
 30
0.0
 10
230.9985042662102
 20
185.6835386009486
 30
0.0
 10
231.8178892265073
 20
186.6492090131041
 30
0.0
 10
232.9185558990672
 20
186.7399904137902
 30
0.0
 10
234.0196931321667
 20
186.8303013660811
 30
0.0
 10
234.9853633901226
 20
186.0109162936387
 30
0.0
 10
235.0756744966131
 20
184.9102497332241
 30
0.0
  0
SPLINE
  5
91
330
70
100
AcDbEntity
  8
svg2
 62
   250
420
  1907995
370
    50
100
AcDbSpline
210
0.0
220
0.0
230
1.0
 70
    11
 71
     3
 72
    17
 73
    13
 74
     0
 42
0.0000000001
 43
0.0000000001
 40
0.0
 40
0.0
 40
0.0
 40
0.0
 40
1.0
 40
1.0
 40
1.0
 40
2.0
 40
2.0
 40
2.0
 40
3.0
 40
3.0
 40
3.0
 40
4.0
 40
4.0
 40
4.0
 40
4.0
 10
235.0756744966131
 20
157.7916511185872
 30
0.0
 10
235.1659856031037
 20
156.6909845581727
 30
0.0
 10
234.3470708248568
 20
155.7248438097673
 30
0.0
 10
233.2464042644422
 20
155.6345327453311
 30
0.0
 10
232.1452672556325
 20
155.544221680895
 30
0.0
 10
231.1795969556222
 20
156.3631364170875
 30
0.0
 10
231.0892856668962
 20
157.4642734258972
 30
0.0
 10
230.9985042662102
 20
158.5649399863117
 30
0.0
 10
231.8178892265073
 20
159.5306103984673
 30
0.0
 10
232.9185558990672
 20
159.6209214629034
 30
0.0
 10
234.0196931321667
 20
159.7117027514442
 30
0.0
 10
234.9853633901226
 20
158.8923176790018
 30
0.0
 10
235.0756744966131
 20
157.7916511185872
 30
0.0
  0
SPLINE
  5
92
330
70
100
AcDbEntity
  8
svg2
 62
   250
420
  1907995
370
    50
100
AcDbSpline
210
0.0
220
0.0
230
1.0
 70
    11
 71
     3
 72
    17
 73
    13
 74
     0
 42
0.0000000001
 43
0.0000000001
 40
0.0
 40
0.0
 40
0.0
 40
0.0
 40
1.0
 40
1.0
 40
1.0
 40
2.0
 40
2.0
 40
2.0
 40
3.0
 40
3.0
 40
3.0
 40
4.0
 40
4.0
 40
4.0
 40
4.0
 10
191.5190477814864
 20
148.4120490640784
 30
0.0
 10
191.609358887977
 20
147.3113825036639
 30
0.0
 10
190.79044410973
 20
146.3452417552585
 30
0.0
 10
189.6897775493155
 20
146.2549306908223
 30
0.0
 10
188.5886405405058
 20
146.1646196263862
 30
0.0
 10
187.6229702404955
 20
146.9835343625787
 30
0.0
 10
187.5326589517695
 20
148.0846713713884
 30
0.0
 10
187.4418775510831
 20
149.185337931803
 30
0.0
 10
188.2612625113806
 20
150.1510083439584
 30
0.0
 10
189.3619291839404
 20
150.2413194083946
 30
0.0
 10
190.46306641704
 20
150.3321006969355
 30
0.0
 10
191.4287366749958
 20
149.512715624493
 30
0.0
 10
191.5190477814864
 20
148.4120490640784
 30
0.0
  0
SPLINE
  5
93
330
70
100
AcDbEntity
  8
svg2
 62
   250
420
  1907995
370
    50
100
AcDbSpline
210
0.0
220
0.0
230
1.0
 70
    11
 71
     3
 72
    17
 73
    13
 74
     0
 42
0.0000000001
 43
0.0000000001
 40
0.0
 40
0.0
 40
0.0
 40
0.0
 40
1.0
 40
1.0
 40
1.0
 40
2.0
 40
2.0
 40
2.0
 40
3.0
 40
3.0
 40
3.0
 40
4.0
 40
4.0
 40
4.0
 40
4.0
 10
147.5641106337479
 20
157.7177681793969
 30
0.0
 10
147.6544217402384
 20
156.6171016189824
 30
0.0
 10
146.8355069619915
 20
155.650960870577
 30
0.0
 10
145.7348404015769
 20
155.5606498061408
 30
0.0
 10
144.6337033927672
 20
155.4703387417046
 30
0.0
 10
143.668033092757
 20
156.2892534778972
 30
0.0
 10
143.577721804031
 20
157.3903904867069
 30
0.0
 10
143.4869404033446
 20
158.4910570471214
 30
0.0
 10
144.3063253636421
 20
159.4567274592769
 30
0.0
 10
145.4069920362019
 20
159.5470385237131
 30
0.0
 10
146.5081292693015
 20
159.6378198122539
 30
0.0
 10
147.4737995272573
 20
158.8184347398115
 30
0.0
 10
147.5641106337479
 20
157.7177681793969
 30
0.0
  0
SPLINE
  5
94
330
70
100
AcDbEntity
  8
svg2
 62
   250
420
  1907995
370
    50
100
AcDbSpline
210
0.0
220
0.0
230
1.0
 70
    11
 71
     3
 72
    17
 73
    13
 74
     0
 42
0.0000000001
 43
0.0000000001
 40
0.0
 40
0.0
 40
0.0
 40
0.0
 40
1.0
 40
1.0
 40
1.0
 40
2.0
 40
2.0
 40
2.0
 40
3.0
 40
3.0
 40
3.0
 40
4.0
 40
4.0
 40
4.0
 40
4.0
 10
191.3894547807073
 20
138.9750574640319
 30
0.0
 10
191.4797658871978
 20
137.8743909036173
 30
0.0
 10
190.6608511089509
 20
136.9082501552119
 30
0.0
 10
189.5597141001412
 20
136.8179390907757
 30
0.0
 10
188.4590475397266
 20
136.7276280263396
 30
0.0
 10
187.4933772397164
 20
137.5465427625321
 30
0.0
 10
187.4030659509904
 20
138.6476797713418
 30
0.0
 10
187.312284550304
 20
139.7483463317564
 30
0.0
 10
188.1316695106015
 20
140.7140167439119
 30
0.0
 10
189.2323361831613
 20
140.804327808348
 30
0.0
 10
190.3334734162609
 20
140.8951090968889
 30
0.0
 10
191.2991436742167
 20
140.0757240244464
 30
0.0
 10
191.3894547807073
 20
138.9750574640319
 30
0.0
  0
SPLINE
  5
95
330
70
100
AcDbEntity
  8
svg2
 62
   250
420
  1907995
370
    50
100
AcDbSpline
210
0.0
220
0.0
230
1.0
 70
    11
 71
     3
 72
    17
 73
    13
 74
     0
 42
0.0000000001
 43
0.0000000001
 40
0.0
 40
0.0
 40
0.0
 40
0.0
 40
1.0
 40
1.0
 40
1.0
 40
2.0
 40
2.0
 40
2.0
 40
3.0
 40
3.0
 40
3.0
 40
4.0
 40
4.0
 40
4.0
 40
4.0
 10
199.5257793669526
 20
201.1836022793345
 30
0.0
 10
199.5257793669526
 20
195.6609840088315
 30
0.0
 10
195.0487946148134
 20
191.1835286961519
 30
0.0
 10
189.52570578377
 20
191.1835286961519
 30
0.0
 10
184.0030879618474
 20
191.1835286961519
 30
0.0
 10
179.5256322005878
 20
195.6609840088315
 30
0.0
 10
179.5256322005878
 20
201.1836022793345
 30
0.0
 10
179.5256322005878
 20
206.7062205498374
 30
0.0
 10
184.0030879618474
 20
211.183675862517
 30
0.0
 10
189.52570578377
 20
211.183675862517
 30
0.0
 10
195.0487946148134
 20
211.183675862517
 30
0.0
 10
199.5257793669526
 20
206.7062205498374
 30
0.0
 10
199.5257793669526
 20
201.1836022793345
 30
0.0
  0
SPLINE
  5
96
330
70
100
AcDbEntity
  8
svg2
 62
   250
420
  1907995
370
    50
100
AcDbSpline
210
0.0
220
0.0
230
1.0
 70
    11
 71
     3
 72
    17
 73
    13
 74
     0
 42
0.0000000001
 43
0.0000000001
 40
0.0
 40
0.0
 40
0.0
 40
0.0
 40
1.0
 40
1.0
 40
1.0
 40
2.0
 40
2.0
 40
2.0
 40
3.0
 40
3.0
 40
3.0
 40
4.0
 40
4.0
 40
4.0
 40
4.0
 10
165.2354971990078
 20
160.4873951114228
 30
0.0
 10
165.2354971990078
 20
159.7507951626888
 30
0.0
 10
164.6385972096144
 20
159.1538951732955
 30
0.0
 10
163.9019972608808
 20
159.1538951732955
 30
0.0
 10
163.1658676483971
 20
159.1538951732955
 30
0.0
 10
162.5689676590038
 20
159.7507951626888
 30
0.0
 10
162.5689676590038
 20
160.4873951114228
 30
0.0
 10
162.5689676590038
 20
161.2239950601567
 30
0.0
 10
163.1658676483971
 20
161.8208950495501
 30
0.0
 10
163.9019972608808
 20
161.8208950495501
 30
0.0
 10
164.6385972096144
 20
161.8208950495501
 30
0.0
 10
165.2354971990078
 20
161.2239950601567
 30
0.0
 10
165.2354971990078
 20
160.4873951114228
 30
0.0
  0
SPLINE
  5
97
330
70
100
AcDbEntity
  8
svg2
 62
   250
420
  1907995
370
    50
100
AcDbSpline
210
0.0
220
0.0
230
1.0
 70
    11
 71
     3
 72
    17
 73
    13
 74
     0
 42
0.0000000001
 43
0.0000000001
 40
0.0
 40
0.0
 40
0.0
 40
0.0
 40
1.0
 40
1.0
 40
1.0
 40
2.0
 40
2.0
 40
2.0
 40
3.0
 40
3.0
 40
3.0
 40
4.0
 40
4.0
 40
4.0
 40
4.0
 10
201.7607418661008
 20
160.2985464718293
 30
0.0
 10
201.7607418661008
 20
159.5619465230953
 30
0.0
 10
201.1638418767074
 20
158.965046533702
 30
0.0
 10
200.4272419279735
 20
158.965046533702
 30
0.0
 10
199.6911123154901
 20
158.965046533702
 30
0.0
 10
199.0942123260967
 20
159.5619465230953
 30
0.0
 10
199.0942123260967
 20
160.2985464718293
 30
0.0
 10
199.0942123260967
 20
161.0351464205632
 30
0.0
 10
199.6911123154901
 20
161.6320464099566
 30
0.0
 10
200.4272419279735
 20
161.6320464099566
 30
0.0
 10
201.1638418767074
 20
161.6320464099566
 30
0.0
 10
201.7607418661008
 20
161.0351464205632
 30
0.0
 10
201.7607418661008
 20
160.2985464718293
 30
0.0
  0
SPLINE
  5
98
330
70
100
AcDbEntity
  8
svg2
 62
   250
420
  1907995
370
    50
100
AcDbSpline
210
0.0
220
0.0
230
1.0
 70
     8
 71
     3
 72
    14
 73
    10
 74
     0
 42
0.0000000001
 43
0.0000000001
 40
0.0
 40
0.0
 40
0.0
 40
0.0
 40
1.0
 40
1.0
 40
1.0
 40
2.0
 40
2.0
 40
2.0
 40
3.0
 40
3.0
 40
3.0
 40
3.0
 10
164.8930260190578
 20
227.4916561019914
 30
0.0
 10
164.8930260190578
 20
227.4916561019914
 30
0.0
 10
164.8930260190578
 20
234.9940629706289
 30
0.0
 10
164.8930260190578
 20
234.9940629706289
 30
0.0
 10
164.8930260190578
 20
234.9940629706289
 30
0.0
 10
170.8949516934
 20
234.9940629706289
 30
0.0
 10
170.8949516934
 20
234.9940629706289
 30
0.0
 10
170.8949516934
 20
234.9940629706289
 30
0.0
 10
170.8949516934
 20
227.4916561019914
 30
0.0
 10
170.8949516934
 20
227.4916561019914
 30
0.0
  0
SPLINE
  5
99
330
70
100
AcDbEntity
  8
svg2
 62
   250
420
  1907995
370
    50
100
AcDbSpline
210
0.0
220
0.0
230
1.0
 70
     8
 71
     3
 72
    14
 73
    10
 74
     0
 42
0.0000000001
 43
0.0000000001
 40
0.0
 40
0.0
 40
0.0
 40
0.0
 40
1.0
 40
1.0
 40
1.0
 40
2.0
 40
2.0
 40
2.0
 40
3.0
 40
3.0
 40
3.0
 40
3.0
 10
170.8949561792009
 20
218.8227341400363
 30
0.0
 10
170.8949561792009
 20
218.8227341400363
 30
0.0
 10
170.8949561792009
 20
210.9957719326446
 30
0.0
 10
170.8949561792009
 20
210.9957719326446
 30
0.0
 10
170.8949561792009
 20
210.9957719326446
 30
0.0
 10
164.8930305048588
 20
210.9957719326446
 30
0.0
 10
164.8930305048588
 20
210.9957719326446
 30
0.0
 10
164.8930305048588
 20
210.9957719326446
 30
0.0
 10
164.8930305048588
 20
218.8227341400363
 30
0.0
 10
164.8930305048588
 20
218.8227341400363
 30
0.0
  0
SPLINE
  5
9A
330
70
100
AcDbEntity
  8
svg2
 62
   250
420
  1907995
370
    50
100
AcDbSpline
210
0.0
220
0.0
230
1.0
 70
     8
 71
     3
 72
    14
 73
    10
 74
     0
 42
0.0000000001
 43
0.0000000001
 40
0.0
 40
0.0
 40
0.0
 40
0.0
 40
1.0
 40
1.0
 40
1.0
 40
2.0
 40
2.0
 40
2.0
 40
3.0
 40
3.0
 40
3.0
 40
3.0
 10
170.8949561792009
 20
227.4916561019914
 30
0.0
 10
170.8949561792009
 20
227.4916561019914
 30
0.0
 10
177.3625483846781
 20
227.4916561019914
 30
0.0
 10
177.3625483846781
 20
227.4916561019914
 30
0.0
 10
177.3625483846781
 20
227.4916561019914
 30
0.0
 10
177.3625483846781
 20
218.8227305513953
 30
0.0
 10
177.3625483846781
 20
218.8227305513953
 30
0.0
 10
177.3625483846781
 20
218.8227305513953
 30
0.0
 10
170.8949561792009
 20
218.8227305513953
 30
0.0
 10
170.8949561792009
 20
218.8227305513953
 30
0.0
  0
SPLINE
  5
9B
330
70
100
AcDbEntity
  8
svg2
 62
   250
420
  1907995
370
    50
100
AcDbSpline
210
0.0
220
0.0
230
1.0
 70
     8
 71
     3
 72
    14
 73
    10
 74
     0
 42
0.0000000001
 43
0.0000000001
 40
0.0
 40
0.0
 40
0.0
 40
0.0
 40
1.0
 40
1.0
 40
1.0
 40
2.0
 40
2.0
 40
2.0
 40
3.0
 40
3.0
 40
3.0
 40
3.0
 10
164.8930260190578
 20
218.8227341400363
 30
0.0
 10
164.8930260190578
 20
218.8227341400363
 30
0.0
 10
158.4254338135806
 20
218.8227341400363
 30
0.0
 10
158.4254338135806
 20
218.8227341400363
 30
0.0
 10
158.4254338135806
 20
218.8227341400363
 30
0.0
 10
158.4254338135806
 20
227.4916596906323
 30
0.0
 10
158.4254338135806
 20
227.4916596906323
 30
0.0
 10
158.4254338135806
 20
227.4916596906323
 30
0.0
 10
164.8930260190578
 20
227.4916596906323
 30
0.0
 10
164.8930260190578
 20
227.4916596906323
 30
0.0
  0
SPLINE
  5
9C
330
70
100
AcDbEntity
  8
svg2
 62
   250
420
  1907995
370
    50
100
AcDbSpline
210
0.0
220
0.0
230
1.0
 70
     8
 71
     3
 72
    14
 73
    10
 74
     0
 42
0.0000000001
 43
0.0000000001
 40
0.0
 40
0.0
 40
0.0
 40
0.0
 40
1.0
 40
1.0
 40
1.0
 40
2.0
 40
2.0
 40
2.0
 40
3.0
 40
3.0
 40
3.0
 40
3.0
 10
207.9916990895393
 20
227.4916561019914
 30
0.0
 10
207.9916990895393
 20
227.4916561019914
 30
0.0
 10
207.9916990895393
 20
234.9940629706289
 30
0.0
 10
207.9916990895393
 20
234.9940629706289
 30
0.0
 10
207.9916990895393
 20
234.9940629706289
 30
0.0
 10
213.9936247638815
 20
234.9940629706289
 30
0.0
 10
213.9936247638815
 20
234.9940629706289
 30
0.0
 10
213.9936247638815
 20
234.9940629706289
 30
0.0
 10
213.9936247638815
 20
227.4916561019914
 30
0.0
 10
213.9936247638815
 20
227.4916561019914
 30
0.0
  0
SPLINE
  5
9D
330
70
100
AcDbEntity
  8
svg2
 62
   250
420
  1907995
370
    50
100
AcDbSpline
210
0.0
220
0.0
230
1.0
 70
     8
 71
     3
 72
    14
 73
    10
 74
     0
 42
0.0000000001
 43
0.0000000001
 40
0.0
 40
0.0
 40
0.0
 40
0.0
 40
1.0
 40
1.0
 40
1.0
 40
2.0
 40
2.0
 40
2.0
 40
3.0
 40
3.0
 40
3.0
 40
3.0
 10
213.9936292496825
 20
218.8227341400363
 30
0.0
 10
213.9936292496825
 20
218.8227341400363
 30
0.0
 10
213.9936292496825
 20
210.9957719326446
 30
0.0
 10
213.9936292496825
 20
210.9957719326446
 30
0.0
 10
213.9936292496825
 20
210.9957719326446
 30
0.0
 10
207.9917035753403
 20
210.9957719326446
 30
0.0
 10
207.9917035753403
 20
210.9957719326446
 30
0.0
 10
207.9917035753403
 20
210.9957719326446
 30
0.0
 10
207.9917035753403
 20
218.8227341400363
 30
0.0
 10
207.9917035753403
 20
218.8227341400363
 30
0.0
  0
SPLINE
  5
9E
330
70
100
AcDbEntity
  8
svg2
 62
   250
420
  1907995
370
    50
100
AcDbSpline
210
0.0
220
0.0
230
1.0
 70
     8
 71
     3
 72
    14
 73
    10
 74
     0
 42
0.0000000001
 43
0.0000000001
 40
0.0
 40
0.0
 40
0.0
 40
0.0
 40
1.0
 40
1.0
 40
1.0
 40
2.0
 40
2.0
 40
2.0
 40
3.0
 40
3.0
 40
3.0
 40
3.0
 10
213.9936292496825
 20
227.4916561019914
 30
0.0
 10
213.9936292496825
 20
227.4916561019914
 30
0.0
 10
220.4612214551596
 20
227.4916561019914
 30
0.0
 10
220.4612214551596
 20
227.4916561019914
 30
0.0
 10
220.4612214551596
 20
227.4916561019914
 30
0.0
 10
220.4612214551596
 20
218.8227305513953
 30
0.0
 10
220.4612214551596
 20
218.8227305513953
 30
0.0
 10
220.4612214551596
 20
218.8227305513953
 30
0.0
 10
213.9936292496825
 20
218.8227305513953
 30
0.0
 10
213.9936292496825
 20
218.8227305513953
 30
0.0
  0
SPLINE
  5
9F
330
70
100
AcDbEntity
  8
svg2
 62
   250
420
  1907995
370
    50
100
AcDbSpline
210
0.0
220
0.0
230
1.0
 70
     8
 71
     3
 72
    14
 73
    10
 74
     0
 42
0.0000000001
 43
0.0000000001
 40
0.0
 40
0.0
 40
0.0
 40
0.0
 40
1.0
 40
1.0
 40
1.0
 40
2.0
 40
2.0
 40
2.0
 40
3.0
 40
3.0
 40
3.0
 40
3.0
 10
207.9916990895393
 20
218.8227341400363
 30
0.0
 10
207.9916990895393
 20
218.8227341400363
 30
0.0
 10
201.5241068840622
 20
218.8227341400363
 30
0.0
 10
201.5241068840622
 20
218.8227341400363
 30
0.0
 10
201.5241068840622
 20
218.8227341400363
 30
0.0
 10
201.5241068840622
 20
227.4916596906323
 30
0.0
 10
201.5241068840622
 20
227.4916596906323
 30
0.0
 10
201.5241068840622
 20
227.4916596906323
 30
0.0
 10
207.9916990895393
 20
227.4916596906323
 30
0.0
 10
207.9916990895393
 20
227.4916596906323
 30
0.0
  0
SPLINE
  5
A0
330
70
100
AcDbEntity
  8
svg2
 62
   250
420
  1907995
370
    50
100
AcDbSpline
210
0.0
220
0.0
230
1.0
 70
    11
 71
     3
 72
    17
 73
    13
 74
     0
 42
0.0000000001
 43
0.0000000001
 40
0.0
 40
0.0
 40
0.0
 40
0.0
 40
1.0
 40
1.0
 40
1.0
 40
2.0
 40
2.0
 40
2.0
 40
3.0
 40
3.0
 40
3.0
 40
4.0
 40
4.0
 40
4.0
 40
4.0
 10
241.8197355983028
 20
193.306693367666
 30
0.0
 10
241.8197355983028
 20
193.306693367666
 30
0.0
 10
238.4862183417745
 20
193.306693367666
 30
0.0
 10
238.4862183417745
 20
193.306693367666
 30
0.0
 10
238.4862183417745
 20
193.306693367666
 30
0.0
 10
238.4862183417745
 20
209.4399310178299
 30
0.0
 10
238.4862183417745
 20
209.4399310178299
 30
0.0
 10
238.4862183417745
 20
209.4399310178299
 30
0.0
 10
241.8197355983028
 20
209.4399310178299
 30
0.0
 10
241.8197355983028
 20
209.4399310178299
 30
0.0
 10
241.8197355983028
 20
209.4399310178299
 30
0.0
 10
241.8197355983028
 20
193.306693367666
 30
0.0
 10
241.8197355983028
 20
193.306693367666
 30
0.0
  0
SPLINE
  5
A1
330
70
100
AcDbEntity
  8
svg2
 62
   250
420
  1907995
370
    50
100
AcDbSpline
210
0.0
220
0.0
230
1.0
 70
    11
 71
     3
 72
    17
 73
    13
 74
     0
 42
0.0000000001
 43
0.0000000001
 40
0.0
 40
0.0
 40
0.0
 40
0.0
 40
1.0
 40
1.0
 40
1.0
 40
2.0
 40
2.0
 40
2.0
 40
3.0
 40
3.0
 40
3.0
 40
4.0
 40
4.0
 40
4.0
 40
4.0
 10
140.2728966287908
 20
193.306693367666
 30
0.0
 10
140.2728966287908
 20
193.306693367666
 30
0.0
 10
136.9393793722626
 20
193.306693367666
 30
0.0
 10
136.9393793722626
 20
193.306693367666
 30
0.0
 10
136.9393793722626
 20
193.306693367666
 30
0.0
 10
136.9393793722626
 20
209.4399310178299
 30
0.0
 10
136.9393793722626
 20
209.4399310178299
 30
0.0
 10
136.9393793722626
 20
209.4399310178299
 30
0.0
 10
140.2728966287908
 20
209.4399310178299
 30
0.0
 10
140.2728966287908
 20
209.4399310178299
 30
0.0
 10
140.2728966287908
 20
209.4399310178299
 30
0.0
 10
140.2728966287908
 20
193.306693367666
 30
0.0
 10
140.2728966287908
 20
193.306693367666
 30
0.0
  0
SPLINE
  5
A2
330
70
100
AcDbEntity
  8
svg2
 62
   250
420
  1907995
370
    50
100
AcDbSpline
210
0.0
220
0.0
230
1.0
 70
    11
 71
     3
 72
    17
 73
    13
 74
     0
 42
0.0000000001
 43
0.0000000001
 40
0.0
 40
0.0
 40
0.0
 40
0.0
 40
1.0
 40
1.0
 40
1.0
 40
2.0
 40
2.0
 40
2.0
 40
3.0
 40
3.0
 40
3.0
 40
4.0
 40
4.0
 40
4.0
 40
4.0
 10
156.0199678072045
 20
196.5094405491944
 30
0.0
 10
156.0199678072045
 20
196.5094405491944
 30
0.0
 10
152.0199394505238
 20
196.5094405491944
 30
0.0
 10
152.0199394505238
 20
196.5094405491944
 30
0.0
 10
152.0199394505238
 20
196.5094405491944
 30
0.0
 10
152.0199394505238
 20
206.5156336622999
 30
0.0
 10
152.0199394505238
 20
206.5156336622999
 30
0.0
 10
152.0199394505238
 20
206.5156336622999
 30
0.0
 10
156.0199678072045
 20
206.5156336622999
 30
0.0
 10
156.0199678072045
 20
206.5156336622999
 30
0.0
 10
156.0199678072045
 20
206.5156336622999
 30
0.0
 10
156.0199678072045
 20
196.5094405491944
 30
0.0
 10
156.0199678072045
 20
196.5094405491944
 30
0.0
  0
SPLINE
  5
A3
330
70
100
AcDbEntity
  8
svg2
 62
   250
420
  1907995
370
    50
100
AcDbSpline
210
0.0
220
0.0
230
1.0
 70
    11
 71
     3
 72
    17
 73
    13
 74
     0
 42
0.0000000001
 43
0.0000000001
 40
0.0
 40
0.0
 40
0.0
 40
0.0
 40
1.0
 40
1.0
 40
1.0
 40
2.0
 40
2.0
 40
2.0
 40
3.0
 40
3.0
 40
3.0
 40
4.0
 40
4.0
 40
4.0
 40
4.0
 10
226.7222658440427
 20
196.549891709606
 30
0.0
 10
226.7222658440427
 20
196.549891709606
 30
0.0
 10
222.722237487362
 20
196.549891709606
 30
0.0
 10
222.722237487362
 20
196.549891709606
 30
0.0
 10
222.722237487362
 20
196.549891709606
 30
0.0
 10
222.722237487362
 20
206.5560848227114
 30
0.0
 10
222.722237487362
 20
206.5560848227114
 30
0.0
 10
222.722237487362
 20
206.5560848227114
 30
0.0
 10
226.7222658440427
 20
206.5560848227114
 30
0.0
 10
226.7222658440427
 20
206.5560848227114
 30
0.0
 10
226.7222658440427
 20
206.5560848227114
 30
0.0
 10
226.7222658440427
 20
196.549891709606
 30
0.0
 10
226.7222658440427
 20
196.549891709606
 30
0.0
  0
SPLINE
  5
A4
330
70
100
AcDbEntity
  8
svg2
 62
   250
420
  1907995
370
    50
100
AcDbSpline
210
0.0
220
0.0
230
1.0
 70
    11
 71
     3
 72
    17
 73
    13
 74
     0
 42
0.0000000001
 43
0.0000000001
 40
0.0
 40
0.0
 40
0.0
 40
0.0
 40
1.0
 40
1.0
 40
1.0
 40
2.0
 40
2.0
 40
2.0
 40
3.0
 40
3.0
 40
3.0
 40
4.0
 40
4.0
 40
4.0
 40
4.0
 10
160.4390920046858
 20
199.0748451039402
 30
0.0
 10
160.4390920046858
 20
199.0748451039402
 30
0.0
 10
158.4254338135806
 20
199.0748451039402
 30
0.0
 10
158.4254338135806
 20
199.0748451039402
 30
0.0
 10
158.4254338135806
 20
199.0748451039402
 30
0.0
 10
158.4254338135806
 20
206.0019843106295
 30
0.0
 10
158.4254338135806
 20
206.0019843106295
 30
0.0
 10
158.4254338135806
 20
206.0019843106295
 30
0.0
 10
160.4390920046858
 20
206.0019843106295
 30
0.0
 10
160.4390920046858
 20
206.0019843106295
 30
0.0
 10
160.4390920046858
 20
206.0019843106295
 30
0.0
 10
160.4390920046858
 20
199.0748451039402
 30
0.0
 10
160.4390920046858
 20
199.0748451039402
 30
0.0
  0
SPLINE
  5
A5
330
70
100
AcDbEntity
  8
svg2
 62
   250
420
  1907995
370
    50
100
AcDbSpline
210
0.0
220
0.0
230
1.0
 70
    11
 71
     3
 72
    17
 73
    13
 74
     0
 42
0.0000000001
 43
0.0000000001
 40
0.0
 40
0.0
 40
0.0
 40
0.0
 40
1.0
 40
1.0
 40
1.0
 40
2.0
 40
2.0
 40
2.0
 40
3.0
 40
3.0
 40
3.0
 40
4.0
 40
4.0
 40
4.0
 40
4.0
 10
220.1676562736206
 20
199.0748451039402
 30
0.0
 10
220.1676562736206
 20
199.0748451039402
 30
0.0
 10
218.2179763727761
 20
199.0748451039402
 30
0.0
 10
218.2179763727761
 20
199.0748451039402
 30
0.0
 10
218.2179763727761
 20
199.0748451039402
 30
0.0
 10
218.2179763727761
 20
206.0019843106295
 30
0.0
 10
218.2179763727761
 20
206.0019843106295
 30
0.0
 10
218.2179763727761
 20
206.0019843106295
 30
0.0
 10
220.1676562736206
 20
206.0019843106295
 30
0.0
 10
220.1676562736206
 20
206.0019843106295
 30
0.0
 10
220.1676562736206
 20
206.0019843106295
 30
0.0
 10
220.1676562736206
 20
199.0748451039402
 30
0.0
 10
220.1676562736206
 20
199.0748451039402
 30
0.0
  0
SPLINE
  5
A6
330
70
100
AcDbEntity
  8
svg2
 62
   250
420
  1907995
370
    50
100
AcDbSpline
210
0.0
220
0.0
230
1.0
 70
    11
 71
     3
 72
    17
 73
    13
 74
     0
 42
0.0000000001
 43
0.0000000001
 40
0.0
 40
0.0
 40
0.0
 40
0.0
 40
1.0
 40
1.0
 40
1.0
 40
2.0
 40
2.0
 40
2.0
 40
3.0
 40
3.0
 40
3.0
 40
4.0
 40
4.0
 40
4.0
 40
4.0
 10
220.1676562736206
 20
185.5794451367822
 30
0.0
 10
220.1676562736206
 20
185.5794451367822
 30
0.0
 10
218.2179763727761
 20
185.5794451367822
 30
0.0
 10
218.2179763727761
 20
185.5794451367822
 30
0.0
 10
218.2179763727761
 20
185.5794451367822
 30
0.0
 10
218.2179763727761
 20
192.5065843434715
 30
0.0
 10
218.2179763727761
 20
192.5065843434715
 30
0.0
 10
218.2179763727761
 20
192.5065843434715
 30
0.0
 10
220.1676562736206
 20
192.5065843434715
 30
0.0
 10
220.1676562736206
 20
192.5065843434715
 30
0.0
 10
220.1676562736206
 20
192.5065843434715
 30
0.0
 10
220.1676562736206
 20
185.5794451367822
 30
0.0
 10
220.1676562736206
 20
185.5794451367822
 30
0.0
  0
SPLINE
  5
A7
330
70
100
AcDbEntity
  8
svg2
 62
   250
420
  1907995
370
    50
100
AcDbSpline
210
0.0
220
0.0
230
1.0
 70
    11
 71
     3
 72
    17
 73
    13
 74
     0
 42
0.0000000001
 43
0.0000000001
 40
0.0
 40
0.0
 40
0.0
 40
0.0
 40
1.0
 40
1.0
 40
1.0
 40
2.0
 40
2.0
 40
2.0
 40
3.0
 40
3.0
 40
3.0
 40
4.0
 40
4.0
 40
4.0
 40
4.0
 10
160.4390920046858
 20
185.5794451367822
 30
0.0
 10
160.4390920046858
 20
185.5794451367822
 30
0.0
 10
158.4254338135806
 20
185.5794451367822
 30
0.0
 10
158.4254338135806
 20
185.5794451367822
 30
0.0
 10
158.4254338135806
 20
185.5794451367822
 30
0.0
 10
158.4254338135806
 20
192.5065843434715
 30
0.0
 10
158.4254338135806
 20
192.5065843434715
 30
0.0
 10
158.4254338135806
 20
192.5065843434715
 30
0.0
 10
160.4390920046858
 20
192.5065843434715
 30
0.0
 10
160.4390920046858
 20
192.5065843434715
 30
0.0
 10
160.4390920046858
 20
192.5065843434715
 30
0.0
 10
160.4390920046858
 20
185.5794451367822
 30
0.0
 10
160.4390920046858
 20
185.5794451367822
 30
0.0
  0
SPLINE
  5
A8
330
70
100
AcDbEntity
  8
svg2
 62
   250
420
  1907995
370
    50
100
AcDbSpline
210
0.0
220
0.0
230
1.0
 70
    11
 71
     3
 72
    17
 73
    13
 74
     0
 42
0.0000000001
 43
0.0000000001
 40
0.0
 40
0.0
 40
0.0
 40
0.0
 40
1.0
 40
1.0
 40
1.0
 40
2.0
 40
2.0
 40
2.0
 40
3.0
 40
3.0
 40
3.0
 40
4.0
 40
4.0
 40
4.0
 40
4.0
 10
197.9487726480119
 20
152.1746816468463
 30
0.0
 10
197.9487726480119
 20
152.1746816468463
 30
0.0
 10
166.3398799092363
 20
152.1746816468463
 30
0.0
 10
166.3398799092363
 20
152.1746816468463
 30
0.0
 10
166.3398799092363
 20
152.1746816468463
 30
0.0
 10
166.3398799092363
 20
168.1842116673341
 30
0.0
 10
166.3398799092363
 20
168.1842116673341
 30
0.0
 10
166.3398799092363
 20
168.1842116673341
 30
0.0
 10
197.9487726480119
 20
168.1842116673341
 30
0.0
 10
197.9487726480119
 20
168.1842116673341
 30
0.0
 10
197.9487726480119
 20
168.1842116673341
 30
0.0
 10
197.9487726480119
 20
152.1746816468463
 30
0.0
 10
197.9487726480119
 20
152.1746816468463
 30
0.0
  0
SPLINE
  5
A9
330
70
100
AcDbEntity
  8
svg2
 62
   250
420
  1907995
370
    50
100
AcDbSpline
210
0.0
220
0.0
230
1.0
 70
     8
 71
     3
 72
    11
 73
     7
 74
     0
 42
0.0000000001
 43
0.0000000001
 40
0.0
 40
0.0
 40
0.0
 40
0.0
 40
1.0
 40
1.0
 40
1.0
 40
2.0
 40
2.0
 40
2.0
 40
2.0
 10
131.8589117175487
 20
235.0505109465061
 30
0.0
 10
143.4629480959165
 20
254.6837698201247
 30
0.0
 10
164.8412814056818
 20
267.849436488266
 30
0.0
 10
189.3005392009407
 20
267.849436488266
 30
0.0
 10
213.7268712157903
 20
267.849436488266
 30
0.0
 10
235.0816890587893
 20
254.711992686613
 30
0.0
 10
246.6951267791984
 20
235.1210672155668
 30
0.0
  0
SPLINE
  5
AA
330
70
100
AcDbEntity
  8
svg2
 62
   250
420
  1907995
370
    50
100
AcDbSpline
210
0.0
220
0.0
230
1.0
 70
     8
 71
     3
 72
    11
 73
     7
 74
     0
 42
0.0000000001
 43
0.0000000001
 40
0.0
 40
0.0
 40
0.0
 40
0.0
 40
1.0
 40
1.0
 40
1.0
 40
2.0
 40
2.0
 40
2.0
 40
2.0
 10
131.8589117175487
 20
167.3171816673274
 30
0.0
 10
143.4629480959165
 20
147.6839227937086
 30
0.0
 10
164.8412814056818
 20
134.5182561255675
 30
0.0
 10
189.3005392009407
 20
134.5182561255675
 30
0.0
 10
213.7268712157903
 20
134.5182561255675
 30
0.0
 10
235.0816890587893
 20
147.6556999272205
 30
0.0
 10
246.6951267791984
 20
167.2466253982667
 30
0.0
  0
SPLINE
  5
AB
330
70
100
AcDbEntity
  8
svg2
 62
   250
420
  1907995
370
    50
100
AcDbSpline
210
0.0
220
0.0
230
1.0
 70
    24
 71
     3
 72
     8
 73
     4
 74
     0
 42
0.0000000001
 43
0.0000000001
 40
0.0
 40
0.0
 40
0.0
 40
0.0
 40
1.0
 40
1.0
 40
1.0
 40
1.0
 10
131.8589117175487
 20
167.3171816673274
 30
0.0
 10
131.8589117175487
 20
167.3171816673274
 30
0.0
 10
131.8589117175487
 20
235.0505109465061
 30
0.0
 10
131.8589117175487
 20
235.0505109465061
 30
0.0
  0
SPLINE
  5
AC
330
70
100
AcDbEntity
  8
svg2
 62
   250
420
  1907995
370
    50
100
AcDbSpline
210
0.0
220
0.0
230
1.0
 70
    24
 71
     3
 72
     8
 73
     4
 74
     0
 42
0.0000000001
 43
0.0000000001
 40
0.0
 40
0.0
 40
0.0
 40
0.0
 40
1.0
 40
1.0
 40
1.0
 40
1.0
 10
246.6951196019166
 20
167.246614632344
 30
0.0
 10
246.6951196019166
 20
167.246614632344
 30
0.0
 10
246.6951196019166
 20
235.1210564496441
 30
0.0
 10
246.6951196019166
 20
235.1210564496441
 30
0.0
  0
SPLINE
  5
AD
330
70
100
AcDbEntity
  8
svg2
 62
   250
420
  1907995
370
    50
100
AcDbSpline
210
0.0
220
0.0
230
1.0
 70
     9
 71
     3
 72
    26
 73
    22
 74
     0
 42
0.0000000001
 43
0.0000000001
 40
0.0
 40
0.0
 40
0.0
 40
0.0
 40
1.0
 40
1.0
 40
1.0
 40
2.0
 40
2.0
 40
2.0
 40
3.0
 40
3.0
 40
3.0
 40
4.0
 40
4.0
 40
4.0
 40
5.0
 40
5.0
 40
5.0
 40
6.0
 40
6.0
 40
6.0
 40
7.0
 40
7.0
 40
7.0
 40
7.0
 10
189.3044974718717
 20
218.8227341400363
 30
0.0
 10
189.3044974718717
 20
218.8227341400363
 30
0.0
 10
189.3044974718717
 20
218.8227341400363
 30
0.0
 10
189.3044974718717
 20
218.8227341400363
 30
0.0
 10
188.2028901268121
 20
218.8227341400363
 30
0.0
 10
187.3101273285331
 20
219.7154970504605
 30
0.0
 10
187.3101273285331
 20
220.8171042833749
 30
0.0
 10
187.3101273285331
 20
220.8171042833749
 30
0.0
 10
187.3101273285331
 20
243.4268653690971
 30
0.0
 10
187.3101273285331
 20
243.4268653690971
 30
0.0
 10
187.3101273285331
 20
244.5284722655767
 30
0.0
 10
188.202890238957
 20
245.4212346152757
 30
0.0
 10
189.3044974718717
 20
245.4212346152757
 30
0.0
 10
190.4061048169314
 20
245.4212346152757
 30
0.0
 10
191.2988676152104
 20
244.5284722655767
 30
0.0
 10
191.2988676152104
 20
243.4268653690971
 30
0.0
 10
191.2988676152104
 20
243.4268653690971
 30
0.0
 10
191.2988676152104
 20
220.8171042833749
 30
0.0
 10
191.2988676152104
 20
220.8171042833749
 30
0.0
 10
191.2988676152104
 20
219.7154970504605
 30
0.0
 10
190.4061048169314
 20
218.8227341400363
 30
0.0
 10
189.3044974718717
 20
218.8227341400363
 30
0.0
  0
SPLINE
  5
AE
330
70
100
AcDbEntity
  8
svg2
 62
   250
420
  1907995
370
    50
100
AcDbSpline
210
0.0
220
0.0
230
1.0
 70
     9
 71
     3
 72
    29
 73
    25
 74
     0
 42
0.0000000001
 43
0.0000000001
 40
0.0
 40
0.0
 40
0.0
 40
0.0
 40
1.0
 40
1.0
 40
1.0
 40
2.0
 40
2.0
 40
2.0
 40
3.0
 40
3.0
 40
3.0
 40
4.0
 40
4.0
 40
4.0
 40
5.0
 40
5.0
 40
5.0
 40
6.0
 40
6.0
 40
6.0
 40
7.0
 40
7.0
 40
7.0
 40
8.0
 40
8.0
 40
8.0
 40
8.0
 10
202.7737434240298
 20
177.6601902622983
 30
0.0
 10
202.7737434240298
 20
177.6601902622983
 30
0.0
 10
202.7737434240298
 20
177.6601902622983
 30
0.0
 10
202.7737434240298
 20
177.6601902622983
 30
0.0
 10
201.6721360789702
 20
177.6601902622983
 30
0.0
 10
200.7793732806911
 20
178.5529531727225
 30
0.0
 10
200.7793732806911
 20
179.6545604056369
 30
0.0
 10
200.7793732806911
 20
179.6545604056369
 30
0.0
 10
200.7793732806911
 20
188.5967708307924
 30
0.0
 10
200.7793732806911
 20
188.5967708307924
 30
0.0
 10
200.7793732806911
 20
189.6979076153116
 30
0.0
 10
201.6721361911154
 20
190.5911409741311
 30
0.0
 10
202.7737434240298
 20
190.5911409741311
 30
0.0
 10
202.7737434240298
 20
190.5911409741311
 30
0.0
 10
202.7737434240298
 20
190.5911409741311
 30
0.0
 10
202.7737434240298
 20
190.5911409741311
 30
0.0
 10
203.8753507690894
 20
190.5911409741311
 30
0.0
 10
204.7681135673685
 20
189.6979076153116
 30
0.0
 10
204.7681135673685
 20
188.5967708307924
 30
0.0
 10
204.7681135673685
 20
188.5967708307924
 30
0.0
 10
204.7681135673685
 20
179.6545604056369
 30
0.0
 10
204.7681135673685
 20
179.6545604056369
 30
0.0
 10
204.7681135673685
 20
178.5529531727225
 30
0.0
 10
203.8753507690894
 20
177.6601902622983
 30
0.0
 10
202.7737434240298
 20
177.6601902622983
 30
0.0
  0
SPLINE
  5
AF
330
70
100
AcDbEntity
  8
svg2
 62
   250
420
  1907995
370
    50
100
AcDbSpline
210
0.0
220
0.0
230
1.0
 70
     9
 71
     3
 72
    26
 73
    22
 74
     0
 42
0.0000000001
 43
0.0000000001
 40
0.0
 40
0.0
 40
0.0
 40
0.0
 40
1.0
 40
1.0
 40
1.0
 40
2.0
 40
2.0
 40
2.0
 40
3.0
 40
3.0
 40
3.0
 40
4.0
 40
4.0
 40
4.0
 40
5.0
 40
5.0
 40
5.0
 40
6.0
 40
6.0
 40
6.0
 40
7.0
 40
7.0
 40
7.0
 40
7.0
 10
189.3521976869348
 20
172.0841456515699
 30
0.0
 10
189.3521976869348
 20
172.0841456515699
 30
0.0
 10
189.3521976869348
 20
172.0841456515699
 30
0.0
 10
189.3521976869348
 20
172.0841456515699
 30
0.0
 10
188.2505903418751
 20
172.0841456515699
 30
0.0
 10
187.3578275435961
 20
172.9769085619941
 30
0.0
 10
187.3578275435961
 20
174.0785157949085
 30
0.0
 10
187.3578275435961
 20
174.0785157949085
 30
0.0
 10
187.3578275435961
 20
183.6021039917527
 30
0.0
 10
187.3578275435961
 20
183.6021039917527
 30
0.0
 10
187.3578275435961
 20
184.703710888232
 30
0.0
 10
188.25059045402
 20
185.5964741350914
 30
0.0
 10
189.3521976869348
 20
185.5964741350914
 30
0.0
 10
190.4538050319944
 20
185.5964741350914
 30
0.0
 10
191.3465678302734
 20
184.703710888232
 30
0.0
 10
191.3465678302734
 20
183.6021039917527
 30
0.0
 10
191.3465678302734
 20
183.6021039917527
 30
0.0
 10
191.3465678302734
 20
174.0785157949085
 30
0.0
 10
191.3465678302734
 20
174.0785157949085
 30
0.0
 10
191.3465678302734
 20
172.9769085619941
 30
0.0
 10
190.4538050319944
 20
172.0841456515699
 30
0.0
 10
189.3521976869348
 20
172.0841456515699
 30
0.0
  0
SPLINE
  5
B0
330
70
100
AcDbEntity
  8
svg2
 62
   250
420
  1907995
370
    50
100
AcDbSpline
210
0.0
220
0.0
230
1.0
 70
     9
 71
     3
 72
    26
 73
    22
 74
     0
 42
0.0000000001
 43
0.0000000001
 40
0.0
 40
0.0
 40
0.0
 40
0.0
 40
1.0
 40
1.0
 40
1.0
 40
2.0
 40
2.0
 40
2.0
 40
3.0
 40
3.0
 40
3.0
 40
4.0
 40
4.0
 40
4.0
 40
5.0
 40
5.0
 40
5.0
 40
6.0
 40
6.0
 40
6.0
 40
7.0
 40
7.0
 40
7.0
 40
7.0
 10
175.9423509192278
 20
177.5233625614314
 30
0.0
 10
175.9423509192278
 20
177.5233625614314
 30
0.0
 10
175.9423509192278
 20
177.5233625614314
 30
0.0
 10
175.9423509192278
 20
177.5233625614314
 30
0.0
 10
174.8407435741681
 20
177.5233625614314
 30
0.0
 10
173.9479807758891
 20
178.4161254718556
 30
0.0
 10
173.9479807758891
 20
179.51773270477
 30
0.0
 10
173.9479807758891
 20
179.51773270477
 30
0.0
 10
173.9479807758891
 20
188.5968210717653
 30
0.0
 10
173.9479807758891
 20
188.5968210717653
 30
0.0
 10
173.9479807758891
 20
189.6979578562845
 30
0.0
 10
174.840743686313
 20
190.5911912151039
 30
0.0
 10
175.9423509192278
 20
190.5911912151039
 30
0.0
 10
177.0439582642874
 20
190.5911912151039
 30
0.0
 10
177.9367210625664
 20
189.6979578562845
 30
0.0
 10
177.9367210625664
 20
188.5968210717653
 30
0.0
 10
177.9367210625664
 20
188.5968210717653
 30
0.0
 10
177.9367210625664
 20
179.51773270477
 30
0.0
 10
177.9367210625664
 20
179.51773270477
 30
0.0
 10
177.9367210625664
 20
178.4161254718556
 30
0.0
 10
177.0439582642874
 20
177.5233625614314
 30
0.0
 10
175.9423509192278
 20
177.5233625614314
 30
0.0
  0
SPLINE
  5
B1
330
70
100
AcDbEntity
  8
svg2
 62
   250
420
  1907995
370
    50
100
AcDbSpline
210
0.0
220
0.0
230
1.0
 70
     9
 71
     3
 72
    26
 73
    22
 74
     0
 42
0.0000000001
 43
0.0000000001
 40
0.0
 40
0.0
 40
0.0
 40
0.0
 40
1.0
 40
1.0
 40
1.0
 40
2.0
 40
2.0
 40
2.0
 40
3.0
 40
3.0
 40
3.0
 40
4.0
 40
4.0
 40
4.0
 40
5.0
 40
5.0
 40
5.0
 40
6.0
 40
6.0
 40
6.0
 40
7.0
 40
7.0
 40
7.0
 40
7.0
 10
175.8910333541208
 20
234.9940544476067
 30
0.0
 10
175.8910333541208
 20
234.9940544476067
 30
0.0
 10
175.8910333541208
 20
234.9940544476067
 30
0.0
 10
175.8910333541208
 20
234.9940544476067
 30
0.0
 10
174.7894260090612
 20
234.9940544476067
 30
0.0
 10
173.8966632107822
 20
235.8868173580309
 30
0.0
 10
173.8966632107822
 20
236.9884245909454
 30
0.0
 10
173.8966632107822
 20
236.9884245909454
 30
0.0
 10
173.8966632107822
 20
252.8267360675027
 30
0.0
 10
173.8966632107822
 20
252.8267360675027
 30
0.0
 10
173.8966632107822
 20
253.9283429639823
 30
0.0
 10
174.7894261212061
 20
254.8211053136813
 30
0.0
 10
175.8910333541208
 20
254.8211053136813
 30
0.0
 10
176.9926406991805
 20
254.8211053136813
 30
0.0
 10
177.8854034974595
 20
253.9283429639823
 30
0.0
 10
177.8854034974595
 20
252.8267360675027
 30
0.0
 10
177.8854034974595
 20
252.8267360675027
 30
0.0
 10
177.8854034974595
 20
236.9884245909454
 30
0.0
 10
177.8854034974595
 20
236.9884245909454
 30
0.0
 10
177.8854034974595
 20
235.8868173580309
 30
0.0
 10
176.9926406991805
 20
234.9940544476067
 30
0.0
 10
175.8910333541208
 20
234.9940544476067
 30
0.0
  0
SPLINE
  5
B2
330
70
100
AcDbEntity
  8
svg2
 62
   250
420
  1907995
370
    50
100
AcDbSpline
210
0.0
220
0.0
230
1.0
 70
     9
 71
     3
 72
    29
 73
    25
 74
     0
 42
0.0000000001
 43
0.0000000001
 40
0.0
 40
0.0
 40
0.0
 40
0.0
 40
1.0
 40
1.0
 40
1.0
 40
2.0
 40
2.0
 40
2.0
 40
3.0
 40
3.0
 40
3.0
 40
4.0
 40
4.0
 40
4.0
 40
5.0
 40
5.0
 40
5.0
 40
6.0
 40
6.0
 40
6.0
 40
7.0
 40
7.0
 40
7.0
 40
8.0
 40
8.0
 40
8.0
 40
8.0
 10
202.7737434240298
 20
234.9940544476067
 30
0.0
 10
202.7737434240298
 20
234.9940544476067
 30
0.0
 10
202.7737434240298
 20
234.9940544476067
 30
0.0
 10
202.7737434240298
 20
234.9940544476067
 30
0.0
 10
201.6721360789702
 20
234.9940544476067
 30
0.0
 10
200.7793732806911
 20
235.8868173580309
 30
0.0
 10
200.7793732806911
 20
236.9884245909454
 30
0.0
 10
200.7793732806911
 20
236.9884245909454
 30
0.0
 10
200.7793732806911
 20
252.8267360675027
 30
0.0
 10
200.7793732806911
 20
252.8267360675027
 30
0.0
 10
200.7793732806911
 20
253.9283429639823
 30
0.0
 10
201.6721361911154
 20
254.8211053136813
 30
0.0
 10
202.7737434240298
 20
254.8211053136813
 30
0.0
 10
202.7737434240298
 20
254.8211053136813
 30
0.0
 10
202.7737434240298
 20
254.8211053136813
 30
0.0
 10
202.7737434240298
 20
254.8211053136813
 30
0.0
 10
203.8753507690894
 20
254.8211053136813
 30
0.0
 10
204.7681135673685
 20
253.9283429639823
 30
0.0
 10
204.7681135673685
 20
252.8267360675027
 30
0.0
 10
204.7681135673685
 20
252.8267360675027
 30
0.0
 10
204.7681135673685
 20
236.9884245909454
 30
0.0
 10
204.7681135673685
 20
236.9884245909454
 30
0.0
 10
204.7681135673685
 20
235.8868173580309
 30
0.0
 10
203.8753507690894
 20
234.9940544476067
 30
0.0
 10
202.7737434240298
 20
234.9940544476067
 30
0.0
  0
SPLINE
  5
B3
330
70
100
AcDbEntity
  8
svg2
 62
   250
420
  1907995
370
    50
100
AcDbSpline
210
0.0
220
0.0
230
1.0
 70
     8
 71
     3
 72
    41
 73
    37
 74
     0
 42
0.0000000001
 43
0.0000000001
 40
0.0
 40
0.0
 40
0.0
 40
0.0
 40
1.0
 40
1.0
 40
1.0
 40
2.0
 40
2.0
 40
2.0
 40
3.0
 40
3.0
 40
3.0
 40
4.0
 40
4.0
 40
4.0
 40
5.0
 40
5.0
 40
5.0
 40
6.0
 40
6.0
 40
6.0
 40
7.0
 40
7.0
 40
7.0
 40
8.0
 40
8.0
 40
8.0
 40
9.0
 40
9.0
 40
9.0
 40
10.0
 40
10.0
 40
10.0
 40
11.0
 40
11.0
 40
11.0
 40
12.0
 40
12.0
 40
12.0
 40
12.0
 10
156.957119850721
 20
250.8632829628204
 30
0.0
 10
164.9204898879923
 20
255.5406457606579
 30
0.0
 10
167.6947336065573
 20
257.7316308111139
 30
0.0
 10
179.8867338098562
 20
259.7316454380343
 30
0.0
 10
179.8867338098562
 20
259.7316454380343
 30
0.0
 10
179.7987744266706
 20
259.7283528599933
 30
0.0
 10
179.7987744266706
 20
259.7283528599933
 30
0.0
 10
180.9032037892311
 20
259.7283528599933
 30
0.0
 10
181.7987886050109
 20
260.6234675638131
 30
0.0
 10
181.7987886050109
 20
261.7283670383337
 30
0.0
 10
181.7987886050109
 20
262.8182148556901
 30
0.0
 10
180.9271920594379
 20
263.7043929464673
 30
0.0
 10
179.8429882770832
 20
263.727911104714
 30
0.0
 10
179.8429882770832
 20
263.727911104714
 30
0.0
 10
179.5264288788712
 20
263.71380056863
 30
0.0
 10
179.5264288788712
 20
263.71380056863
 30
0.0
 10
167.4360302772023
 20
261.7335418585354
 30
0.0
 10
163.0145492397989
 20
259.0529006609973
 30
0.0
 10
155.0413014684051
 20
254.3736567424491
 30
0.0
 10
155.0413014684051
 20
254.3736567424491
 30
0.0
 10
155.0718755675637
 20
254.3872973908632
 30
0.0
 10
155.0718755675637
 20
254.3872973908632
 30
0.0
 10
155.0624681696911
 20
254.3825935797817
 30
0.0
 10
155.0530607718185
 20
254.3778899929903
 30
0.0
 10
155.0436533739455
 20
254.373186181909
 30
0.0
 10
154.4321718393481
 20
254.0345196342008
 30
0.0
 10
154.0182458843679
 20
253.3760011102397
 30
0.0
 10
154.0182458843679
 20
252.6281121943426
 30
0.0
 10
154.0182458843679
 20
251.5274456339281
 30
0.0
 10
154.9166531662286
 20
250.6290382399224
 30
0.0
 10
156.0220236498697
 20
250.6290382399224
 30
0.0
 10
156.3606903097228
 20
250.6290382399224
 30
0.0
 10
156.6805421177581
 20
250.7137049048856
 30
0.0
 10
156.9580606353664
 20
250.8642234110307
 30
0.0
 10
157.0192087776116
 20
250.8971493351259
 30
0.0
 10
157.0756532209205
 20
250.9347789651668
 30
0.0
 10
157.1368013631657
 20
250.9724085917029
 30
0.0
  0
SPLINE
  5
B4
330
70
100
AcDbEntity
  8
svg2
 62
   250
420
  1907995
370
    50
100
AcDbSpline
210
0.0
220
0.0
230
1.0
 70
     8
 71
     3
 72
    41
 73
    37
 74
     0
 42
0.0000000001
 43
0.0000000001
 40
0.0
 40
0.0
 40
0.0
 40
0.0
 40
1.0
 40
1.0
 40
1.0
 40
2.0
 40
2.0
 40
2.0
 40
3.0
 40
3.0
 40
3.0
 40
4.0
 40
4.0
 40
4.0
 40
5.0
 40
5.0
 40
5.0
 40
6.0
 40
6.0
 40
6.0
 40
7.0
 40
7.0
 40
7.0
 40
8.0
 40
8.0
 40
8.0
 40
9.0
 40
9.0
 40
9.0
 40
10.0
 40
10.0
 40
10.0
 40
11.0
 40
11.0
 40
11.0
 40
12.0
 40
12.0
 40
12.0
 40
12.0
 10
198.1753450809204
 20
259.8397370967618
 30
0.0
 10
207.219155313385
 20
257.9681334620186
 30
0.0
 10
210.7464627680488
 20
257.7324779546601
 30
0.0
 10
221.1308295524231
 20
251.0391084245277
 30
0.0
 10
221.1308295524231
 20
251.0391084245277
 30
0.0
 10
221.0635658614037
 20
251.0950822512239
 30
0.0
 10
221.0635658614037
 20
251.0950822512239
 30
0.0
 10
221.8824811583212
 20
250.3542486033687
 30
0.0
 10
223.1473066209679
 20
250.4182197163475
 30
0.0
 10
223.8881402688233
 20
251.2371341161049
 30
0.0
 10
224.6190961825556
 20
252.0457006697797
 30
0.0
 10
224.5668850458604
 20
253.2879490952602
 30
0.0
 10
223.7785431752313
 20
254.0325449845363
 30
0.0
 10
223.7785431752313
 20
254.0325449845363
 30
0.0
 10
223.53442049392
 20
254.2343338146949
 30
0.0
 10
223.53442049392
 20
254.2343338146949
 30
0.0
 10
213.2384841018524
 20
260.8740814236719
 30
0.0
 10
208.1608371188989
 20
261.8515110270956
 30
0.0
 10
199.1085598246264
 20
263.7282888091703
 30
0.0
 10
199.1085598246264
 20
263.7282888091703
 30
0.0
 10
199.1405450446807
 20
263.7184110750478
 30
0.0
 10
199.1405450446807
 20
263.7184110750478
 30
0.0
 10
199.1301968621623
 20
263.7212330925483
 30
0.0
 10
199.1203191280398
 20
263.7240555586292
 30
0.0
 10
199.1099709455218
 20
263.72687757613
 30
0.0
 10
198.4293450758103
 20
263.8858628917562
 30
0.0
 10
197.6805154593766
 20
263.6746664394348
 30
0.0
 10
197.1791006817512
 20
263.1200998526138
 30
0.0
 10
196.4410896121219
 20
262.3035369098168
 30
0.0
 10
196.5045896038353
 20
261.0349480842986
 30
0.0
 10
197.3244451246736
 20
260.2931741003784
 30
0.0
 10
197.5756229058086
 20
260.0664555985702
 30
0.0
 10
197.869604369694
 20
259.9145259785388
 30
0.0
 10
198.1767561919592
 20
259.8402074671264
 30
0.0
 10
198.2440191498747
 20
259.823274134714
 30
0.0
 10
198.3112821119519
 20
259.8133963567846
 30
0.0
 10
198.381837666088
 20
259.8002259885482
 30
0.0
  0
SPLINE
  5
B5
330
70
100
AcDbEntity
  8
svg2
 62
   250
420
  1907995
370
    50
100
AcDbSpline
210
0.0
220
0.0
230
1.0
 70
     8
 71
     3
 72
    41
 73
    37
 74
     0
 42
0.0000000001
 43
0.0000000001
 40
0.0
 40
0.0
 40
0.0
 40
0.0
 40
1.0
 40
1.0
 40
1.0
 40
2.0
 40
2.0
 40
2.0
 40
3.0
 40
3.0
 40
3.0
 40
4.0
 40
4.0
 40
4.0
 40
5.0
 40
5.0
 40
5.0
 40
6.0
 40
6.0
 40
6.0
 40
7.0
 40
7.0
 40
7.0
 40
8.0
 40
8.0
 40
8.0
 40
9.0
 40
9.0
 40
9.0
 40
10.0
 40
10.0
 40
10.0
 40
11.0
 40
11.0
 40
11.0
 40
12.0
 40
12.0
 40
12.0
 40
12.0
 10
180.6414465264561
 20
142.7479392052574
 30
0.0
 10
171.6046915620334
 20
144.6538798534507
 30
0.0
 10
168.0783252284498
 20
144.9027056729727
 30
0.0
 10
157.7193597416434
 20
151.6355870367573
 30
0.0
 10
157.7193597416434
 20
151.6355870367573
 30
0.0
 10
157.7866234326631
 20
151.5786720889806
 30
0.0
 10
157.7866234326631
 20
151.5786720889806
 30
0.0
 10
156.9700604898661
 20
152.3227983148766
 30
0.0
 10
155.7052350272191
 20
152.2640020220996
 30
0.0
 10
154.9611088013231
 20
151.4474390793026
 30
0.0
 10
154.2273304215099
 20
150.6416949917083
 30
0.0
 10
154.2748386442839
 20
149.3994465662279
 30
0.0
 10
155.0603562545117
 20
148.6520282108709
 30
0.0
 10
155.0603562545117
 20
148.6520282108709
 30
0.0
 10
155.3040088238626
 20
148.4492987082121
 30
0.0
 10
155.3040088238626
 20
148.4492987082121
 30
0.0
 10
165.5745430212029
 20
141.7705096018338
 30
0.0
 10
170.6484282113155
 20
140.7737948664144
 30
0.0
 10
179.6936502375459
 20
138.8626800708896
 30
0.0
 10
179.6936502375459
 20
138.8626800708896
 30
0.0
 10
179.6616650174917
 20
138.8730283655525
 30
0.0
 10
179.6616650174917
 20
138.8730283655525
 30
0.0
 10
179.6715427516145
 20
138.8702063480517
 30
0.0
 10
179.6818909341325
 20
138.8673838819711
 30
0.0
 10
179.6917686682554
 20
138.8645618644703
 30
0.0
 10
180.3719241736804
 20
138.7032246433032
 30
0.0
 10
181.1216944906505
 20
138.911128517584
 30
0.0
 10
181.6254611738166
 20
139.4638137594044
 30
0.0
 10
182.3667648214869
 20
140.2775544604107
 30
0.0
 10
182.3074981924596
 20
141.5466136221789
 30
0.0
 10
181.4904649134124
 20
142.291209960035
 30
0.0
 10
181.2402278608498
 20
142.5193395827385
 30
0.0
 10
180.9467167892873
 20
142.6722099383517
 30
0.0
 10
180.6400353494881
 20
142.7474692054426
 30
0.0
 10
180.5727723874112
 20
142.7644025370329
 30
0.0
 10
180.505509425334
 20
142.7747506845062
 30
0.0
 10
180.4349538852162
 20
142.7879210562466
 30
0.0
  0
SPLINE
  5
B6
330
70
100
AcDbEntity
  8
svg2
 62
   250
420
  1907995
370
    50
100
AcDbSpline
210
0.0
220
0.0
230
1.0
 70
     8
 71
     3
 72
    41
 73
    37
 74
     0
 42
0.0000000001
 43
0.0000000001
 40
0.0
 40
0.0
 40
0.0
 40
0.0
 40
1.0
 40
1.0
 40
1.0
 40
2.0
 40
2.0
 40
2.0
 40
3.0
 40
3.0
 40
3.0
 40
4.0
 40
4.0
 40
4.0
 40
5.0
 40
5.0
 40
5.0
 40
6.0
 40
6.0
 40
6.0
 40
7.0
 40
7.0
 40
7.0
 40
8.0
 40
8.0
 40
8.0
 40
9.0
 40
9.0
 40
9.0
 40
10.0
 40
10.0
 40
10.0
 40
11.0
 40
11.0
 40
11.0
 40
12.0
 40
12.0
 40
12.0
 40
12.0
 10
221.780980038637
 20
151.7710169619869
 30
0.0
 10
213.8176100013657
 20
147.0936541641493
 30
0.0
 10
211.0433662828003
 20
144.9026691136934
 30
0.0
 10
198.8513660795018
 20
142.9026544867727
 30
0.0
 10
198.8513660795018
 20
142.9026544867727
 30
0.0
 10
198.9393254626874
 20
142.9059470648139
 30
0.0
 10
198.9393254626874
 20
142.9059470648139
 30
0.0
 10
197.8348961001269
 20
142.9059470648139
 30
0.0
 10
196.939311284347
 20
142.0108323609942
 30
0.0
 10
196.939311284347
 20
140.9059328864736
 30
0.0
 10
196.939311284347
 20
139.8160850691172
 30
0.0
 10
197.8109078299201
 20
138.9299069783397
 30
0.0
 10
198.8951116122748
 20
138.9063888200933
 30
0.0
 10
198.8951116122748
 20
138.9063888200933
 30
0.0
 10
199.2116710104867
 20
138.9205002533373
 30
0.0
 10
199.2116710104867
 20
138.9205002533373
 30
0.0
 10
211.3020705093157
 20
140.900759860592
 30
0.0
 10
215.7235515467191
 20
143.5814001609705
 30
0.0
 10
223.6967993181129
 20
148.2606443038084
 30
0.0
 10
223.6967993181129
 20
148.2606443038084
 30
0.0
 10
223.6662243217943
 20
148.2470023096542
 30
0.0
 10
223.6662243217943
 20
148.2470023096542
 30
0.0
 10
223.6756317196669
 20
148.2517061207358
 30
0.0
 10
223.6850391175395
 20
148.2564097075268
 30
0.0
 10
223.6944465154121
 20
148.2611135186084
 30
0.0
 10
224.3059280500095
 20
148.5997802906065
 30
0.0
 10
224.7198540049904
 20
149.2582985902777
 30
0.0
 10
224.7198540049904
 20
150.0061875061745
 30
0.0
 10
224.7198540049904
 20
151.106854066589
 30
0.0
 10
223.8214467231293
 20
152.0052614605947
 30
0.0
 10
222.7160762394886
 20
152.0052614605947
 30
0.0
 10
222.3774095796351
 20
152.0052614605947
 30
0.0
 10
222.0575577715998
 20
151.9205947956318
 30
0.0
 10
221.7800392539919
 20
151.7700762894864
 30
0.0
 10
221.7188911117464
 20
151.7371503653915
 30
0.0
 10
221.6624466684378
 20
151.6995207353504
 30
0.0
 10
221.6012985261922
 20
151.6618911088142
 30
0.0
  0
ENDSEC
  0
SECTION
  2
OBJECTS
  0
DICTIONARY
  5
C
330
0
100
AcDbDictionary
281
     1
  3
ACAD_COLOR
350
63
  3
ACAD_DETAILVIEWSTYLE
350
6A
  3
ACAD_GROUP
350
D
  3
ACAD_LAYOUT
350
62
  3
ACAD_MATERIAL
350
10
  3
ACAD_MLEADERSTYLE
350
66
  3
ACAD_MLINESTYLE
350
5F
  3
ACAD_PLOTSETTINGS
350
61
  3
ACAD_PLOTSTYLENAME
350
E
  3
ACAD_SCALELIST
350
42
  3
ACAD_SECTIONVIEWSTYLE
350
68
  3
ACAD_TABLESTYLE
350
64
  3
ACAD_VISUALSTYLE
350
29
  3
ACDB_RECOMPOSE_DATA
350
BF
  3
AcDbVariableDictionary
350
B7
  0
DICTIONARY
  5
63
102
{ACAD_REACTORS
330
C
102
}
330
C
100
AcDbDictionary
281
     1
  0
DICTIONARY
  5
6A
102
{ACAD_REACTORS
330
C
102
}
330
C
100
AcDbDictionary
281
     1
  3
Imperial24
350
6B
  0
DICTIONARY
  5
D
102
{ACAD_REACTORS
330
C
102
}
330
C
100
AcDbDictionary
281
     1
  0
DICTIONARY
  5
62
102
{ACAD_REACTORS
330
C
102
}
330
C
100
AcDbDictionary
281
     1
  3
Layout1
350
6F
  3
Layout2
350
77
  3
Model
350
73
  0
DICTIONARY
  5
10
102
{ACAD_REACTORS
330
C
102
}
330
C
100
AcDbDictionary
281
     1
  3
ByBlock
350
19
  3
ByLayer
350
11
  3
Global
350
21
  0
DICTIONARY
  5
66
102
{ACAD_REACTORS
330
C
102
}
330
C
100
AcDbDictionary
281
     1
  3
Standard
350
67
  0
DICTIONARY
  5
5F
102
{ACAD_REACTORS
330
C
102
}
330
C
100
AcDbDictionary
281
     1
  3
Standard
350
60
  0
DICTIONARY
  5
61
102
{ACAD_REACTORS
330
C
102
}
330
C
100
AcDbDictionary
281
     1
  0
ACDBDICTIONARYWDFLT
  5
E
102
{ACAD_REACTORS
330
C
102
}
330
C
100
AcDbDictionary
281
     1
  3
Normal
350
F
100
AcDbDictionaryWithDefault
340
F
  0
DICTIONARY
  5
42
102
{ACAD_REACTORS
330
C
102
}
330
C
100
AcDbDictionary
281
     1
  3
A0
350
43
  3
A1
350
44
  3
A2
350
45
  3
A3
350
46
  3
A4
350
47
  3
A5
350
48
  3
A6
350
49
  3
A7
350
4A
  3
A8
350
4B
  3
A9
350
4C
  3
B0
350
4D
  3
B1
350
4E
  3
B2
350
4F
  3
B3
350
50
  3
B4
350
51
  3
B5
350
52
  3
B6
350
53
  0
DICTIONARY
  5
68
102
{ACAD_REACTORS
330
C
102
}
330
C
100
AcDbDictionary
281
     1
  3
Imperial24
350
69
  0
DICTIONARY
  5
64
102
{ACAD_REACTORS
330
C
102
}
330
C
100
AcDbDictionary
281
     1
  3
Standard
350
65
  0
DICTIONARY
  5
29
102
{ACAD_REACTORS
330
C
102
}
330
C
100
AcDbDictionary
281
     1
  3
2dWireframe
350
2F
  3
Basic
350
2E
  3
Brighten
350
35
  3
ColorChange
350
39
  3
Conceptual
350
32
  3
Dim
350
34
  3
EdgeColorOff
350
41
  3
Facepattern
350
38
  3
Flat
350
2A
  3
FlatWithEdges
350
2B
  3
Gouraud
350
2C
  3
GouraudWithEdges
350
2D
  3
Hidden
350
31
  3
JitterOff
350
3F
  3
Linepattern
350
37
  3
OverhangOff
350
40
  3
Realistic
350
33
  3
Shaded
350
3E
  3
Shaded with edges
350
3D
  3
Shades of Gray
350
3A
  3
Sketchy
350
3B
  3
Thicken
350
36
  3
Wireframe
350
30
  3
X-Ray
350
3C
  0
XRECORD
  5
BF
102
{ACAD_REACTORS
330
C
102
}
330
C
100
AcDbXrecord
280
     1
 90
        1
330
65
  0
DICTIONARY
  5
B7
102
{ACAD_REACTORS
330
C
102
}
330
C
100
AcDbDictionary
281
     1
  3
CANNOSCALE
350
BC
  3
CMLEADERSTYLE
350
B9
  3
CTABLESTYLE
350
B8
  3
CVIEWDETAILSTYLE
350
BA
  3
CVIEWSECTIONSTYLE
350
BB
  0
ACDBDETAILVIEWSTYLE
  5
6B
102
{ACAD_REACTORS
330
6A
102
}
330
6A
100
AcDbModelDocViewStyle
 70
     0
  3
Imperial24
290
     1
300
Imperial24
 90
        0
100
AcDbDetailViewStyle
 70
     0
 71
     0
 90
        3
 71
     1
340
55
 62
   256
 40
0.24
340
0
 62
   256
 40
0.24
300

 40
0.36
280
     3
 71
     2
340
5D
 90
       25
 62
   256
 71
     3
340
55
 62
   256
 40
0.24
 90
        1
 40
0.75
 90
        1
300
%<\AcVar ViewType \f "%tc1">% %<\AcVar ViewDetailId>%\PSCALE %<\AcVar ViewScale \f "%sn">%
 71
     4
340
5D
 90
       25
 62
   256
340
5D
 90
       25
 62
   256
280
     0
  0
LAYOUT
  5
6F
102
{ACAD_REACTORS
330
62
102
}
330
62
100
AcDbPlotSettings
  1

  2

  4

  6

 40
0.0
 41
0.0
 42
0.0
 43
0.0
 44
0.0
 45
0.0
 46
0.0
 47
0.0
 48
0.0
 49
0.0
140
0.0
141
0.0
142
1.0
143
1.0
 70
   688
 72
     0
 73
     0
 74
     5
  7

 75
    16
147
1.0
 76
     0
 77
     2
 78
   300
148
0.0
149
0.0
100
AcDbLayout
  1
Layout1
 70
     1
 71
     1
 10
0.0
 20
0.0
 11
12.0
 21
9.0
 12
0.0
 22
0.0
 32
0.0
 14
0.0
 24
0.0
 34
0.0
 15
0.0
 25
0.0
 35
0.0
146
0.0
 13
0.0
 23
0.0
 33
0.0
 16
1.0
 26
0.0
 36
0.0
 17
0.0
 27
1.0
 37
0.0
 76
     0
330
6C
  0
LAYOUT
  5
77
102
{ACAD_REACTORS
330
62
102
}
330
62
100
AcDbPlotSettings
  1

  2

  4

  6

 40
0.0
 41
0.0
 42
0.0
 43
0.0
 44
0.0
 45
0.0
 46
0.0
 47
0.0
 48
0.0
 49
0.0
140
0.0
141
0.0
142
1.0
143
1.0
 70
   688
 72
     0
 73
     0
 74
     5
  7

 75
    16
147
1.0
 76
     0
 77
     2
 78
   300
148
0.0
149
0.0
100
AcDbLayout
  1
Layout2
 70
     1
 71
     2
 10
0.0
 20
0.0
 11
12.0
 21
9.0
 12
0.0
 22
0.0
 32
0.0
 14
0.0
 24
0.0
 34
0.0
 15
0.0
 25
0.0
 35
0.0
146
0.0
 13
0.0
 23
0.0
 33
0.0
 16
1.0
 26
0.0
 36
0.0
 17
0.0
 27
1.0
 37
0.0
 76
     0
330
74
  0
LAYOUT
  5
73
102
{ACAD_REACTORS
330
62
102
}
330
62
100
AcDbPlotSettings
  1

  2

  4

  6

 40
0.0
 41
0.0
 42
0.0
 43
0.0
 44
0.0
 45
0.0
 46
0.0
 47
0.0
 48
0.0
 49
0.0
140
0.0
141
0.0
142
1.0
143
1.0
 70
  1712
 72
     0
 73
     0
 74
     0
  7

 75
     0
147
1.0
 76
     0
 77
     2
 78
   300
148
0.0
149
0.0
100
AcDbLayout
  1
Model
 70
     1
 71
     0
 10
0.0
 20
0.0
 11
12.0
 21
9.0
 12
0.0
 22
0.0
 32
0.0
 14
0.0
 24
0.0
 34
0.0
 15
0.0
 25
0.0
 35
0.0
146
0.0
 13
0.0
 23
0.0
 33
0.0
 16
1.0
 26
0.0
 36
0.0
 17
0.0
 27
1.0
 37
0.0
 76
     0
330
70
  0
MATERIAL
  5
19
102
{ACAD_XDICTIONARY
360
1A
102
}
102
{ACAD_REACTORS
330
10
102
}
330
10
100
AcDbMaterial
  1
ByBlock
 72
     0
 43
0.0208333333333333
 43
0.0
 43
0.0
 43
0.0
 43
0.0
 43
0.0208333333333333
 43
0.0
 43
0.0
 43
0.0
 43
0.0
 43
1.0
 43
0.0
 43
0.0
 43
0.0
 43
0.0
 43
1.0
 77
     0
 47
0.0208333333333333
 47
0.0
 47
0.0
 47
0.0
 47
0.0
 47
0.0208333333333333
 47
0.0
 47
0.0
 47
0.0
 47
0.0
 47
1.0
 47
0.0
 47
0.0
 47
0.0
 47
0.0
 47
1.0
171
     0
 49
0.0208333333333333
 49
0.0
 49
0.0
 49
0.0
 49
0.0
 49
0.0208333333333333
 49
0.0
 49
0.0
 49
0.0
 49
0.0
 49
1.0
 49
0.0
 49
0.0
 49
0.0
 49
0.0
 49
1.0
175
     0
142
0.0208333333333333
142
0.0
142
0.0
142
0.0
142
0.0
142
0.0208333333333333
142
0.0
142
0.0
142
0.0
142
0.0
142
1.0
142
0.0
142
0.0
142
0.0
142
0.0
142
1.0
179
     0
144
0.0208333333333333
144
0.0
144
0.0
144
0.0
144
0.0
144
0.0208333333333333
144
0.0
144
0.0
144
0.0
144
0.0
144
1.0
144
0.0
144
0.0
144
0.0
144
0.0
144
1.0
147
0.0208333333333333
147
0.0
147
0.0
147
0.0
147
0.0
147
0.0208333333333333
147
0.0
147
0.0
147
0.0
147
0.0
147
1.0
147
0.0
147
0.0
147
0.0
147
0.0
147
1.0
  0
MATERIAL
  5
11
102
{ACAD_XDICTIONARY
360
12
102
}
102
{ACAD_REACTORS
330
10
102
}
330
10
100
AcDbMaterial
  1
ByLayer
 72
     0
 43
0.0208333333333333
 43
0.0
 43
0.0
 43
0.0
 43
0.0
 43
0.0208333333333333
 43
0.0
 43
0.0
 43
0.0
 43
0.0
 43
1.0
 43
0.0
 43
0.0
 43
0.0
 43
0.0
 43
1.0
 77
     0
 47
0.0208333333333333
 47
0.0
 47
0.0
 47
0.0
 47
0.0
 47
0.0208333333333333
 47
0.0
 47
0.0
 47
0.0
 47
0.0
 47
1.0
 47
0.0
 47
0.0
 47
0.0
 47
0.0
 47
1.0
171
     0
 49
0.0208333333333333
 49
0.0
 49
0.0
 49
0.0
 49
0.0
 49
0.0208333333333333
 49
0.0
 49
0.0
 49
0.0
 49
0.0
 49
1.0
 49
0.0
 49
0.0
 49
0.0
 49
0.0
 49
1.0
175
     0
142
0.0208333333333333
142
0.0
142
0.0
142
0.0
142
0.0
142
0.0208333333333333
142
0.0
142
0.0
142
0.0
142
0.0
142
1.0
142
0.0
142
0.0
142
0.0
142
0.0
142
1.0
179
     0
144
0.0208333333333333
144
0.0
144
0.0
144
0.0
144
0.0
144
0.0208333333333333
144
0.0
144
0.0
144
0.0
144
0.0
144
1.0
144
0.0
144
0.0
144
0.0
144
0.0
144
1.0
147
0.0208333333333333
147
0.0
147
0.0
147
0.0
147
0.0
147
0.0208333333333333
147
0.0
147
0.0
147
0.0
147
0.0
147
1.0
147
0.0
147
0.0
147
0.0
147
0.0
147
1.0
  0
MATERIAL
  5
21
102
{ACAD_XDICTIONARY
360
22
102
}
102
{ACAD_REACTORS
330
10
102
}
330
10
100
AcDbMaterial
  1
Global
 72
     0
 43
0.0208333333333333
 43
0.0
 43
0.0
 43
0.0
 43
0.0
 43
0.0208333333333333
 43
0.0
 43
0.0
 43
0.0
 43
0.0
 43
1.0
 43
0.0
 43
0.0
 43
0.0
 43
0.0
 43
1.0
 77
     0
 47
0.0208333333333333
 47
0.0
 47
0.0
 47
0.0
 47
0.0
 47
0.0208333333333333
 47
0.0
 47
0.0
 47
0.0
 47
0.0
 47
1.0
 47
0.0
 47
0.0
 47
0.0
 47
0.0
 47
1.0
171
     0
 49
0.0208333333333333
 49
0.0
 49
0.0
 49
0.0
 49
0.0
 49
0.0208333333333333
 49
0.0
 49
0.0
 49
0.0
 49
0.0
 49
1.0
 49
0.0
 49
0.0
 49
0.0
 49
0.0
 49
1.0
175
     0
142
0.0208333333333333
142
0.0
142
0.0
142
0.0
142
0.0
142
0.0208333333333333
142
0.0
142
0.0
142
0.0
142
0.0
142
1.0
142
0.0
142
0.0
142
0.0
142
0.0
142
1.0
179
     0
144
0.0208333333333333
144
0.0
144
0.0
144
0.0
144
0.0
144
0.0208333333333333
144
0.0
144
0.0
144
0.0
144
0.0
144
1.0
144
0.0
144
0.0
144
0.0
144
0.0
144
1.0
147
0.0208333333333333
147
0.0
147
0.0
147
0.0
147
0.0
147
0.0208333333333333
147
0.0
147
0.0
147
0.0
147
0.0
147
1.0
147
0.0
147
0.0
147
0.0
147
0.0
147
1.0
  0
MLEADERSTYLE
  5
67
102
{ACAD_REACTORS
330
66
102
}
330
66
100
AcDbMLeaderStyle
179
     2
170
     2
171
     1
172
     0
 90
        2
 40
0.0
 41
0.0
173
     1
 91
-1056964608
340
5B
 92
       -2
290
     1
 42
0.09
291
     1
 43
0.36
  3
Standard
 44
0.18
300

342
55
174
     1
178
     6
175
     1
176
     0
 93
-1056964608
 45
0.18
292
     0
297
     0
 46
0.18
 94
-1056964608
 47
1.0
 49
1.0
140
1.0
293
     1
141
0.0
294
     1
177
     0
142
1.0
295
     1
296
     0
143
0.125
271
     0
272
     9
273
     9
298
     1
  0
MLINESTYLE
  5
60
102
{ACAD_REACTORS
330
5F
102
}
330
5F
100
AcDbMlineStyle
  2
STANDARD
 70
     0
  3

 62
   256
 51
90.0
 52
90.0
 71
     2
 49
0.5
 62
   256
  6
BYLAYER
 49
-0.5
 62
   256
  6
BYLAYER
  0
ACDBPLACEHOLDER
  5
F
102
{ACAD_REACTORS
330
E
102
}
330
E
  0
SCALE
  5
43
102
{ACAD_REACTORS
330
42
102
}
330
42
100
AcDbScale
 70
     0
300
1:1
140
1.0
141
1.0
290
     1
  0
SCALE
  5
44
102
{ACAD_REACTORS
330
42
102
}
330
42
100
AcDbScale
 70
     0
300
1/128" = 1'-0"
140
0.0078125
141
12.0
290
     0
  0
SCALE
  5
45
102
{ACAD_REACTORS
330
42
102
}
330
42
100
AcDbScale
 70
     0
300
1/64" = 1'-0"
140
0.015625
141
12.0
290
     0
  0
SCALE
  5
46
102
{ACAD_REACTORS
330
42
102
}
330
42
100
AcDbScale
 70
     0
300
1/32" = 1'-0"
140
0.03125
141
12.0
290
     0
  0
SCALE
  5
47
102
{ACAD_REACTORS
330
42
102
}
330
42
100
AcDbScale
 70
     0
300
1/16" = 1'-0"
140
0.0625
141
12.0
290
     0
  0
SCALE
  5
48
102
{ACAD_REACTORS
330
42
102
}
330
42
100
AcDbScale
 70
     0
300
3/32" = 1'-0"
140
0.09375
141
12.0
290
     0
  0
SCALE
  5
49
102
{ACAD_REACTORS
330
42
102
}
330
42
100
AcDbScale
 70
     0
300
1/8" = 1'-0"
140
0.125
141
12.0
290
     0
  0
SCALE
  5
4A
102
{ACAD_REACTORS
330
42
102
}
330
42
100
AcDbScale
 70
     0
300
3/16" = 1'-0"
140
0.1875
141
12.0
290
     0
  0
SCALE
  5
4B
102
{ACAD_REACTORS
330
42
102
}
330
42
100
AcDbScale
 70
     0
300
1/4" = 1'-0"
140
0.25
141
12.0
290
     0
  0
SCALE
  5
4C
102
{ACAD_REACTORS
330
42
102
}
330
42
100
AcDbScale
 70
     0
300
3/8" = 1'-0"
140
0.375
141
12.0
290
     0
  0
SCALE
  5
4D
102
{ACAD_REACTORS
330
42
102
}
330
42
100
AcDbScale
 70
     0
300
1/2" = 1'-0"
140
0.5
141
12.0
290
     0
  0
SCALE
  5
4E
102
{ACAD_REACTORS
330
42
102
}
330
42
100
AcDbScale
 70
     0
300
3/4" = 1'-0"
140
0.75
141
12.0
290
     0
  0
SCALE
  5
4F
102
{ACAD_REACTORS
330
42
102
}
330
42
100
AcDbScale
 70
     0
300
1" = 1'-0"
140
1.0
141
12.0
290
     0
  0
SCALE
  5
50
102
{ACAD_REACTORS
330
42
102
}
330
42
100
AcDbScale
 70
     0
300
1-1/2" = 1'-0"
140
1.5
141
12.0
290
     0
  0
SCALE
  5
51
102
{ACAD_REACTORS
330
42
102
}
330
42
100
AcDbScale
 70
     0
300
3" = 1'-0"
140
3.0
141
12.0
290
     0
  0
SCALE
  5
52
102
{ACAD_REACTORS
330
42
102
}
330
42
100
AcDbScale
 70
     0
300
6" = 1'-0"
140
6.0
141
12.0
290
     0
  0
SCALE
  5
53
102
{ACAD_REACTORS
330
42
102
}
330
42
100
AcDbScale
 70
     0
300
1'-0" = 1'-0"
140
12.0
141
12.0
290
     0
  0
ACDBSECTIONVIEWSTYLE
  5
69
102
{ACAD_REACTORS
330
68
102
}
330
68
100
AcDbModelDocViewStyle
 70
     0
  3
Imperial24
290
     1
300
Imperial24
 90
        0
100
AcDbSectionViewStyle
 70
     0
 71
     0
 90
       78
 71
     1
340
55
 62
   256
 40
0.24
340
0
340
0
 62
   256
 40
0.24
300
I, O, Q, S, X, Z
 40
0.48
 90
        3
 40
0.18
 90
        1
 71
     2
340
5D
 90
       25
 62
   256
340
5D
 90
       50
 62
   256
 40
0.24
 40
0.0
 40
0.24
 71
     3
340
55
 62
   256
 40
0.24
 90
        1
 40
0.75
 90
        1
300
%<\AcVar ViewType \f "%tc1">% %<\AcVar ViewSectionStartId>%-%<\AcVar ViewSectionEndId>%\PSCALE %<\AcVar ViewScale \f "%sn">%
 71
     4
 62
   256
 62
   257
300
ANSI31
 40
1.0
 90
        0
290
     0
290
     0
 90
        6
 40
0.0
 40
1.570796326794896
 40
0.2617993877991494
 40
1.308996938995747
 40
-0.2617993877991494
 40
1.832595714594046
  0
TABLESTYLE
  5
65
102
{ACAD_XDICTIONARY
360
BD
102
}
102
{ACAD_REACTORS
330
64
102
}
330
64
100
AcDbTableStyle
280
     0
  3
Standard
 70
     0
 71
     0
 40
0.06
 41
0.06
280
     0
281
     0
  7
Standard
140
0.18
170
     2
 62
     0
 63
     7
283
     0
 90
      512
 91
        0
  1

274
    -2
284
     1
 64
     0
275
    -2
285
     1
 65
     0
276
    -2
286
     1
 66
     0
277
    -2
287
     1
 67
     0
278
    -2
288
     1
 68
     0
279
    -2
289
     1
 69
     0
  7
Standard
140
0.25
170
     5
 62
     0
 63
     7
283
     0
 90
      512
 91
        0
  1

274
    -2
284
     1
 64
     0
275
    -2
285
     1
 65
     0
276
    -2
286
     1
 66
     0
277
    -2
287
     1
 67
     0
278
    -2
288
     1
 68
     0
279
    -2
289
     1
 69
     0
  7
Standard
140
0.18
170
     5
 62
     0
 63
     7
283
     0
 90
      512
 91
        0
  1

274
    -2
284
     1
 64
     0
275
    -2
285
     1
 65
     0
276
    -2
286
     1
 66
     0
277
    -2
287
     1
 67
     0
278
    -2
288
     1
 68
     0
279
    -2
289
     1
 69
     0
  0
VISUALSTYLE
  5
2F
102
{ACAD_REACTORS
330
29
102
}
330
29
100
AcDbVisualStyle
  2
2dWireframe
 70
     4
177
     3
291
     0
 70
    58
 90
        0
176
     1
 90
        2
176
     1
 90
        0
176
     1
 90
        0
176
     1
 40
0.6
176
     1
 40
30.0
176
     1
 62
     7
420
 16777215
176
     1
 90
        1
176
     1
 90
        4
176
     1
 62
     7
176
     1
 62
   257
176
     1
 90
        1
176
     1
 90
        1
176
     1
 40
1.0
176
     1
 90
        0
176
     1
 62
   257
176
     1
 40
1.0
176
     1
 90
        1
176
     1
 90
        6
176
     1
 90
        2
176
     1
 62
     7
176
     1
 90
        5
176
     1
 90
        0
176
     1
 90
        0
176
     1
290
     0
176
     1
 90
        1
176
     1
 40
0.0
176
     1
 90
        0
176
     1
290
     1
176
     1
290
     1
176
     1
290
     0
176
     1
290
     0
176
     1
290
     0
176
     1
290
     0
176
     1
290
     0
176
     1
290
     0
176
     1
290
     0
176
     1
 90
       50
176
     1
 40
0.0
176
     1
 40
1.0
176
     1
 90
        0
176
     1
 62
    18
420
        0
176
     1
 90
       50
176
     1
 90
        3
176
     1
 62
     5
420
      255
176
     1
290
     0
176
     1
 90
       50
176
     1
 90
       50
176
     1
 90
       50
176
     1
290
     0
176
     1
 90
       50
176
     1
 62
   256
176
     0
 40
1.0
176
     0
 90
        2
176
     1
  1
strokes_ogs.tif
176
     1
290
     0
176
     1
 40
1.0
176
     1
 40
1.0
176
     1
  0
VISUALSTYLE
  5
2E
102
{ACAD_REACTORS
330
29
102
}
330
29
100
AcDbVisualStyle
  2
Basic
 70
     7
177
     3
291
     1
 70
    58
 90
        1
176
     1
 90
        0
176
     1
 90
        1
176
     1
 90
        0
176
     1
 40
0.6
176
     1
 40
30.0
176
     1
 62
     7
420
 16777215
176
     1
 90
        0
176
     1
 90
        4
176
     1
 62
     7
176
     1
 62
   257
176
     1
 90
        1
176
     1
 90
        1
176
     1
 40
1.0
176
     1
 90
        8
176
     1
 62
     7
176
     1
 40
1.0
176
     1
 90
        1
176
     1
 90
        6
176
     1
 90
        2
176
     1
 62
     7
176
     1
 90
        5
176
     1
 90
        0
176
     1
 90
        0
176
     1
290
     0
176
     1
 90
        1
176
     1
 40
0.0
176
     1
 90
        0
176
     1
290
     0
176
     1
290
     1
176
     1
290
     1
176
     1
290
     0
176
     1
290
     0
176
     1
290
     0
176
     1
290
     0
176
     1
290
     0
176
     1
290
     0
176
     1
 90
       50
176
     1
 40
0.0
176
     1
 40
1.0
176
     1
 90
        0
176
     1
 62
    18
420
        0
176
     1
 90
       50
176
     1
 90
        3
176
     1
 62
     5
420
      255
176
     1
290
     0
176
     1
 90
       50
176
     1
 90
       50
176
     1
 90
       50
176
     1
290
     0
176
     1
 90
       50
176
     1
 62
   256
176
     0
 40
1.0
176
     0
 90
        2
176
     1
  1
strokes_ogs.tif
176
     1
290
     0
176
     1
 40
1.0
176
     1
 40
1.0
176
     1
  0
VISUALSTYLE
  5
35
102
{ACAD_REACTORS
330
29
102
}
330
29
100
AcDbVisualStyle
  2
Brighten
 70
    12
177
     3
291
     1
 70
    58
 90
        2
176
     1
 90
        2
176
     1
 90
        0
176
     1
 90
        0
176
     1
 40
0.6
176
     1
 40
30.0
176
     1
 62
     7
420
 16777215
176
     1
 90
        1
176
     1
 90
        4
176
     1
 62
     7
176
     1
 62
   257
176
     1
 90
        1
176
     1
 90
        1
176
     1
 40
1.0
176
     1
 90
        8
176
     1
 62
     7
176
     1
 40
1.0
176
     1
 90
        1
176
     1
 90
        6
176
     1
 90
        2
176
     1
 62
     7
176
     1
 90
        5
176
     1
 90
        0
176
     1
 90
        0
176
     1
290
     0
176
     1
 90
        1
176
     1
 40
50.0
176
     1
 90
        0
176
     1
290
     0
176
     1
290
     1
176
     1
290
     1
176
     1
290
     0
176
     1
290
     0
176
     1
290
     0
176
     1
290
     0
176
     1
290
     0
176
     1
290
     0
176
     1
 90
       50
176
     1
 40
0.0
176
     1
 40
1.0
176
     1
 90
        0
176
     1
 62
    18
420
        0
176
     1
 90
       50
176
     1
 90
        3
176
     1
 62
     5
420
      255
176
     1
290
     0
176
     1
 90
       50
176
     1
 90
       50
176
     1
 90
       50
176
     1
290
     0
176
     1
 90
       50
176
     1
 62
   256
176
     0
 40
1.0
176
     0
 90
        2
176
     1
  1
strokes_ogs.tif
176
     1
290
     0
176
     1
 40
1.0
176
     1
 40
1.0
176
     1
  0
VISUALSTYLE
  5
39
102
{ACAD_REACTORS
330
29
102
}
330
29
100
AcDbVisualStyle
  2
ColorChange
 70
    16
177
     3
291
     1
 70
    58
 90
        2
176
     1
 90
        2
176
     1
 90
        3
176
     1
 90
        0
176
     1
 40
0.6
176
     1
 40
30.0
176
     1
 62
     8
420
  8421504
176
     1
 90
        1
176
     1
 90
        4
176
     1
 62
     7
176
     1
 62
   257
176
     1
 90
        1
176
     1
 90
        1
176
     1
 40
1.0
176
     1
 90
        8
176
     1
 62
     8
420
  8421504
176
     1
 40
1.0
176
     1
 90
        1
176
     1
 90
        6
176
     1
 90
        2
176
     1
 62
     7
176
     1
 90
        5
176
     1
 90
        0
176
     1
 90
        0
176
     1
290
     0
176
     1
 90
        1
176
     1
 40
0.0
176
     1
 90
        0
176
     1
290
     0
176
     1
290
     1
176
     1
290
     1
176
     1
290
     0
176
     1
290
     0
176
     1
290
     0
176
     1
290
     0
176
     1
290
     0
176
     1
290
     0
176
     1
 90
       50
176
     1
 40
0.0
176
     1
 40
1.0
176
     1
 90
        0
176
     1
 62
    18
420
        0
176
     1
 90
       50
176
     1
 90
        3
176
     1
 62
     5
420
      255
176
     1
290
     0
176
     1
 90
       50
176
     1
 90
       50
176
     1
 90
       50
176
     1
290
     0
176
     1
 90
       50
176
     1
 62
   256
176
     0
 40
1.0
176
     0
 90
        2
176
     1
  1
strokes_ogs.tif
176
     1
290
     0
176
     1
 40
1.0
176
     1
 40
1.0
176
     1
  0
VISUALSTYLE
  5
32
102
{ACAD_REACTORS
330
29
102
}
330
29
100
AcDbVisualStyle
  2
Conceptual
 70
     9
177
     3
291
     0
 70
    58
 90
        3
176
     1
 90
        2
176
     1
 90
        0
176
     1
 90
        0
176
     1
 40
0.6
176
     1
 40
30.0
176
     1
 62
     7
420
 16777215
176
     1
 90
        2
176
     1
 90
        2
176
     1
 62
     7
176
     1
 62
   257
176
     1
 90
        1
176
     1
 90
        1
176
     1
 40
179.0
176
     1
 90
        8
176
     1
 62
     7
176
     1
 40
1.0
176
     1
 90
        1
176
     1
 90
        6
176
     1
 90
        2
176
     1
 62
     7
176
     1
 90
        3
176
     1
 90
        0
176
     1
 90
        0
176
     1
290
     0
176
     1
 90
        1
176
     1
 40
0.0
176
     1
 90
        0
176
     1
290
     0
176
     1
290
     1
176
     1
290
     1
176
     1
290
     0
176
     1
290
     0
176
     1
290
     0
176
     1
290
     0
176
     1
290
     0
176
     1
290
     0
176
     1
 90
       50
176
     1
 40
0.0
176
     1
 40
1.0
176
     1
 90
        0
176
     1
 62
    18
420
        0
176
     1
 90
       50
176
     1
 90
        3
176
     1
 62
     5
420
      255
176
     1
290
     0
176
     1
 90
       50
176
     1
 90
       50
176
     1
 90
       50
176
     1
290
     0
176
     1
 90
       50
176
     1
 62
   256
176
     0
 40
1.0
176
     0
 90
        2
176
     1
  1
strokes_ogs.tif
176
     1
290
     0
176
     1
 40
1.0
176
     1
 40
1.0
176
     1
  0
VISUALSTYLE
  5
34
102
{ACAD_REACTORS
330
29
102
}
330
29
100
AcDbVisualStyle
  2
Dim
 70
    11
177
     3
291
     1
 70
    58
 90
        2
176
     1
 90
        2
176
     1
 90
        0
176
     1
 90
        0
176
     1
 40
0.6
176
     1
 40
30.0
176
     1
 62
     7
420
 16777215
176
     1
 90
        1
176
     1
 90
        4
176
     1
 62
     7
176
     1
 62
   257
176
     1
 90
        1
176
     1
 90
        1
176
     1
 40
1.0
176
     1
 90
        8
176
     1
 62
     7
176
     1
 40
1.0
176
     1
 90
        1
176
     1
 90
        6
176
     1
 90
        2
176
     1
 62
     7
176
     1
 90
        5
176
     1
 90
        0
176
     1
 90
        0
176
     1
290
     0
176
     1
 90
        1
176
     1
 40
-50.0
176
     1
 90
        0
176
     1
290
     0
176
     1
290
     1
176
     1
290
     1
176
     1
290
     0
176
     1
290
     0
176
     1
290
     0
176
     1
290
     0
176
     1
290
     0
176
     1
290
     0
176
     1
 90
       50
176
     1
 40
0.0
176
     1
 40
1.0
176
     1
 90
        0
176
     1
 62
    18
420
        0
176
     1
 90
       50
176
     1
 90
        3
176
     1
 62
     5
420
      255
176
     1
290
     0
176
     1
 90
       50
176
     1
 90
       50
176
     1
 90
       50
176
     1
290
     0
176
     1
 90
       50
176
     1
 62
   256
176
     0
 40
1.0
176
     0
 90
        2
176
     1
  1
strokes_ogs.tif
176
     1
290
     0
176
     1
 40
1.0
176
     1
 40
1.0
176
     1
  0
VISUALSTYLE
  5
41
102
{ACAD_REACTORS
330
29
102
}
330
29
100
AcDbVisualStyle
  2
EdgeColorOff
 70
    22
177
     3
291
     1
 70
    58
 90
        2
176
     0
 90
        2
176
     0
 90
        0
176
     0
 90
        0
176
     0
 40
0.6
176
     0
 40
30.0
176
     0
 62
     7
420
 16777215
176
     0
 90
        1
176
     0
 90
        4
176
     0
 62
     7
176
     0
 62
   257
176
     0
 90
        1
176
     0
 90
        1
176
     0
 40
1.0
176
     0
 90
        8
176
     2
 62
     7
176
     0
 40
1.0
176
     0
 90
        1
176
     0
 90
        6
176
     0
 90
        2
176
     0
 62
     7
176
     0
 90
        5
176
     0
 90
        0
176
     0
 90
        0
176
     0
290
     0
176
     0
 90
        1
176
     0
 40
0.0
176
     0
 90
        0
176
     0
290
     0
176
     0
290
     1
176
     0
290
     1
176
     0
290
     0
176
     0
290
     0
176
     0
290
     0
176
     0
290
     0
176
     0
290
     0
176
     0
290
     0
176
     0
 90
       50
176
     0
 40
0.0
176
     0
 40
1.0
176
     0
 90
        0
176
     0
 62
    18
420
        0
176
     0
 90
       50
176
     0
 90
        3
176
     0
 62
     5
420
      255
176
     0
290
     0
176
     0
 90
       50
176
     0
 90
       50
176
     0
 90
       50
176
     0
290
     0
176
     0
 90
       50
176
     0
 62
   256
176
     0
 40
1.0
176
     0
 90
        2
176
     0
  1
strokes_ogs.tif
176
     0
290
     0
176
     0
 40
1.0
176
     0
 40
1.0
176
     0
  0
VISUALSTYLE
  5
38
102
{ACAD_REACTORS
330
29
102
}
330
29
100
AcDbVisualStyle
  2
Facepattern
 70
    15
177
     3
291
     1
 70
    58
 90
        2
176
     1
 90
        2
176
     1
 90
        0
176
     1
 90
        0
176
     1
 40
0.6
176
     1
 40
30.0
176
     1
 62
     7
420
 16777215
176
     1
 90
        1
176
     1
 90
        4
176
     1
 62
     7
176
     1
 62
   257
176
     1
 90
        1
176
     1
 90
        1
176
     1
 40
1.0
176
     1
 90
        8
176
     1
 62
     7
176
     1
 40
1.0
176
     1
 90
        1
176
     1
 90
        6
176
     1
 90
        2
176
     1
 62
     7
176
     1
 90
        5
176
     1
 90
        0
176
     1
 90
        0
176
     1
290
     0
176
     1
 90
        1
176
     1
 40
0.0
176
     1
 90
        0
176
     1
290
     0
176
     1
290
     1
176
     1
290
     1
176
     1
290
     0
176
     1
290
     0
176
     1
290
     0
176
     1
290
     0
176
     1
290
     0
176
     1
290
     0
176
     1
 90
       50
176
     1
 40
0.0
176
     1
 40
1.0
176
     1
 90
        0
176
     1
 62
    18
420
        0
176
     1
 90
       50
176
     1
 90
        3
176
     1
 62
     5
420
      255
176
     1
290
     0
176
     1
 90
       50
176
     1
 90
       50
176
     1
 90
       50
176
     1
290
     0
176
     1
 90
       50
176
     1
 62
   256
176
     0
 40
1.0
176
     0
 90
        2
176
     1
  1
strokes_ogs.tif
176
     1
290
     0
176
     1
 40
1.0
176
     1
 40
1.0
176
     1
  0
VISUALSTYLE
  5
2A
102
{ACAD_REACTORS
330
29
102
}
330
29
100
AcDbVisualStyle
  2
Flat
 70
     0
177
     3
291
     1
 70
    58
 90
        2
176
     1
 90
        1
176
     1
 90
        1
176
     1
 90
        2
176
     1
 40
0.6
176
     1
 40
30.0
176
     1
 62
     7
420
 16777215
176
     1
 90
        0
176
     1
 90
        0
176
     1
 62
     7
176
     1
 62
   257
176
     1
 90
        1
176
     1
 90
        1
176
     1
 40
1.0
176
     1
 90
        8
176
     1
 62
     7
176
     1
 40
1.0
176
     1
 90
        1
176
     1
 90
        6
176
     1
 90
        2
176
     1
 62
     7
176
     1
 90
        5
176
     1
 90
        0
176
     1
 90
        0
176
     1
290
     0
176
     1
 90
       13
176
     1
 40
0.0
176
     1
 90
        0
176
     1
290
     0
176
     1
290
     1
176
     1
290
     1
176
     1
290
     0
176
     1
290
     0
176
     1
290
     0
176
     1
290
     0
176
     1
290
     0
176
     1
290
     0
176
     1
 90
       50
176
     1
 40
0.0
176
     1
 40
1.0
176
     1
 90
        0
176
     1
 62
    18
420
        0
176
     1
 90
       50
176
     1
 90
        3
176
     1
 62
     5
420
      255
176
     1
290
     0
176
     1
 90
       50
176
     1
 90
       50
176
     1
 90
       50
176
     1
290
     0
176
     1
 90
       50
176
     1
 62
   256
176
     0
 40
1.0
176
     0
 90
        2
176
     1
  1
strokes_ogs.tif
176
     1
290
     0
176
     1
 40
1.0
176
     1
 40
1.0
176
     1
  0
VISUALSTYLE
  5
2B
102
{ACAD_REACTORS
330
29
102
}
330
29
100
AcDbVisualStyle
  2
FlatWithEdges
 70
     1
177
     3
291
     1
 70
    58
 90
        2
176
     1
 90
        1
176
     1
 90
        1
176
     1
 90
        2
176
     1
 40
0.6
176
     1
 40
30.0
176
     1
 62
     7
420
 16777215
176
     1
 90
        1
176
     1
 90
        0
176
     1
 62
     7
176
     1
 62
   257
176
     1
 90
        1
176
     1
 90
        1
176
     1
 40
1.0
176
     1
 90
        0
176
     1
 62
   257
176
     1
 40
1.0
176
     1
 90
        1
176
     1
 90
        6
176
     1
 90
        2
176
     1
 62
     7
176
     1
 90
        5
176
     1
 90
        0
176
     1
 90
        0
176
     1
290
     0
176
     1
 90
       13
176
     1
 40
0.0
176
     1
 90
        0
176
     1
290
     0
176
     1
290
     1
176
     1
290
     1
176
     1
290
     0
176
     1
290
     0
176
     1
290
     0
176
     1
290
     0
176
     1
290
     0
176
     1
290
     0
176
     1
 90
       50
176
     1
 40
0.0
176
     1
 40
1.0
176
     1
 90
        0
176
     1
 62
    18
420
        0
176
     1
 90
       50
176
     1
 90
        3
176
     1
 62
     5
420
      255
176
     1
290
     0
176
     1
 90
       50
176
     1
 90
       50
176
     1
 90
       50
176
     1
290
     0
176
     1
 90
       50
176
     1
 62
   256
176
     0
 40
1.0
176
     0
 90
        2
176
     1
  1
strokes_ogs.tif
176
     1
290
     0
176
     1
 40
1.0
176
     1
 40
1.0
176
     1
  0
VISUALSTYLE
  5
2C
102
{ACAD_REACTORS
330
29
102
}
330
29
100
AcDbVisualStyle
  2
Gouraud
 70
     2
177
     3
291
     1
 70
    58
 90
        2
176
     1
 90
        2
176
     1
 90
        1
176
     1
 90
        2
176
     1
 40
0.6
176
     1
 40
30.0
176
     1
 62
     7
420
 16777215
176
     1
 90
        0
176
     1
 90
        0
176
     1
 62
     7
176
     1
 62
   257
176
     1
 90
        1
176
     1
 90
        1
176
     1
 40
1.0
176
     1
 90
        0
176
     1
 62
     7
176
     1
 40
1.0
176
     1
 90
        1
176
     1
 90
        6
176
     1
 90
        2
176
     1
 62
     7
176
     1
 90
        5
176
     1
 90
        0
176
     1
 90
        0
176
     1
290
     0
176
     1
 90
       13
176
     1
 40
0.0
176
     1
 90
        0
176
     1
290
     0
176
     1
290
     1
176
     1
290
     1
176
     1
290
     0
176
     1
290
     0
176
     1
290
     0
176
     1
290
     0
176
     1
290
     0
176
     1
290
     0
176
     1
 90
       50
176
     1
 40
0.0
176
     1
 40
1.0
176
     1
 90
        0
176
     1
 62
    18
420
        0
176
     1
 90
       50
176
     1
 90
        3
176
     1
 62
     5
420
      255
176
     1
290
     0
176
     1
 90
       50
176
     1
 90
       50
176
     1
 90
       50
176
     1
290
     0
176
     1
 90
       50
176
     1
 62
   256
176
     0
 40
1.0
176
     0
 90
        2
176
     1
  1
strokes_ogs.tif
176
     1
290
     0
176
     1
 40
1.0
176
     1
 40
1.0
176
     1
  0
VISUALSTYLE
  5
2D
102
{ACAD_REACTORS
330
29
102
}
330
29
100
AcDbVisualStyle
  2
GouraudWithEdges
 70
     3
177
     3
291
     1
 70
    58
 90
        2
176
     1
 90
        2
176
     1
 90
        1
176
     1
 90
        2
176
     1
 40
0.6
176
     1
 40
30.0
176
     1
 62
     7
420
 16777215
176
     1
 90
        1
176
     1
 90
        0
176
     1
 62
     7
176
     1
 62
   257
176
     1
 90
        1
176
     1
 90
        1
176
     1
 40
1.0
176
     1
 90
        0
176
     1
 62
   257
176
     1
 40
1.0
176
     1
 90
        1
176
     1
 90
        6
176
     1
 90
        2
176
     1
 62
     7
176
     1
 90
        5
176
     1
 90
        0
176
     1
 90
        0
176
     1
290
     0
176
     1
 90
       13
176
     1
 40
0.0
176
     1
 90
        0
176
     1
290
     0
176
     1
290
     1
176
     1
290
     1
176
     1
290
     0
176
     1
290
     0
176
     1
290
     0
176
     1
290
     0
176
     1
290
     0
176
     1
290
     0
176
     1
 90
       50
176
     1
 40
0.0
176
     1
 40
1.0
176
     1
 90
        0
176
     1
 62
    18
420
        0
176
     1
 90
       50
176
     1
 90
        3
176
     1
 62
     5
420
      255
176
     1
290
     0
176
     1
 90
       50
176
     1
 90
       50
176
     1
 90
       50
176
     1
290
     0
176
     1
 90
       50
176
     1
 62
   256
176
     0
 40
1.0
176
     0
 90
        2
176
     1
  1
strokes_ogs.tif
176
     1
290
     0
176
     1
 40
1.0
176
     1
 40
1.0
176
     1
  0
VISUALSTYLE
  5
31
102
{ACAD_REACTORS
330
29
102
}
330
29
100
AcDbVisualStyle
  2
Hidden
 70
     6
177
     3
291
     0
 70
    58
 90
        1
176
     1
 90
        2
176
     1
 90
        2
176
     1
 90
        0
176
     1
 40
0.6
176
     1
 40
30.0
176
     1
 62
     7
420
 16777215
176
     1
 90
        2
176
     1
 90
        2
176
     1
 62
     7
176
     1
 62
   257
176
     1
 90
        2
176
     1
 90
        1
176
     1
 40
40.0
176
     1
 90
        0
176
     1
 62
   257
176
     1
 40
1.0
176
     1
 90
        1
176
     1
 90
        6
176
     1
 90
        2
176
     1
 62
     7
176
     1
 90
        3
176
     1
 90
        0
176
     1
 90
        0
176
     1
290
     0
176
     1
 90
        1
176
     1
 40
0.0
176
     1
 90
        0
176
     1
290
     0
176
     1
290
     1
176
     1
290
     1
176
     1
290
     0
176
     1
290
     0
176
     1
290
     0
176
     1
290
     0
176
     1
290
     0
176
     1
290
     0
176
     1
 90
       50
176
     1
 40
0.0
176
     1
 40
1.0
176
     1
 90
        0
176
     1
 62
    18
420
        0
176
     1
 90
       50
176
     1
 90
        3
176
     1
 62
     5
420
      255
176
     1
290
     0
176
     1
 90
       50
176
     1
 90
       50
176
     1
 90
       50
176
     1
290
     0
176
     1
 90
       50
176
     1
 62
   256
176
     0
 40
1.0
176
     0
 90
        2
176
     1
  1
strokes_ogs.tif
176
     1
290
     0
176
     1
 40
1.0
176
     1
 40
1.0
176
     1
  0
VISUALSTYLE
  5
3F
102
{ACAD_REACTORS
330
29
102
}
330
29
100
AcDbVisualStyle
  2
JitterOff
 70
    20
177
     3
291
     1
 70
    58
 90
        2
176
     0
 90
        2
176
     0
 90
        0
176
     0
 90
        0
176
     0
 40
0.6
176
     0
 40
30.0
176
     0
 62
     7
420
 16777215
176
     0
 90
        1
176
     0
 90
        4
176
     0
 62
     7
176
     0
 62
   257
176
     0
 90
        1
176
     0
 90
        1
176
     0
 40
1.0
176
     0
 90
       10
176
     2
 62
     7
176
     0
 40
1.0
176
     0
 90
        1
176
     0
 90
        6
176
     0
 90
        2
176
     0
 62
     7
176
     0
 90
        5
176
     0
 90
        0
176
     0
 90
        0
176
     0
290
     0
176
     0
 90
        1
176
     0
 40
0.0
176
     0
 90
        0
176
     0
290
     0
176
     0
290
     1
176
     0
290
     1
176
     0
290
     0
176
     0
290
     0
176
     0
290
     0
176
     0
290
     0
176
     0
290
     0
176
     0
290
     0
176
     0
 90
       50
176
     0
 40
0.0
176
     0
 40
1.0
176
     0
 90
        0
176
     0
 62
    18
420
        0
176
     0
 90
       50
176
     0
 90
        3
176
     0
 62
     5
420
      255
176
     0
290
     0
176
     0
 90
       50
176
     0
 90
       50
176
     0
 90
       50
176
     0
290
     0
176
     0
 90
       50
176
     0
 62
   256
176
     0
 40
1.0
176
     0
 90
        2
176
     0
  1
strokes_ogs.tif
176
     0
290
     0
176
     0
 40
1.0
176
     0
 40
1.0
176
     0
  0
VISUALSTYLE
  5
37
102
{ACAD_REACTORS
330
29
102
}
330
29
100
AcDbVisualStyle
  2
Linepattern
 70
    14
177
     3
291
     1
 70
    58
 90
        2
176
     1
 90
        2
176
     1
 90
        0
176
     1
 90
        0
176
     1
 40
0.6
176
     1
 40
30.0
176
     1
 62
     7
420
 16777215
176
     1
 90
        1
176
     1
 90
        4
176
     1
 62
     7
176
     1
 62
   257
176
     1
 90
        7
176
     1
 90
        7
176
     1
 40
1.0
176
     1
 90
        8
176
     1
 62
     7
176
     1
 40
1.0
176
     1
 90
        1
176
     1
 90
        6
176
     1
 90
        2
176
     1
 62
     7
176
     1
 90
        5
176
     1
 90
        0
176
     1
 90
        0
176
     1
290
     0
176
     1
 90
        1
176
     1
 40
0.0
176
     1
 90
        0
176
     1
290
     0
176
     1
290
     1
176
     1
290
     1
176
     1
290
     0
176
     1
290
     0
176
     1
290
     0
176
     1
290
     0
176
     1
290
     0
176
     1
290
     0
176
     1
 90
       50
176
     1
 40
0.0
176
     1
 40
1.0
176
     1
 90
        0
176
     1
 62
    18
420
        0
176
     1
 90
       50
176
     1
 90
        3
176
     1
 62
     5
420
      255
176
     1
290
     0
176
     1
 90
       50
176
     1
 90
       50
176
     1
 90
       50
176
     1
290
     0
176
     1
 90
       50
176
     1
 62
   256
176
     0
 40
1.0
176
     0
 90
        2
176
     1
  1
strokes_ogs.tif
176
     1
290
     0
176
     1
 40
1.0
176
     1
 40
1.0
176
     1
  0
VISUALSTYLE
  5
40
102
{ACAD_REACTORS
330
29
102
}
330
29
100
AcDbVisualStyle
  2
OverhangOff
 70
    21
177
     3
291
     1
 70
    58
 90
        2
176
     0
 90
        2
176
     0
 90
        0
176
     0
 90
        0
176
     0
 40
0.6
176
     0
 40
30.0
176
     0
 62
     7
420
 16777215
176
     0
 90
        1
176
     0
 90
        4
176
     0
 62
     7
176
     0
 62
   257
176
     0
 90
        1
176
     0
 90
        1
176
     0
 40
1.0
176
     0
 90
        9
176
     2
 62
     7
176
     0
 40
1.0
176
     0
 90
        1
176
     0
 90
        6
176
     0
 90
        2
176
     0
 62
     7
176
     0
 90
        5
176
     0
 90
        0
176
     0
 90
        0
176
     0
290
     0
176
     0
 90
        1
176
     0
 40
0.0
176
     0
 90
        0
176
     0
290
     0
176
     0
290
     1
176
     0
290
     1
176
     0
290
     0
176
     0
290
     0
176
     0
290
     0
176
     0
290
     0
176
     0
290
     0
176
     0
290
     0
176
     0
 90
       50
176
     0
 40
0.0
176
     0
 40
1.0
176
     0
 90
        0
176
     0
 62
    18
420
        0
176
     0
 90
       50
176
     0
 90
        3
176
     0
 62
     5
420
      255
176
     0
290
     0
176
     0
 90
       50
176
     0
 90
       50
176
     0
 90
       50
176
     0
290
     0
176
     0
 90
       50
176
     0
 62
   256
176
     0
 40
1.0
176
     0
 90
        2
176
     0
  1
strokes_ogs.tif
176
     0
290
     0
176
     0
 40
1.0
176
     0
 40
1.0
176
     0
  0
VISUALSTYLE
  5
33
102
{ACAD_REACTORS
330
29
102
}
330
29
100
AcDbVisualStyle
  2
Realistic
 70
     8
177
     3
291
     0
 70
    58
 90
        2
176
     1
 90
        3
176
     1
 90
        0
176
     1
 90
        2
176
     1
 40
0.6
176
     1
 40
30.0
176
     1
 62
     7
420
 16777215
176
     1
 90
        0
176
     1
 90
        0
176
     1
 62
     7
176
     1
 62
   257
176
     1
 90
        1
176
     1
 90
        1
176
     1
 40
1.0
176
     1
 90
        8
176
     1
 62
   257
176
     1
 40
1.0
176
     1
 90
        1
176
     1
 90
        6
176
     1
 90
        2
176
     1
 62
     7
176
     1
 90
        3
176
     1
 90
        0
176
     1
 90
        0
176
     1
290
     0
176
     1
 90
       13
176
     1
 40
0.0
176
     1
 90
        0
176
     1
290
     0
176
     1
290
     1
176
     1
290
     1
176
     1
290
     0
176
     1
290
     0
176
     1
290
     0
176
     1
290
     0
176
     1
290
     0
176
     1
290
     0
176
     1
 90
       50
176
     1
 40
0.0
176
     1
 40
1.0
176
     1
 90
        0
176
     1
 62
    18
420
        0
176
     1
 90
       50
176
     1
 90
        3
176
     1
 62
     5
420
      255
176
     1
290
     0
176
     1
 90
       50
176
     1
 90
       50
176
     1
 90
       50
176
     1
290
     0
176
     1
 90
       50
176
     1
 62
   256
176
     0
 40
1.0
176
     0
 90
        2
176
     1
  1
strokes_ogs.tif
176
     1
290
     0
176
     1
 40
1.0
176
     1
 40
1.0
176
     1
  0
VISUALSTYLE
  5
3E
102
{ACAD_REACTORS
330
29
102
}
330
29
100
AcDbVisualStyle
  2
Shaded
 70
    27
177
     3
291
     0
 70
    58
 90
        2
176
     1
 90
        2
176
     1
 90
        1
176
     1
 90
        2
176
     1
 40
0.6
176
     1
 40
30.0
176
     1
 62
     7
420
 16777215
176
     1
 90
        0
176
     1
 90
        4
176
     1
 62
     7
176
     1
 62
   257
176
     1
 90
        1
176
     1
 90
        1
176
     1
 40
1.0
176
     1
 90
        8
176
     1
 62
   257
176
     1
 40
1.0
176
     1
 90
        1
176
     1
 90
        6
176
     1
 90
        2
176
     1
 62
     8
420
  7895160
176
     1
 90
        3
176
     1
 90
        0
176
     1
 90
        0
176
     1
290
     0
176
     1
 90
        5
176
     1
 40
0.0
176
     1
 90
        0
176
     1
290
     0
176
     1
290
     1
176
     1
290
     1
176
     1
290
     0
176
     1
290
     0
176
     1
290
     0
176
     1
290
     0
176
     1
290
     0
176
     1
290
     0
176
     1
 90
       50
176
     1
 40
0.0
176
     1
 40
1.0
176
     1
 90
        0
176
     1
 62
    18
420
        0
176
     1
 90
       50
176
     1
 90
        3
176
     1
 62
     5
420
      255
176
     1
290
     0
176
     1
 90
       50
176
     1
 90
       50
176
     1
 90
       50
176
     1
290
     0
176
     1
 90
       50
176
     1
 62
   256
176
     0
 40
1.0
176
     0
 90
        2
176
     1
  1
strokes_ogs.tif
176
     1
290
     0
176
     1
 40
1.0
176
     1
 40
1.0
176
     1
  0
VISUALSTYLE
  5
3D
102
{ACAD_REACTORS
330
29
102
}
330
29
100
AcDbVisualStyle
  2
Shaded with edges
 70
    26
177
     3
291
     0
 70
    58
 90
        2
176
     1
 90
        2
176
     1
 90
        1
176
     1
 90
        2
176
     1
 40
0.6
176
     1
 40
30.0
176
     1
 62
     7
420
 16777215
176
     1
 90
        1
176
     1
 90
        2
176
     1
 62
     7
176
     1
 62
   257
176
     1
 90
        2
176
     1
 90
        1
176
     1
 40
1.0
176
     1
 90
        8
176
     1
 62
   257
176
     1
 40
1.0
176
     1
 90
        1
176
     1
 90
        6
176
     1
 90
        2
176
     1
 62
     7
176
     1
 90
        3
176
     1
 90
        0
176
     1
 90
        0
176
     1
290
     0
176
     1
 90
        5
176
     1
 40
0.0
176
     1
 90
        0
176
     1
290
     0
176
     1
290
     1
176
     1
290
     1
176
     1
290
     0
176
     1
290
     0
176
     1
290
     0
176
     1
290
     0
176
     1
290
     0
176
     1
290
     0
176
     1
 90
       50
176
     1
 40
0.0
176
     1
 40
1.0
176
     1
 90
        0
176
     1
 62
    18
420
        0
176
     1
 90
       50
176
     1
 90
        3
176
     1
 62
     5
420
      255
176
     1
290
     0
176
     1
 90
       50
176
     1
 90
       50
176
     1
 90
       50
176
     1
290
     0
176
     1
 90
       50
176
     1
 62
   256
176
     0
 40
1.0
176
     0
 90
        2
176
     1
  1
strokes_ogs.tif
176
     1
290
     0
176
     1
 40
1.0
176
     1
 40
1.0
176
     1
  0
VISUALSTYLE
  5
3A
102
{ACAD_REACTORS
330
29
102
}
330
29
100
AcDbVisualStyle
  2
Shades of Gray
 70
    23
177
     3
291
     0
 70
    58
 90
        2
176
     1
 90
        2
176
     1
 90
        3
176
     1
 90
        0
176
     1
 40
0.6
176
     1
 40
30.0
176
     1
 62
     7
420
 16777215
176
     1
 90
        2
176
     1
 90
        2
176
     1
 62
     7
176
     1
 62
     7
176
     1
 90
        1
176
     1
 90
        1
176
     1
 40
40.0
176
     1
 90
        8
176
     1
 62
     7
176
     1
 40
1.0
176
     1
 90
        1
176
     1
 90
        6
176
     1
 90
        2
176
     1
 62
     7
176
     1
 90
        3
176
     1
 90
        0
176
     1
 90
        0
176
     1
290
     0
176
     1
 90
        1
176
     1
 40
0.0
176
     1
 90
        0
176
     1
290
     0
176
     1
290
     1
176
     1
290
     1
176
     1
290
     0
176
     1
290
     0
176
     1
290
     0
176
     1
290
     0
176
     1
290
     0
176
     1
290
     0
176
     1
 90
       50
176
     1
 40
0.0
176
     1
 40
1.0
176
     1
 90
        0
176
     1
 62
    18
420
        0
176
     1
 90
       50
176
     1
 90
        3
176
     1
 62
     5
420
      255
176
     1
290
     0
176
     1
 90
       50
176
     1
 90
       50
176
     1
 90
       50
176
     1
290
     0
176
     1
 90
       50
176
     1
 62
   256
176
     0
 40
1.0
176
     0
 90
        2
176
     1
  1
strokes_ogs.tif
176
     1
290
     0
176
     1
 40
1.0
176
     1
 40
1.0
176
     1
  0
VISUALSTYLE
  5
3B
102
{ACAD_REACTORS
330
29
102
}
330
29
100
AcDbVisualStyle
  2
Sketchy
 70
    24
177
     3
291
     0
 70
    58
 90
        1
176
     1
 90
        2
176
     1
 90
        2
176
     1
 90
        0
176
     1
 40
0.6
176
     1
 40
30.0
176
     1
 62
     7
420
 16777215
176
     1
 90
        2
176
     1
 90
        2
176
     1
 62
     7
176
     1
 62
     7
176
     1
 90
        1
176
     1
 90
        1
176
     1
 40
40.0
176
     1
 90
       11
176
     1
 62
     7
176
     1
 40
1.0
176
     1
 90
        1
176
     1
 90
        6
176
     1
 90
        2
176
     1
 62
     7
176
     1
 90
        6
176
     1
 90
        0
176
     1
 90
        0
176
     1
290
     0
176
     1
 90
        1
176
     1
 40
0.0
176
     1
 90
        0
176
     1
290
     0
176
     1
290
     1
176
     1
290
     1
176
     1
290
     0
176
     1
290
     0
176
     1
290
     0
176
     1
290
     0
176
     1
290
     0
176
     1
290
     0
176
     1
 90
       50
176
     1
 40
0.0
176
     1
 40
1.0
176
     1
 90
        0
176
     1
 62
    18
420
        0
176
     1
 90
       50
176
     1
 90
        3
176
     1
 62
     5
420
      255
176
     1
290
     0
176
     1
 90
       50
176
     1
 90
       50
176
     1
 90
       50
176
     1
290
     0
176
     1
 90
       50
176
     1
 62
   256
176
     0
 40
1.0
176
     0
 90
        2
176
     1
  1
strokes_ogs.tif
176
     1
290
     0
176
     1
 40
1.0
176
     1
 40
1.0
176
     1
  0
VISUALSTYLE
  5
36
102
{ACAD_REACTORS
330
29
102
}
330
29
100
AcDbVisualStyle
  2
Thicken
 70
    13
177
     3
291
     1
 70
    58
 90
        2
176
     1
 90
        2
176
     1
 90
        0
176
     1
 90
        0
176
     1
 40
0.6
176
     1
 40
30.0
176
     1
 62
     7
420
 16777215
176
     1
 90
        1
176
     1
 90
        4
176
     1
 62
     7
176
     1
 62
   257
176
     1
 90
        1
176
     1
 90
        1
176
     1
 40
1.0
176
     1
 90
       12
176
     1
 62
     7
176
     1
 40
1.0
176
     1
 90
        1
176
     1
 90
        6
176
     1
 90
        2
176
     1
 62
     7
176
     1
 90
        5
176
     1
 90
        0
176
     1
 90
        0
176
     1
290
     0
176
     1
 90
        1
176
     1
 40
0.0
176
     1
 90
        0
176
     1
290
     0
176
     1
290
     1
176
     1
290
     1
176
     1
290
     0
176
     1
290
     0
176
     1
290
     0
176
     1
290
     0
176
     1
290
     0
176
     1
290
     0
176
     1
 90
       50
176
     1
 40
0.0
176
     1
 40
1.0
176
     1
 90
        0
176
     1
 62
    18
420
        0
176
     1
 90
       50
176
     1
 90
        3
176
     1
 62
     5
420
      255
176
     1
290
     0
176
     1
 90
       50
176
     1
 90
       50
176
     1
 90
       50
176
     1
290
     0
176
     1
 90
       50
176
     1
 62
   256
176
     0
 40
1.0
176
     0
 90
        2
176
     1
  1
strokes_ogs.tif
176
     1
290
     0
176
     1
 40
1.0
176
     1
 40
1.0
176
     1
  0
VISUALSTYLE
  5
30
102
{ACAD_REACTORS
330
29
102
}
330
29
100
AcDbVisualStyle
  2
Wireframe
 70
     5
177
     3
291
     0
 70
    58
 90
        0
176
     1
 90
        2
176
     1
 90
        0
176
     1
 90
        0
176
     1
 40
0.6
176
     1
 40
30.0
176
     1
 62
     7
420
 16777215
176
     1
 90
        1
176
     1
 90
        4
176
     1
 62
     7
176
     1
 62
   257
176
     1
 90
        1
176
     1
 90
        1
176
     1
 40
1.0
176
     1
 90
        0
176
     1
 62
   257
176
     1
 40
1.0
176
     1
 90
        1
176
     1
 90
        6
176
     1
 90
        2
176
     1
 62
     7
176
     1
 90
        3
176
     1
 90
        0
176
     1
 90
        0
176
     1
290
     0
176
     1
 90
        1
176
     1
 40
0.0
176
     1
 90
        0
176
     1
290
     0
176
     1
290
     1
176
     1
290
     1
176
     1
290
     0
176
     1
290
     0
176
     1
290
     0
176
     1
290
     0
176
     1
290
     0
176
     1
290
     0
176
     1
 90
       50
176
     1
 40
0.0
176
     1
 40
1.0
176
     1
 90
        0
176
     1
 62
    18
420
        0
176
     1
 90
       50
176
     1
 90
        3
176
     1
 62
     5
420
      255
176
     1
290
     0
176
     1
 90
       50
176
     1
 90
       50
176
     1
 90
       50
176
     1
290
     0
176
     1
 90
       50
176
     1
 62
   256
176
     0
 40
1.0
176
     0
 90
        2
176
     1
  1
strokes_ogs.tif
176
     1
290
     0
176
     1
 40
1.0
176
     1
 40
1.0
176
     1
  0
VISUALSTYLE
  5
3C
102
{ACAD_REACTORS
330
29
102
}
330
29
100
AcDbVisualStyle
  2
X-Ray
 70
    25
177
     3
291
     0
 70
    58
 90
        2
176
     1
 90
        2
176
     1
 90
        1
176
     1
 90
        1
176
     1
 40
0.5
176
     1
 40
30.0
176
     1
 62
     7
420
 16777215
176
     1
 90
        1
176
     1
 90
        0
176
     1
 62
     7
176
     1
 62
   257
176
     1
 90
        1
176
     1
 90
        1
176
     1
 40
1.0
176
     1
 90
        8
176
     1
 62
     7
176
     1
 40
1.0
176
     1
 90
        1
176
     1
 90
        6
176
     1
 90
        2
176
     1
 62
     7
176
     1
 90
        3
176
     1
 90
        0
176
     1
 90
        0
176
     1
290
     0
176
     1
 90
       13
176
     1
 40
0.0
176
     1
 90
        0
176
     1
290
     0
176
     1
290
     1
176
     1
290
     1
176
     1
290
     0
176
     1
290
     0
176
     1
290
     0
176
     1
290
     0
176
     1
290
     0
176
     1
290
     0
176
     1
 90
       50
176
     1
 40
0.0
176
     1
 40
1.0
176
     1
 90
        0
176
     1
 62
    18
420
        0
176
     1
 90
       50
176
     1
 90
        3
176
     1
 62
     5
420
      255
176
     1
290
     0
176
     1
 90
       50
176
     1
 90
       50
176
     1
 90
       50
176
     1
290
     0
176
     1
 90
       50
176
     1
 62
   256
176
     0
 40
1.0
176
     0
 90
        2
176
     1
  1
strokes_ogs.tif
176
     1
290
     0
176
     1
 40
1.0
176
     1
 40
1.0
176
     1
  0
DICTIONARYVAR
  5
BC
102
{ACAD_REACTORS
330
B7
102
}
330
B7
100
DictionaryVariables
280
     0
  1
1:1
  0
DICTIONARYVAR
  5
B9
102
{ACAD_REACTORS
330
B7
102
}
330
B7
100
DictionaryVariables
280
     0
  1
STANDARD
  0
DICTIONARYVAR
  5
B8
102
{ACAD_REACTORS
330
B7
102
}
330
B7
100
DictionaryVariables
280
     0
  1
STANDARD
  0
DICTIONARYVAR
  5
BA
102
{ACAD_REACTORS
330
B7
102
}
330
B7
100
DictionaryVariables
280
     0
  1
Imperial24
  0
DICTIONARYVAR
  5
BB
102
{ACAD_REACTORS
330
B7
102
}
330
B7
100
DictionaryVariables
280
     0
  1
Imperial24
  0
DICTIONARY
  5
1A
330
19
100
AcDbDictionary
280
     1
281
     1
  3
BUMPTILE
360
1C
  3
DIFFUSETILE
360
1B
  3
OPACITYTILE
360
1F
  3
REFLECTIONTILE
360
1E
  3
REFRACTIONTILE
360
20
  3
SPECULARTILE
360
1D
  0
DICTIONARY
  5
12
330
11
100
AcDbDictionary
280
     1
281
     1
  3
BUMPTILE
360
14
  3
DIFFUSETILE
360
13
  3
OPACITYTILE
360
17
  3
REFLECTIONTILE
360
16
  3
REFRACTIONTILE
360
18
  3
SPECULARTILE
360
15
  0
DICTIONARY
  5
22
330
21
100
AcDbDictionary
280
     1
281
     1
  3
BUMPTILE
360
24
  3
DIFFUSETILE
360
23
  3
OPACITYTILE
360
27
  3
REFLECTIONTILE
360
26
  3
REFRACTIONTILE
360
28
  3
SPECULARTILE
360
25
  0
DICTIONARY
  5
BD
330
65
100
AcDbDictionary
280
     1
281
     1
  3
ACAD_ROUNDTRIP_2008_TABLESTYLE_CELLSTYLEMAP
360
BE
  0
XRECORD
  5
1C
102
{ACAD_REACTORS
330
1A
102
}
330
1A
100
AcDbXrecord
280
     1
270
     1
271
     1
  0
XRECORD
  5
1B
102
{ACAD_REACTORS
330
1A
102
}
330
1A
100
AcDbXrecord
280
     1
270
     1
271
     1
  0
XRECORD
  5
1F
102
{ACAD_REACTORS
330
1A
102
}
330
1A
100
AcDbXrecord
280
     1
270
     1
271
     1
  0
XRECORD
  5
1E
102
{ACAD_REACTORS
330
1A
102
}
330
1A
100
AcDbXrecord
280
     1
270
     1
271
     1
  0
XRECORD
  5
20
102
{ACAD_REACTORS
330
1A
102
}
330
1A
100
AcDbXrecord
280
     1
270
     1
271
     1
  0
XRECORD
  5
1D
102
{ACAD_REACTORS
330
1A
102
}
330
1A
100
AcDbXrecord
280
     1
270
     1
271
     1
  0
XRECORD
  5
14
102
{ACAD_REACTORS
330
12
102
}
330
12
100
AcDbXrecord
280
     1
270
     1
271
     1
  0
XRECORD
  5
13
102
{ACAD_REACTORS
330
12
102
}
330
12
100
AcDbXrecord
280
     1
270
     1
271
     1
  0
XRECORD
  5
17
102
{ACAD_REACTORS
330
12
102
}
330
12
100
AcDbXrecord
280
     1
270
     1
271
     1
  0
XRECORD
  5
16
102
{ACAD_REACTORS
330
12
102
}
330
12
100
AcDbXrecord
280
     1
270
     1
271
     1
  0
XRECORD
  5
18
102
{ACAD_REACTORS
330
12
102
}
330
12
100
AcDbXrecord
280
     1
270
     1
271
     1
  0
XRECORD
  5
15
102
{ACAD_REACTORS
330
12
102
}
330
12
100
AcDbXrecord
280
     1
270
     1
271
     1
  0
XRECORD
  5
24
102
{ACAD_REACTORS
330
22
102
}
330
22
100
AcDbXrecord
280
     1
270
     1
271
     1
  0
XRECORD
  5
23
102
{ACAD_REACTORS
330
22
102
}
330
22
100
AcDbXrecord
280
     1
270
     1
271
     1
  0
XRECORD
  5
27
102
{ACAD_REACTORS
330
22
102
}
330
22
100
AcDbXrecord
280
     1
270
     1
271
     1
  0
XRECORD
  5
26
102
{ACAD_REACTORS
330
22
102
}
330
22
100
AcDbXrecord
280
     1
270
     1
271
     1
  0
XRECORD
  5
28
102
{ACAD_REACTORS
330
22
102
}
330
22
100
AcDbXrecord
280
     1
270
     1
271
     1
  0
XRECORD
  5
25
102
{ACAD_REACTORS
330
22
102
}
330
22
100
AcDbXrecord
280
     1
270
     1
271
     1
  0
CELLSTYLEMAP
  5
BE
102
{ACAD_REACTORS
330
BD
102
}
330
BD
100
AcDbCellStyleMap
 90
        3
300
CELLSTYLE
  1
TABLEFORMAT_BEGIN
 90
        5
170
     1
 91
        0
 92
    32768
 62
   257
 93
        1
300
CONTENTFORMAT
  1
CONTENTFORMAT_BEGIN
 90
        0
 91
        0
 92
      512
 93
        0
300

 40
0.0
140
1.0
 94
        5
 62
     0
340
55
144
0.25
309
CONTENTFORMAT_END
171
     0
 94
        0
309
TABLEFORMAT_END
  1
CELLSTYLE_BEGIN
 90
        1
 91
        1
300
_TITLE
309
CELLSTYLE_END
300
CELLSTYLE
  1
TABLEFORMAT_BEGIN
 90
        5
170
     1
 91
        0
 92
        0
 62
   257
 93
        1
300
CONTENTFORMAT
  1
CONTENTFORMAT_BEGIN
 90
        0
 91
        0
 92
      512
 93
        0
300

 40
0.0
140
1.0
 94
        5
 62
     0
340
55
144
0.18
309
CONTENTFORMAT_END
171
     0
 94
        0
309
TABLEFORMAT_END
  1
CELLSTYLE_BEGIN
 90
        2
 91
        1
300
_HEADER
309
CELLSTYLE_END
300
CELLSTYLE
  1
TABLEFORMAT_BEGIN
 90
        5
170
     1
 91
        0
 92
        0
 62
   257
 93
        1
300
CONTENTFORMAT
  1
CONTENTFORMAT_BEGIN
 90
        0
 91
        0
 92
      512
 93
        0
300

 40
0.0
140
1.0
 94
        2
 62
     0
340
55
144
0.18
309
CONTENTFORMAT_END
171
     0
 94
        0
309
TABLEFORMAT_END
  1
CELLSTYLE_BEGIN
 90
        3
 91
        2
300
_DATA
309
CELLSTYLE_END
  0
ENDSEC
  0
EOF
